<svg xmlns="http://www.w3.org/2000/svg" xmlns:xlink="http://www.w3.org/1999/xlink" contentStyleType="text/css" height="501px" preserveAspectRatio="none" style="width:736px;height:501px;background:#FFFFFF;" version="1.1" viewBox="0 0 736 501" width="736px" zoomAndPan="magnify"><title>Code Diagram Backend Adapter voor triptop</title><defs/><g><text fill="#000000" font-family="sans-serif" font-size="14" font-weight="bold" lengthAdjust="spacing" textLength="296.3789" x="212.998" y="25.1074">Code Diagram Backend Adapter voor triptop</text><!--class BouwsteenController--><g id="elem_BouwsteenController"><rect codeLine="4" fill="#F1F1F1" height="66.6211" id="BouwsteenController" rx="2.5" ry="2.5" style="stroke:#181818;stroke-width:0.5;" width="161.958" x="37" y="46.6211"/><ellipse cx="52" cy="62.6211" fill="#ADD1B2" rx="11" ry="11" style="stroke:#181818;stroke-width:1.0;"/><path d="M54.7656,58.4961 Q54.9219,58.2773 55.1094,58.168 Q55.2969,58.0586 55.5156,58.0586 Q55.8906,58.0586 56.125,58.3242 Q56.3594,58.5742 56.3594,59.1836 L56.3594,60.6367 Q56.3594,61.2461 56.125,61.5117 Q55.8906,61.7773 55.5156,61.7773 Q55.1719,61.7773 54.9688,61.5742 Q54.7656,61.3867 54.6563,60.8711 Q54.6094,60.5117 54.4219,60.3242 Q54.0938,59.9492 53.4844,59.7305 Q52.875,59.5117 52.25,59.5117 Q51.4844,59.5117 50.8438,59.8398 Q50.2188,60.168 49.7188,60.918 Q49.2344,61.668 49.2344,62.6992 L49.2344,63.793 Q49.2344,65.0273 50.125,65.8555 Q51.0156,66.668 52.6094,66.668 Q53.5469,66.668 54.2031,66.418 Q54.5938,66.2617 55.0156,65.8242 Q55.2813,65.5586 55.4219,65.4805 Q55.5781,65.4023 55.7813,65.4023 Q56.1094,65.4023 56.3594,65.668 Q56.625,65.918 56.625,66.2617 Q56.625,66.6055 56.2813,67.0117 Q55.7813,67.5898 54.9844,67.918 Q53.9063,68.3711 52.6094,68.3711 Q51.0938,68.3711 49.8906,67.7461 Q48.9063,67.2461 48.2188,66.1836 Q47.5313,65.1055 47.5313,63.8242 L47.5313,62.668 Q47.5313,61.3398 48.1406,60.1992 Q48.7656,59.043 49.8594,58.4336 Q50.9531,57.8086 52.1875,57.8086 Q52.9219,57.8086 53.5625,57.9805 Q54.2188,58.1367 54.7656,58.4961 Z " fill="#000000"/><text fill="#000000" font-family="sans-serif" font-size="14" lengthAdjust="spacing" textLength="129.958" x="66" y="68.418">BouwsteenController</text><line style="stroke:#181818;stroke-width:0.5;" x1="38" x2="197.958" y1="78.6211" y2="78.6211"/><line style="stroke:#181818;stroke-width:0.5;" x1="38" x2="197.958" y1="86.6211" y2="86.6211"/><text fill="#000000" font-family="sans-serif" font-size="14" lengthAdjust="spacing" textLength="144.7168" x="43" y="105.7285">main(args: String): void</text></g><!--class BouwsteenService--><g id="elem_BouwsteenService"><rect codeLine="7" fill="#F1F1F1" height="66.6211" id="BouwsteenService" rx="2.5" ry="2.5" style="stroke:#181818;stroke-width:0.5;" width="222.082" x="7" y="173.6211"/><ellipse cx="55.8154" cy="189.6211" fill="#ADD1B2" rx="11" ry="11" style="stroke:#181818;stroke-width:1.0;"/><path d="M58.5811,185.4961 Q58.7373,185.2773 58.9248,185.168 Q59.1123,185.0586 59.3311,185.0586 Q59.7061,185.0586 59.9404,185.3242 Q60.1748,185.5742 60.1748,186.1836 L60.1748,187.6367 Q60.1748,188.2461 59.9404,188.5117 Q59.7061,188.7773 59.3311,188.7773 Q58.9873,188.7773 58.7842,188.5742 Q58.5811,188.3867 58.4717,187.8711 Q58.4248,187.5117 58.2373,187.3242 Q57.9092,186.9492 57.2998,186.7305 Q56.6904,186.5117 56.0654,186.5117 Q55.2998,186.5117 54.6592,186.8398 Q54.0342,187.168 53.5342,187.918 Q53.0498,188.668 53.0498,189.6992 L53.0498,190.793 Q53.0498,192.0273 53.9404,192.8555 Q54.8311,193.668 56.4248,193.668 Q57.3623,193.668 58.0186,193.418 Q58.4092,193.2617 58.8311,192.8242 Q59.0967,192.5586 59.2373,192.4805 Q59.3936,192.4023 59.5967,192.4023 Q59.9248,192.4023 60.1748,192.668 Q60.4404,192.918 60.4404,193.2617 Q60.4404,193.6055 60.0967,194.0117 Q59.5967,194.5898 58.7998,194.918 Q57.7217,195.3711 56.4248,195.3711 Q54.9092,195.3711 53.7061,194.7461 Q52.7217,194.2461 52.0342,193.1836 Q51.3467,192.1055 51.3467,190.8242 L51.3467,189.668 Q51.3467,188.3398 51.9561,187.1992 Q52.5811,186.043 53.6748,185.4336 Q54.7686,184.8086 56.0029,184.8086 Q56.7373,184.8086 57.3779,184.9805 Q58.0342,185.1367 58.5811,185.4961 Z " fill="#000000"/><text fill="#000000" font-family="sans-serif" font-size="14" lengthAdjust="spacing" textLength="115.9512" x="76.3154" y="195.418">BouwsteenService</text><line style="stroke:#181818;stroke-width:0.5;" x1="8" x2="228.082" y1="205.6211" y2="205.6211"/><line style="stroke:#181818;stroke-width:0.5;" x1="8" x2="228.082" y1="213.6211" y2="213.6211"/><text fill="#000000" font-family="sans-serif" font-size="14" lengthAdjust="spacing" textLength="210.082" x="13" y="232.7285">boekReis(treinNaam: String): void</text></g><!--class TreinAdapterFactory--><g id="elem_TreinAdapterFactory"><rect codeLine="10" fill="#F1F1F1" height="66.6211" id="TreinAdapterFactory" rx="2.5" ry="2.5" style="stroke:#181818;stroke-width:0.5;" width="323.2471" x="64.5" y="300.6211"/><ellipse cx="158.0703" cy="316.6211" fill="#ADD1B2" rx="11" ry="11" style="stroke:#181818;stroke-width:1.0;"/><path d="M160.8359,312.4961 Q160.9922,312.2773 161.1797,312.168 Q161.3672,312.0586 161.5859,312.0586 Q161.9609,312.0586 162.1953,312.3242 Q162.4297,312.5742 162.4297,313.1836 L162.4297,314.6367 Q162.4297,315.2461 162.1953,315.5117 Q161.9609,315.7773 161.5859,315.7773 Q161.2422,315.7773 161.0391,315.5742 Q160.8359,315.3867 160.7266,314.8711 Q160.6797,314.5117 160.4922,314.3242 Q160.1641,313.9492 159.5547,313.7305 Q158.9453,313.5117 158.3203,313.5117 Q157.5547,313.5117 156.9141,313.8398 Q156.2891,314.168 155.7891,314.918 Q155.3047,315.668 155.3047,316.6992 L155.3047,317.793 Q155.3047,319.0273 156.1953,319.8555 Q157.0859,320.668 158.6797,320.668 Q159.6172,320.668 160.2734,320.418 Q160.6641,320.2617 161.0859,319.8242 Q161.3516,319.5586 161.4922,319.4805 Q161.6484,319.4023 161.8516,319.4023 Q162.1797,319.4023 162.4297,319.668 Q162.6953,319.918 162.6953,320.2617 Q162.6953,320.6055 162.3516,321.0117 Q161.8516,321.5898 161.0547,321.918 Q159.9766,322.3711 158.6797,322.3711 Q157.1641,322.3711 155.9609,321.7461 Q154.9766,321.2461 154.2891,320.1836 Q153.6016,319.1055 153.6016,317.8242 L153.6016,316.668 Q153.6016,315.3398 154.2109,314.1992 Q154.8359,313.043 155.9297,312.4336 Q157.0234,311.8086 158.2578,311.8086 Q158.9922,311.8086 159.6328,311.9805 Q160.2891,312.1367 160.8359,312.4961 Z " fill="#000000"/><text fill="#000000" font-family="sans-serif" font-size="14" lengthAdjust="spacing" textLength="127.6064" x="178.5703" y="322.418">TreinAdapterFactory</text><line style="stroke:#181818;stroke-width:0.5;" x1="65.5" x2="386.7471" y1="332.6211" y2="332.6211"/><line style="stroke:#181818;stroke-width:0.5;" x1="65.5" x2="386.7471" y1="340.6211" y2="340.6211"/><text fill="#000000" font-family="sans-serif" font-size="14" lengthAdjust="spacing" textLength="311.2471" x="70.5" y="359.7285">getTreinAdapter(treinNaam: String): ITreinAdapter</text></g><!--class Ns--><g id="elem_Ns"><rect codeLine="14" fill="#F1F1F1" height="66.6211" id="Ns" rx="2.5" ry="2.5" style="stroke:#181818;stroke-width:0.5;" width="117.0273" x="413.5" y="427.6211"/><ellipse cx="459.2085" cy="443.6211" fill="#ADD1B2" rx="11" ry="11" style="stroke:#181818;stroke-width:1.0;"/><path d="M461.9741,439.4961 Q462.1304,439.2773 462.3179,439.168 Q462.5054,439.0586 462.7241,439.0586 Q463.0991,439.0586 463.3335,439.3242 Q463.5679,439.5742 463.5679,440.1836 L463.5679,441.6367 Q463.5679,442.2461 463.3335,442.5117 Q463.0991,442.7773 462.7241,442.7773 Q462.3804,442.7773 462.1772,442.5742 Q461.9741,442.3867 461.8647,441.8711 Q461.8179,441.5117 461.6304,441.3242 Q461.3022,440.9492 460.6929,440.7305 Q460.0835,440.5117 459.4585,440.5117 Q458.6929,440.5117 458.0522,440.8398 Q457.4272,441.168 456.9272,441.918 Q456.4429,442.668 456.4429,443.6992 L456.4429,444.793 Q456.4429,446.0273 457.3335,446.8555 Q458.2241,447.668 459.8179,447.668 Q460.7554,447.668 461.4116,447.418 Q461.8022,447.2617 462.2241,446.8242 Q462.4897,446.5586 462.6304,446.4805 Q462.7866,446.4023 462.9897,446.4023 Q463.3179,446.4023 463.5679,446.668 Q463.8335,446.918 463.8335,447.2617 Q463.8335,447.6055 463.4897,448.0117 Q462.9897,448.5898 462.1929,448.918 Q461.1147,449.3711 459.8179,449.3711 Q458.3022,449.3711 457.0991,448.7461 Q456.1147,448.2461 455.4272,447.1836 Q454.7397,446.1055 454.7397,444.8242 L454.7397,443.668 Q454.7397,442.3398 455.3491,441.1992 Q455.9741,440.043 457.0679,439.4336 Q458.1616,438.8086 459.396,438.8086 Q460.1304,438.8086 460.771,438.9805 Q461.4272,439.1367 461.9741,439.4961 Z " fill="#000000"/><text fill="#000000" font-family="sans-serif" font-size="14" lengthAdjust="spacing" textLength="17.1104" x="479.7085" y="449.418">Ns</text><line style="stroke:#181818;stroke-width:0.5;" x1="414.5" x2="529.5273" y1="459.6211" y2="459.6211"/><line style="stroke:#181818;stroke-width:0.5;" x1="414.5" x2="529.5273" y1="467.6211" y2="467.6211"/><text fill="#000000" font-family="sans-serif" font-size="14" lengthAdjust="spacing" textLength="105.0273" x="419.5" y="486.7285">maakReis(): void</text></g><!--class DeutscheBahn--><g id="elem_DeutscheBahn"><rect codeLine="18" fill="#F1F1F1" height="66.6211" id="DeutscheBahn" rx="2.5" ry="2.5" style="stroke:#181818;stroke-width:0.5;" width="123.8408" x="581" y="427.6211"/><ellipse cx="596" cy="443.6211" fill="#ADD1B2" rx="11" ry="11" style="stroke:#181818;stroke-width:1.0;"/><path d="M598.7656,439.4961 Q598.9219,439.2773 599.1094,439.168 Q599.2969,439.0586 599.5156,439.0586 Q599.8906,439.0586 600.125,439.3242 Q600.3594,439.5742 600.3594,440.1836 L600.3594,441.6367 Q600.3594,442.2461 600.125,442.5117 Q599.8906,442.7773 599.5156,442.7773 Q599.1719,442.7773 598.9688,442.5742 Q598.7656,442.3867 598.6563,441.8711 Q598.6094,441.5117 598.4219,441.3242 Q598.0938,440.9492 597.4844,440.7305 Q596.875,440.5117 596.25,440.5117 Q595.4844,440.5117 594.8438,440.8398 Q594.2188,441.168 593.7188,441.918 Q593.2344,442.668 593.2344,443.6992 L593.2344,444.793 Q593.2344,446.0273 594.125,446.8555 Q595.0156,447.668 596.6094,447.668 Q597.5469,447.668 598.2031,447.418 Q598.5938,447.2617 599.0156,446.8242 Q599.2813,446.5586 599.4219,446.4805 Q599.5781,446.4023 599.7813,446.4023 Q600.1094,446.4023 600.3594,446.668 Q600.625,446.918 600.625,447.2617 Q600.625,447.6055 600.2813,448.0117 Q599.7813,448.5898 598.9844,448.918 Q597.9063,449.3711 596.6094,449.3711 Q595.0938,449.3711 593.8906,448.7461 Q592.9063,448.2461 592.2188,447.1836 Q591.5313,446.1055 591.5313,444.8242 L591.5313,443.668 Q591.5313,442.3398 592.1406,441.1992 Q592.7656,440.043 593.8594,439.4336 Q594.9531,438.8086 596.1875,438.8086 Q596.9219,438.8086 597.5625,438.9805 Q598.2188,439.1367 598.7656,439.4961 Z " fill="#000000"/><text fill="#000000" font-family="sans-serif" font-size="14" lengthAdjust="spacing" textLength="91.8408" x="610" y="449.418">DeutscheBahn</text><line style="stroke:#181818;stroke-width:0.5;" x1="582" x2="703.8408" y1="459.6211" y2="459.6211"/><line style="stroke:#181818;stroke-width:0.5;" x1="582" x2="703.8408" y1="467.6211" y2="467.6211"/><text fill="#000000" font-family="sans-serif" font-size="14" lengthAdjust="spacing" textLength="96.4756" x="587" y="486.7285">vindReis(): void</text></g><!--class ITreinAdapter--><g id="elem_ITreinAdapter"><rect codeLine="22" fill="#F1F1F1" height="66.6211" id="ITreinAdapter" rx="2.5" ry="2.5" style="stroke:#181818;stroke-width:0.5;" width="116.8203" x="214.5" y="427.6211"/><ellipse cx="229.5" cy="443.6211" fill="#B4A7E5" rx="11" ry="11" style="stroke:#181818;stroke-width:1.0;"/><path d="M230.4531,440.2617 L230.4531,446.918 L232.1719,446.918 Q232.7813,446.918 233.0469,447.1523 Q233.3125,447.3867 233.3125,447.7773 Q233.3125,448.1523 233.0469,448.3867 Q232.7813,448.6211 232.1719,448.6211 L227.0313,448.6211 Q226.4219,448.6211 226.1563,448.3867 Q225.8906,448.1523 225.8906,447.7617 Q225.8906,447.3867 226.1563,447.1523 Q226.4219,446.918 227.0313,446.918 L228.75,446.918 L228.75,440.2617 L227.0313,440.2617 Q226.4219,440.2617 226.1563,440.0273 Q225.8906,439.793 225.8906,439.4023 Q225.8906,439.0273 226.1563,438.793 Q226.4219,438.5586 227.0313,438.5586 L232.1719,438.5586 Q232.7813,438.5586 233.0469,438.793 Q233.3125,439.0273 233.3125,439.4023 Q233.3125,439.793 233.0469,440.0273 Q232.7813,440.2617 232.1719,440.2617 L230.4531,440.2617 Z " fill="#000000"/><text fill="#000000" font-family="sans-serif" font-size="14" font-style="italic" lengthAdjust="spacing" textLength="84.8203" x="243.5" y="449.418">ITreinAdapter</text><line style="stroke:#181818;stroke-width:0.5;" x1="215.5" x2="330.3203" y1="459.6211" y2="459.6211"/><line style="stroke:#181818;stroke-width:0.5;" x1="215.5" x2="330.3203" y1="467.6211" y2="467.6211"/><text fill="#000000" font-family="sans-serif" font-size="14" lengthAdjust="spacing" textLength="101.1514" x="220.5" y="486.7285">boekReis(): void</text></g><!--class NsAdapter--><g id="elem_NsAdapter"><rect codeLine="25" fill="#F1F1F1" height="48" id="NsAdapter" rx="2.5" ry="2.5" style="stroke:#181818;stroke-width:0.5;" width="98.1445" x="423" y="310.1211"/><ellipse cx="438" cy="326.1211" fill="#ADD1B2" rx="11" ry="11" style="stroke:#181818;stroke-width:1.0;"/><path d="M440.7656,321.9961 Q440.9219,321.7773 441.1094,321.668 Q441.2969,321.5586 441.5156,321.5586 Q441.8906,321.5586 442.125,321.8242 Q442.3594,322.0742 442.3594,322.6836 L442.3594,324.1367 Q442.3594,324.7461 442.125,325.0117 Q441.8906,325.2773 441.5156,325.2773 Q441.1719,325.2773 440.9688,325.0742 Q440.7656,324.8867 440.6563,324.3711 Q440.6094,324.0117 440.4219,323.8242 Q440.0938,323.4492 439.4844,323.2305 Q438.875,323.0117 438.25,323.0117 Q437.4844,323.0117 436.8438,323.3398 Q436.2188,323.668 435.7188,324.418 Q435.2344,325.168 435.2344,326.1992 L435.2344,327.293 Q435.2344,328.5273 436.125,329.3555 Q437.0156,330.168 438.6094,330.168 Q439.5469,330.168 440.2031,329.918 Q440.5938,329.7617 441.0156,329.3242 Q441.2813,329.0586 441.4219,328.9805 Q441.5781,328.9023 441.7813,328.9023 Q442.1094,328.9023 442.3594,329.168 Q442.625,329.418 442.625,329.7617 Q442.625,330.1055 442.2813,330.5117 Q441.7813,331.0898 440.9844,331.418 Q439.9063,331.8711 438.6094,331.8711 Q437.0938,331.8711 435.8906,331.2461 Q434.9063,330.7461 434.2188,329.6836 Q433.5313,328.6055 433.5313,327.3242 L433.5313,326.168 Q433.5313,324.8398 434.1406,323.6992 Q434.7656,322.543 435.8594,321.9336 Q436.9531,321.3086 438.1875,321.3086 Q438.9219,321.3086 439.5625,321.4805 Q440.2188,321.6367 440.7656,321.9961 Z " fill="#000000"/><text fill="#000000" font-family="sans-serif" font-size="14" lengthAdjust="spacing" textLength="66.1445" x="452" y="331.918">NsAdapter</text><line style="stroke:#181818;stroke-width:0.5;" x1="424" x2="520.1445" y1="342.1211" y2="342.1211"/><line style="stroke:#181818;stroke-width:0.5;" x1="424" x2="520.1445" y1="350.1211" y2="350.1211"/></g><!--class DeutscheBahnAdapter--><g id="elem_DeutscheBahnAdapter"><rect codeLine="28" fill="#F1F1F1" height="48" id="DeutscheBahnAdapter" rx="2.5" ry="2.5" style="stroke:#181818;stroke-width:0.5;" width="172.875" x="556.5" y="310.1211"/><ellipse cx="571.5" cy="326.1211" fill="#ADD1B2" rx="11" ry="11" style="stroke:#181818;stroke-width:1.0;"/><path d="M574.2656,321.9961 Q574.4219,321.7773 574.6094,321.668 Q574.7969,321.5586 575.0156,321.5586 Q575.3906,321.5586 575.625,321.8242 Q575.8594,322.0742 575.8594,322.6836 L575.8594,324.1367 Q575.8594,324.7461 575.625,325.0117 Q575.3906,325.2773 575.0156,325.2773 Q574.6719,325.2773 574.4688,325.0742 Q574.2656,324.8867 574.1563,324.3711 Q574.1094,324.0117 573.9219,323.8242 Q573.5938,323.4492 572.9844,323.2305 Q572.375,323.0117 571.75,323.0117 Q570.9844,323.0117 570.3438,323.3398 Q569.7188,323.668 569.2188,324.418 Q568.7344,325.168 568.7344,326.1992 L568.7344,327.293 Q568.7344,328.5273 569.625,329.3555 Q570.5156,330.168 572.1094,330.168 Q573.0469,330.168 573.7031,329.918 Q574.0938,329.7617 574.5156,329.3242 Q574.7813,329.0586 574.9219,328.9805 Q575.0781,328.9023 575.2813,328.9023 Q575.6094,328.9023 575.8594,329.168 Q576.125,329.418 576.125,329.7617 Q576.125,330.1055 575.7813,330.5117 Q575.2813,331.0898 574.4844,331.418 Q573.4063,331.8711 572.1094,331.8711 Q570.5938,331.8711 569.3906,331.2461 Q568.4063,330.7461 567.7188,329.6836 Q567.0313,328.6055 567.0313,327.3242 L567.0313,326.168 Q567.0313,324.8398 567.6406,323.6992 Q568.2656,322.543 569.3594,321.9336 Q570.4531,321.3086 571.6875,321.3086 Q572.4219,321.3086 573.0625,321.4805 Q573.7188,321.6367 574.2656,321.9961 Z " fill="#000000"/><text fill="#000000" font-family="sans-serif" font-size="14" lengthAdjust="spacing" textLength="140.875" x="585.5" y="331.918">DeutscheBahnAdapter</text><line style="stroke:#181818;stroke-width:0.5;" x1="557.5" x2="728.375" y1="342.1211" y2="342.1211"/><line style="stroke:#181818;stroke-width:0.5;" x1="557.5" x2="728.375" y1="350.1211" y2="350.1211"/></g><!--link BouwsteenController to BouwsteenService--><g id="link_BouwsteenController_BouwsteenService"><path codeLine="32" d="M118,113.6411 C118,132.0111 118,148.9111 118,167.3311 " fill="none" id="BouwsteenController-to-BouwsteenService" style="stroke:#181818;stroke-width:1.0;"/><polygon fill="#181818" points="118,173.3311,122,164.3311,118,168.3311,114,164.3311,118,173.3311" style="stroke:#181818;stroke-width:1.0;"/></g><!--link BouwsteenService to ITreinAdapter--><g id="link_BouwsteenService_ITreinAdapter"><path codeLine="33" d="M84.97,240.6611 C55.12,274.1311 19.72,326.9811 47,367.6211 C84.1,422.8911 154.7718,444.1636 208.4718,453.1236 " fill="none" id="BouwsteenService-to-ITreinAdapter" style="stroke:#181818;stroke-width:1.0;"/><polygon fill="#181818" points="214.39,454.1111,206.171,448.6844,209.4582,453.2882,204.8544,456.5754,214.39,454.1111" style="stroke:#181818;stroke-width:1.0;"/></g><!--link BouwsteenService to TreinAdapterFactory--><g id="link_BouwsteenService_TreinAdapterFactory"><path codeLine="34" d="M146.09,240.6411 C161.97,259.0111 177.838,277.3704 193.748,295.7904 " fill="none" id="BouwsteenService-to-TreinAdapterFactory" style="stroke:#181818;stroke-width:1.0;stroke-dasharray:7.0,7.0;"/><polygon fill="#181818" points="197.67,300.3311,194.8142,290.9054,194.4017,296.5472,188.7599,296.1347,197.67,300.3311" style="stroke:#181818;stroke-width:1.0;"/></g><!--link NsAdapter to ITreinAdapter--><g id="link_NsAdapter_ITreinAdapter"><path codeLine="35" d="M435.04,358.3411 C404.01,377.8311 374.5926,396.3071 340.0126,418.0271 " fill="none" id="NsAdapter-to-ITreinAdapter" style="stroke:#181818;stroke-width:1.0;stroke-dasharray:7.0,7.0;"/><polygon fill="none" points="324.77,427.6011,343.204,423.1079,336.8213,412.9462,324.77,427.6011" style="stroke:#181818;stroke-width:1.0;"/></g><!--link DeutscheBahnAdapter to ITreinAdapter--><g id="link_DeutscheBahnAdapter_ITreinAdapter"><path codeLine="36" d="M574.71,358.1911 C504.96,381.7511 414.8732,412.1901 348.8032,434.5101 " fill="none" id="DeutscheBahnAdapter-to-ITreinAdapter" style="stroke:#181818;stroke-width:1.0;stroke-dasharray:7.0,7.0;"/><polygon fill="none" points="331.75,440.2711,350.7235,440.1945,346.8829,428.8257,331.75,440.2711" style="stroke:#181818;stroke-width:1.0;"/></g><!--link NsAdapter to Ns--><g id="link_NsAdapter_Ns"><path codeLine="37" d="M472,358.3411 C472,377.8311 472,399.8811 472,421.6011 " fill="none" id="NsAdapter-to-Ns" style="stroke:#181818;stroke-width:1.0;"/><polygon fill="#181818" points="472,427.6011,476,418.6011,472,422.6011,468,418.6011,472,427.6011" style="stroke:#181818;stroke-width:1.0;"/><text fill="#000000" font-family="sans-serif" font-size="13" lengthAdjust="spacing" textLength="24.5718" x="445.6911" y="416.4227">1 ns</text></g><!--link DeutscheBahnAdapter to DeutscheBahn--><g id="link_DeutscheBahnAdapter_DeutscheBahn"><path codeLine="38" d="M643,358.3411 C643,377.8311 643,399.8811 643,421.6011 " fill="none" id="DeutscheBahnAdapter-to-DeutscheBahn" style="stroke:#181818;stroke-width:1.0;"/><polygon fill="#181818" points="643,427.6011,647,418.6011,643,422.6011,639,418.6011,643,427.6011" style="stroke:#181818;stroke-width:1.0;"/><text fill="#000000" font-family="sans-serif" font-size="13" lengthAdjust="spacing" textLength="92.5234" x="542.0109" y="416.4227">1 deutschebahn</text></g><!--link TreinAdapterFactory to ITreinAdapter--><g id="link_TreinAdapterFactory_ITreinAdapter"><path codeLine="39" d="M238.23,367.6411 C245.13,386.0111 251.6399,403.2944 258.5599,421.7144 " fill="none" id="TreinAdapterFactory-to-ITreinAdapter" style="stroke:#181818;stroke-width:1.0;stroke-dasharray:7.0,7.0;"/><polygon fill="#181818" points="260.67,427.3311,261.2494,417.4993,258.9116,422.6505,253.7604,420.3127,260.67,427.3311" style="stroke:#181818;stroke-width:1.0;"/></g><!--SRC=[TP3DReCm48JlVeeLbwQ7W7hb4AaagjGBXwOliB6tO0LiP2zKLTjtBpyH0kBwwFrcTdOUIkR6fqdIL6YuhQjOsZgH5Ng_LneBXxLWpHN1qIg2q_G56Seh6GNF2Xic1vsr3jZfXcqZn2Y7pBQVdedCqHfsjgh8VGleNutQxD0LFeLphp75OzeRQ2L-jyepkKvBccGNIzStqdx7ZhJ94Ul_zEy3S8lsWfAj-nAJHq6y70QjNfV4x9dxoQ96d59ibvwePIzBoh0q4zffepQeDhtd1qfQRndn-RwjS-vdBBXjEHM1rc6_FznrAhOV8xM-_Gw9uqEmt3bX7FziJG998O3D5cCEY9x0-6XeFQGVa9vGjz6b7qMh_WCXn_2hdNy0]--></g></svg>