<svg xmlns="http://www.w3.org/2000/svg" xmlns:xlink="http://www.w3.org/1999/xlink" contentStyleType="text/css" height="406px" preserveAspectRatio="none" style="width:960px;height:406px;background:#FFFFFF;" version="1.1" viewBox="0 0 960 406" width="960px" zoomAndPan="magnify"><title>Code diagram backend externe service Triptop</title><defs/><g><text fill="#000000" font-family="sans-serif" font-size="14" font-weight="bold" lengthAdjust="spacing" textLength="311.9922" x="317.2861" y="25.1074">Code diagram backend externe service Triptop</text><!--entity KLM--><g id="elem_KLM"><polygon fill="#F1F1F1" points="514,350.6211,524,340.6211,609.2412,340.6211,609.2412,379.2422,599.2412,389.2422,514,389.2422,514,350.6211" style="stroke:#181818;stroke-width:0.5;"/><line style="stroke:#181818;stroke-width:0.5;" x1="599.2412" x2="609.2412" y1="350.6211" y2="340.6211"/><line style="stroke:#181818;stroke-width:0.5;" x1="514" x2="599.2412" y1="350.6211" y2="350.6211"/><line style="stroke:#181818;stroke-width:0.5;" x1="599.2412" x2="599.2412" y1="350.6211" y2="389.2422"/><text fill="#000000" font-family="sans-serif" font-size="14" lengthAdjust="spacing" textLength="55.2412" x="529" y="375.7285">KLM API</text></g><!--entity Hertz--><g id="elem_Hertz"><polygon fill="#F1F1F1" points="786.5,350.6211,796.5,340.6211,886.4033,340.6211,886.4033,379.2422,876.4033,389.2422,786.5,389.2422,786.5,350.6211" style="stroke:#181818;stroke-width:0.5;"/><line style="stroke:#181818;stroke-width:0.5;" x1="876.4033" x2="886.4033" y1="350.6211" y2="340.6211"/><line style="stroke:#181818;stroke-width:0.5;" x1="786.5" x2="876.4033" y1="350.6211" y2="350.6211"/><line style="stroke:#181818;stroke-width:0.5;" x1="876.4033" x2="876.4033" y1="350.6211" y2="389.2422"/><text fill="#000000" font-family="sans-serif" font-size="14" lengthAdjust="spacing" textLength="59.9033" x="801.5" y="375.7285">Hertz API</text></g><!--class Flight--><g id="elem_Flight"><rect codeLine="4" fill="#F1F1F1" height="97.8242" id="Flight" rx="2.5" ry="2.5" style="stroke:#181818;stroke-width:0.5;" width="220.5029" x="7" y="173.6211"/><ellipse cx="91.3208" cy="195.9121" fill="#ADD1B2" rx="11" ry="11" style="stroke:#181818;stroke-width:1.0;"/><path d="M94.0864,191.7871 Q94.2427,191.5684 94.4302,191.459 Q94.6177,191.3496 94.8364,191.3496 Q95.2114,191.3496 95.4458,191.6152 Q95.6802,191.8652 95.6802,192.4746 L95.6802,193.9277 Q95.6802,194.5371 95.4458,194.8027 Q95.2114,195.0684 94.8364,195.0684 Q94.4927,195.0684 94.2896,194.8652 Q94.0864,194.6777 93.9771,194.1621 Q93.9302,193.8027 93.7427,193.6152 Q93.4146,193.2402 92.8052,193.0215 Q92.1958,192.8027 91.5708,192.8027 Q90.8052,192.8027 90.1646,193.1309 Q89.5396,193.459 89.0396,194.209 Q88.5552,194.959 88.5552,195.9902 L88.5552,197.084 Q88.5552,198.3184 89.4458,199.1465 Q90.3364,199.959 91.9302,199.959 Q92.8677,199.959 93.5239,199.709 Q93.9146,199.5527 94.3364,199.1152 Q94.6021,198.8496 94.7427,198.7715 Q94.8989,198.6934 95.1021,198.6934 Q95.4302,198.6934 95.6802,198.959 Q95.9458,199.209 95.9458,199.5527 Q95.9458,199.8965 95.6021,200.3027 Q95.1021,200.8809 94.3052,201.209 Q93.2271,201.6621 91.9302,201.6621 Q90.4146,201.6621 89.2114,201.0371 Q88.2271,200.5371 87.5396,199.4746 Q86.8521,198.3965 86.8521,197.1152 L86.8521,195.959 Q86.8521,194.6309 87.4614,193.4902 Q88.0864,192.334 89.1802,191.7246 Q90.2739,191.0996 91.5083,191.0996 Q92.2427,191.0996 92.8833,191.2715 Q93.5396,191.4277 94.0864,191.7871 Z " fill="#000000"/><text fill="#000000" font-family="sans-serif" font-size="12" font-style="italic" lengthAdjust="spacing" textLength="47.3613" x="109.8208" y="191.5703">&#171;record&#187;</text><text fill="#000000" font-family="sans-serif" font-size="14" lengthAdjust="spacing" textLength="34.2344" x="116.3843" y="209.6895">Flight</text><line style="stroke:#181818;stroke-width:0.5;" x1="8" x2="226.5029" y1="218.2031" y2="218.2031"/><line style="stroke:#181818;stroke-width:0.5;" x1="8" x2="226.5029" y1="226.2031" y2="226.2031"/><ellipse cx="18" cy="241.0137" fill="#84BE84" rx="3" ry="3" style="stroke:#038048;stroke-width:1.0;"/><text fill="#000000" font-family="sans-serif" font-size="14" lengthAdjust="spacing" textLength="194.5029" x="27" y="245.3105">getDepartureTime() : DateTime</text><ellipse cx="18" cy="259.6348" fill="#84BE84" rx="3" ry="3" style="stroke:#038048;stroke-width:1.0;"/><text fill="#000000" font-family="sans-serif" font-size="14" lengthAdjust="spacing" textLength="171.917" x="27" y="263.9316">getArrivalTime() : DateTime</text></g><!--class Car--><g id="elem_Car"><rect codeLine="9" fill="#F1F1F1" height="79.2031" id="Car" rx="2.5" ry="2.5" style="stroke:#181818;stroke-width:0.5;" width="140.3857" x="263.5" y="183.1211"/><ellipse cx="307.7622" cy="205.4121" fill="#ADD1B2" rx="11" ry="11" style="stroke:#181818;stroke-width:1.0;"/><path d="M310.5278,201.2871 Q310.6841,201.0684 310.8716,200.959 Q311.0591,200.8496 311.2778,200.8496 Q311.6528,200.8496 311.8872,201.1152 Q312.1216,201.3652 312.1216,201.9746 L312.1216,203.4277 Q312.1216,204.0371 311.8872,204.3027 Q311.6528,204.5684 311.2778,204.5684 Q310.9341,204.5684 310.731,204.3652 Q310.5278,204.1777 310.4185,203.6621 Q310.3716,203.3027 310.1841,203.1152 Q309.856,202.7402 309.2466,202.5215 Q308.6372,202.3027 308.0122,202.3027 Q307.2466,202.3027 306.606,202.6309 Q305.981,202.959 305.481,203.709 Q304.9966,204.459 304.9966,205.4902 L304.9966,206.584 Q304.9966,207.8184 305.8872,208.6465 Q306.7778,209.459 308.3716,209.459 Q309.3091,209.459 309.9653,209.209 Q310.356,209.0527 310.7778,208.6152 Q311.0435,208.3496 311.1841,208.2715 Q311.3403,208.1934 311.5435,208.1934 Q311.8716,208.1934 312.1216,208.459 Q312.3872,208.709 312.3872,209.0527 Q312.3872,209.3965 312.0435,209.8027 Q311.5435,210.3809 310.7466,210.709 Q309.6685,211.1621 308.3716,211.1621 Q306.856,211.1621 305.6528,210.5371 Q304.6685,210.0371 303.981,208.9746 Q303.2935,207.8965 303.2935,206.6152 L303.2935,205.459 Q303.2935,204.1309 303.9028,202.9902 Q304.5278,201.834 305.6216,201.2246 Q306.7153,200.5996 307.9497,200.5996 Q308.6841,200.5996 309.3247,200.7715 Q309.981,200.9277 310.5278,201.2871 Z " fill="#000000"/><text fill="#000000" font-family="sans-serif" font-size="12" font-style="italic" lengthAdjust="spacing" textLength="47.3613" x="326.2622" y="201.0703">&#171;record&#187;</text><text fill="#000000" font-family="sans-serif" font-size="14" lengthAdjust="spacing" textLength="22.5586" x="338.6636" y="219.1895">Car</text><line style="stroke:#181818;stroke-width:0.5;" x1="264.5" x2="402.8857" y1="227.7031" y2="227.7031"/><line style="stroke:#181818;stroke-width:0.5;" x1="264.5" x2="402.8857" y1="235.7031" y2="235.7031"/><ellipse cx="274.5" cy="250.5137" fill="#84BE84" rx="3" ry="3" style="stroke:#038048;stroke-width:1.0;"/><text fill="#000000" font-family="sans-serif" font-size="14" lengthAdjust="spacing" textLength="114.3857" x="283.5" y="254.8105">getBrand() : String</text></g><!--class BuildingBlockService--><g id="elem_BuildingBlockService"><rect codeLine="13" fill="#F1F1F1" height="66.6211" id="BuildingBlockService" rx="2.5" ry="2.5" style="stroke:#181818;stroke-width:0.5;" width="297.6123" x="298.5" y="46.6211"/><ellipse cx="377.6909" cy="62.6211" fill="#ADD1B2" rx="11" ry="11" style="stroke:#181818;stroke-width:1.0;"/><path d="M380.4565,58.4961 Q380.6128,58.2773 380.8003,58.168 Q380.9878,58.0586 381.2065,58.0586 Q381.5815,58.0586 381.8159,58.3242 Q382.0503,58.5742 382.0503,59.1836 L382.0503,60.6367 Q382.0503,61.2461 381.8159,61.5117 Q381.5815,61.7773 381.2065,61.7773 Q380.8628,61.7773 380.6597,61.5742 Q380.4565,61.3867 380.3472,60.8711 Q380.3003,60.5117 380.1128,60.3242 Q379.7847,59.9492 379.1753,59.7305 Q378.5659,59.5117 377.9409,59.5117 Q377.1753,59.5117 376.5347,59.8398 Q375.9097,60.168 375.4097,60.918 Q374.9253,61.668 374.9253,62.6992 L374.9253,63.793 Q374.9253,65.0273 375.8159,65.8555 Q376.7065,66.668 378.3003,66.668 Q379.2378,66.668 379.894,66.418 Q380.2847,66.2617 380.7065,65.8242 Q380.9722,65.5586 381.1128,65.4805 Q381.269,65.4023 381.4722,65.4023 Q381.8003,65.4023 382.0503,65.668 Q382.3159,65.918 382.3159,66.2617 Q382.3159,66.6055 381.9722,67.0117 Q381.4722,67.5898 380.6753,67.918 Q379.5972,68.3711 378.3003,68.3711 Q376.7847,68.3711 375.5815,67.7461 Q374.5972,67.2461 373.9097,66.1836 Q373.2222,65.1055 373.2222,63.8242 L373.2222,62.668 Q373.2222,61.3398 373.8315,60.1992 Q374.4565,59.043 375.5503,58.4336 Q376.644,57.8086 377.8784,57.8086 Q378.6128,57.8086 379.2534,57.9805 Q379.9097,58.1367 380.4565,58.4961 Z " fill="#000000"/><text fill="#000000" font-family="sans-serif" font-size="14" lengthAdjust="spacing" textLength="130.7305" x="398.1909" y="68.418">BuildingBlockService</text><line style="stroke:#181818;stroke-width:0.5;" x1="299.5" x2="595.1123" y1="78.6211" y2="78.6211"/><line style="stroke:#181818;stroke-width:0.5;" x1="299.5" x2="595.1123" y1="86.6211" y2="86.6211"/><ellipse cx="309.5" cy="101.4316" fill="#84BE84" rx="3" ry="3" style="stroke:#038048;stroke-width:1.0;"/><text fill="#000000" font-family="sans-serif" font-size="14" lengthAdjust="spacing" textLength="271.6123" x="318.5" y="105.7285">book(BuildingBlock buildingBlock) : boolean</text></g><!--class FlightService--><g id="elem_FlightService"><rect codeLine="17" fill="#F1F1F1" height="66.6211" id="FlightService" rx="2.5" ry="2.5" style="stroke:#181818;stroke-width:0.5;" width="244.6885" x="439" y="189.1211"/><ellipse cx="516.6357" cy="205.1211" fill="#ADD1B2" rx="11" ry="11" style="stroke:#181818;stroke-width:1.0;"/><path d="M519.4014,200.9961 Q519.5576,200.7773 519.7451,200.668 Q519.9326,200.5586 520.1514,200.5586 Q520.5264,200.5586 520.7607,200.8242 Q520.9951,201.0742 520.9951,201.6836 L520.9951,203.1367 Q520.9951,203.7461 520.7607,204.0117 Q520.5264,204.2773 520.1514,204.2773 Q519.8076,204.2773 519.6045,204.0742 Q519.4014,203.8867 519.292,203.3711 Q519.2451,203.0117 519.0576,202.8242 Q518.7295,202.4492 518.1201,202.2305 Q517.5107,202.0117 516.8857,202.0117 Q516.1201,202.0117 515.4795,202.3398 Q514.8545,202.668 514.3545,203.418 Q513.8701,204.168 513.8701,205.1992 L513.8701,206.293 Q513.8701,207.5273 514.7607,208.3555 Q515.6514,209.168 517.2451,209.168 Q518.1826,209.168 518.8389,208.918 Q519.2295,208.7617 519.6514,208.3242 Q519.917,208.0586 520.0576,207.9805 Q520.2139,207.9023 520.417,207.9023 Q520.7451,207.9023 520.9951,208.168 Q521.2607,208.418 521.2607,208.7617 Q521.2607,209.1055 520.917,209.5117 Q520.417,210.0898 519.6201,210.418 Q518.542,210.8711 517.2451,210.8711 Q515.7295,210.8711 514.5264,210.2461 Q513.542,209.7461 512.8545,208.6836 Q512.167,207.6055 512.167,206.3242 L512.167,205.168 Q512.167,203.8398 512.7764,202.6992 Q513.4014,201.543 514.4951,200.9336 Q515.5889,200.3086 516.8232,200.3086 Q517.5576,200.3086 518.1982,200.4805 Q518.8545,200.6367 519.4014,200.9961 Z " fill="#000000"/><text fill="#000000" font-family="sans-serif" font-size="14" lengthAdjust="spacing" textLength="80.917" x="537.1357" y="210.918">FlightService</text><line style="stroke:#181818;stroke-width:0.5;" x1="440" x2="682.6885" y1="221.1211" y2="221.1211"/><line style="stroke:#181818;stroke-width:0.5;" x1="440" x2="682.6885" y1="229.1211" y2="229.1211"/><ellipse cx="450" cy="243.9316" fill="#84BE84" rx="3" ry="3" style="stroke:#038048;stroke-width:1.0;"/><text fill="#000000" font-family="sans-serif" font-size="14" lengthAdjust="spacing" textLength="218.6885" x="459" y="248.2285">book(BuildingBlock flight) : boolean</text></g><!--class CarRentalService--><g id="elem_CarRentalService"><rect codeLine="21" fill="#F1F1F1" height="66.6211" id="CarRentalService" rx="2.5" ry="2.5" style="stroke:#181818;stroke-width:0.5;" width="234.5645" x="719" y="189.1211"/><ellipse cx="777.1772" cy="205.1211" fill="#ADD1B2" rx="11" ry="11" style="stroke:#181818;stroke-width:1.0;"/><path d="M779.9429,200.9961 Q780.0991,200.7773 780.2866,200.668 Q780.4741,200.5586 780.6929,200.5586 Q781.0679,200.5586 781.3022,200.8242 Q781.5366,201.0742 781.5366,201.6836 L781.5366,203.1367 Q781.5366,203.7461 781.3022,204.0117 Q781.0679,204.2773 780.6929,204.2773 Q780.3491,204.2773 780.146,204.0742 Q779.9429,203.8867 779.8335,203.3711 Q779.7866,203.0117 779.5991,202.8242 Q779.271,202.4492 778.6616,202.2305 Q778.0522,202.0117 777.4272,202.0117 Q776.6616,202.0117 776.021,202.3398 Q775.396,202.668 774.896,203.418 Q774.4116,204.168 774.4116,205.1992 L774.4116,206.293 Q774.4116,207.5273 775.3022,208.3555 Q776.1929,209.168 777.7866,209.168 Q778.7241,209.168 779.3804,208.918 Q779.771,208.7617 780.1929,208.3242 Q780.4585,208.0586 780.5991,207.9805 Q780.7554,207.9023 780.9585,207.9023 Q781.2866,207.9023 781.5366,208.168 Q781.8022,208.418 781.8022,208.7617 Q781.8022,209.1055 781.4585,209.5117 Q780.9585,210.0898 780.1616,210.418 Q779.0835,210.8711 777.7866,210.8711 Q776.271,210.8711 775.0679,210.2461 Q774.0835,209.7461 773.396,208.6836 Q772.7085,207.6055 772.7085,206.3242 L772.7085,205.168 Q772.7085,203.8398 773.3179,202.6992 Q773.9429,201.543 775.0366,200.9336 Q776.1304,200.3086 777.3647,200.3086 Q778.0991,200.3086 778.7397,200.4805 Q779.396,200.6367 779.9429,200.9961 Z " fill="#000000"/><text fill="#000000" font-family="sans-serif" font-size="14" lengthAdjust="spacing" textLength="109.71" x="797.6772" y="210.918">CarRentalService</text><line style="stroke:#181818;stroke-width:0.5;" x1="720" x2="952.5645" y1="221.1211" y2="221.1211"/><line style="stroke:#181818;stroke-width:0.5;" x1="720" x2="952.5645" y1="229.1211" y2="229.1211"/><ellipse cx="730" cy="243.9316" fill="#84BE84" rx="3" ry="3" style="stroke:#038048;stroke-width:1.0;"/><text fill="#000000" font-family="sans-serif" font-size="14" lengthAdjust="spacing" textLength="208.5645" x="739" y="248.2285">book(BuildingBlock car) : boolean</text></g><!--class BuildingBlock--><g id="elem_BuildingBlock"><rect codeLine="25" fill="#F1F1F1" height="66.6211" id="BuildingBlock" rx="2.5" ry="2.5" style="stroke:#181818;stroke-width:0.5;" width="142.7168" x="154" y="331.6211"/><ellipse cx="181.001" cy="347.6211" fill="#B4A7E5" rx="11" ry="11" style="stroke:#181818;stroke-width:1.0;"/><path d="M181.9542,344.2617 L181.9542,350.918 L183.6729,350.918 Q184.2823,350.918 184.5479,351.1523 Q184.8135,351.3867 184.8135,351.7773 Q184.8135,352.1523 184.5479,352.3867 Q184.2823,352.6211 183.6729,352.6211 L178.5323,352.6211 Q177.9229,352.6211 177.6573,352.3867 Q177.3917,352.1523 177.3917,351.7617 Q177.3917,351.3867 177.6573,351.1523 Q177.9229,350.918 178.5323,350.918 L180.251,350.918 L180.251,344.2617 L178.5323,344.2617 Q177.9229,344.2617 177.6573,344.0273 Q177.3917,343.793 177.3917,343.4023 Q177.3917,343.0273 177.6573,342.793 Q177.9229,342.5586 178.5323,342.5586 L183.6729,342.5586 Q184.2823,342.5586 184.5479,342.793 Q184.8135,343.0273 184.8135,343.4023 Q184.8135,343.793 184.5479,344.0273 Q184.2823,344.2617 183.6729,344.2617 L181.9542,344.2617 Z " fill="#000000"/><text fill="#000000" font-family="sans-serif" font-size="14" font-style="italic" lengthAdjust="spacing" textLength="84.0479" x="197.6679" y="353.418">BuildingBlock</text><line style="stroke:#181818;stroke-width:0.5;" x1="155" x2="295.7168" y1="363.6211" y2="363.6211"/><line style="stroke:#181818;stroke-width:0.5;" x1="155" x2="295.7168" y1="371.6211" y2="371.6211"/><ellipse cx="165" cy="386.4316" fill="#84BE84" rx="3" ry="3" style="stroke:#038048;stroke-width:1.0;"/><text fill="#000000" font-family="sans-serif" font-size="14" lengthAdjust="spacing" textLength="116.7168" x="174" y="390.7285">getPrice() : Double</text></g><!--link BuildingBlockService to FlightService--><g id="link_BuildingBlockService_FlightService"><path codeLine="29" d="M473.94,113.7111 C492.23,136.2411 512.6892,161.4621 531.0292,184.0621 " fill="none" id="BuildingBlockService-to-FlightService" style="stroke:#181818;stroke-width:1.0;"/><polygon fill="#181818" points="534.81,188.7211,532.2448,179.2122,531.6594,184.8386,526.0329,184.2532,534.81,188.7211" style="stroke:#181818;stroke-width:1.0;"/></g><!--link BuildingBlockService to CarRentalService--><g id="link_BuildingBlockService_CarRentalService"><path codeLine="30" d="M537.72,113.7111 C600.45,136.3611 678.0869,164.4026 740.7869,187.0526 " fill="none" id="BuildingBlockService-to-CarRentalService" style="stroke:#181818;stroke-width:1.0;"/><polygon fill="#181818" points="746.43,189.0911,739.3244,182.2712,741.7274,187.3923,736.6064,189.7954,746.43,189.0911" style="stroke:#181818;stroke-width:1.0;"/></g><!--link BuildingBlockService to Car--><g id="link_BuildingBlockService_Car"><path codeLine="31" d="M421.06,113.7111 C404.29,134.3811 386.2805,156.5719 368.6405,178.3119 " fill="none" id="BuildingBlockService-to-Car" style="stroke:#181818;stroke-width:1.0;"/><polygon fill="#181818" points="364.86,182.9711,373.6368,178.5027,368.0104,179.0884,367.4246,173.462,364.86,182.9711" style="stroke:#181818;stroke-width:1.0;"/></g><!--link BuildingBlockService to Flight--><g id="link_BuildingBlockService_Flight"><path codeLine="32" d="M370.96,113.7111 C328.5,131.7811 280.4705,152.2408 233.5405,172.2208 " fill="none" id="BuildingBlockService-to-Flight" style="stroke:#181818;stroke-width:1.0;"/><polygon fill="#181818" points="228.02,174.5711,237.8676,174.726,232.6204,172.6125,234.7339,167.3653,228.02,174.5711" style="stroke:#181818;stroke-width:1.0;"/></g><!--link Flight to BuildingBlock--><g id="link_Flight_BuildingBlock"><path codeLine="33" d="M154.67,271.9711 C169.8,291.6611 175.923,299.6179 189.523,317.3179 " fill="none" id="Flight-to-BuildingBlock" style="stroke:#181818;stroke-width:1.0;stroke-dasharray:7.0,7.0;"/><polygon fill="none" points="200.49,331.5911,194.2807,313.6622,184.7653,320.9735,200.49,331.5911" style="stroke:#181818;stroke-width:1.0;"/></g><!--link Car to BuildingBlock--><g id="link_Car_BuildingBlock"><path codeLine="34" d="M303.7,262.3811 C287.09,283.9911 277.6145,296.3436 261.7845,316.9236 " fill="none" id="Car-to-BuildingBlock" style="stroke:#181818;stroke-width:1.0;stroke-dasharray:7.0,7.0;"/><polygon fill="none" points="250.81,331.1911,266.5403,320.5818,257.0286,313.2655,250.81,331.1911" style="stroke:#181818;stroke-width:1.0;"/></g><!--link FlightService to KLM--><g id="link_FlightService_KLM"><path codeLine="43" d="M561.5,256.2111 C561.5,281.9911 561.5,317.3711 561.5,340.4811 " fill="none" id="FlightService-KLM" style="stroke:#181818;stroke-width:1.0;"/></g><!--link CarRentalService to Hertz--><g id="link_CarRentalService_Hertz"><path codeLine="44" d="M836.5,256.2111 C836.5,281.9911 836.5,317.3711 836.5,340.4811 " fill="none" id="CarRentalService-Hertz" style="stroke:#181818;stroke-width:1.0;"/></g><!--SRC=[XL9HJiCm3FtFAQnz3Q7k06Ygj6v2842Qs2xWfbw9cYMLcqw8mTr9qx7IhT1ynVPxptbsd7AQO6apWanXphY756L19WDwTyI6e28-A4cmPLKwMmeXDLOLt6kLlpcOpvcavIoEuIZ0dzkSt8fAP5SpRTMUfZTm1ojq8JX35ipgWFeQyFNJO8ayh9umcYoGDewLoJjAKYkT-KoYhImsftUVYAcrnRG7WFHtrEXvZ2OqdM1hSbnf5t234jx6Anc7Ubn58bz8AEDti4FFwYExOQpPQxOJj7Mgm_m6nn15ST_Etx3B9_-B7EicJXzbDlkC-ov4i-61j12c-O-Jf-SNMAmV9u0LDFTZuwqjFH2xZtEnZKAvlx0eQeZYQWK-7pZY6m00]--></g></svg>