<svg xmlns="http://www.w3.org/2000/svg" xmlns:xlink="http://www.w3.org/1999/xlink" contentStyleType="text/css" height="225px" preserveAspectRatio="none" style="width:584px;height:225px;background:#FFFFFF;" version="1.1" viewBox="0 0 584 225" width="584px" zoomAndPan="magnify"><defs/><g><!--class Advice--><g id="elem_Advice"><rect codeLine="2" fill="#F1F1F1" height="85.2422" id="Advice" rx="2.5" ry="2.5" style="stroke:#181818;stroke-width:0.5;" width="142.7305" x="7" y="7"/><ellipse cx="53.105" cy="23" fill="#ADD1B2" rx="11" ry="11" style="stroke:#181818;stroke-width:1.0;"/><path d="M55.8706,18.875 Q56.0269,18.6563 56.2144,18.5469 Q56.4019,18.4375 56.6206,18.4375 Q56.9956,18.4375 57.23,18.7031 Q57.4644,18.9531 57.4644,19.5625 L57.4644,21.0156 Q57.4644,21.625 57.23,21.8906 Q56.9956,22.1563 56.6206,22.1563 Q56.2769,22.1563 56.0737,21.9531 Q55.8706,21.7656 55.7612,21.25 Q55.7144,20.8906 55.5269,20.7031 Q55.1987,20.3281 54.5894,20.1094 Q53.98,19.8906 53.355,19.8906 Q52.5894,19.8906 51.9487,20.2188 Q51.3237,20.5469 50.8237,21.2969 Q50.3394,22.0469 50.3394,23.0781 L50.3394,24.1719 Q50.3394,25.4063 51.23,26.2344 Q52.1206,27.0469 53.7144,27.0469 Q54.6519,27.0469 55.3081,26.7969 Q55.6987,26.6406 56.1206,26.2031 Q56.3862,25.9375 56.5269,25.8594 Q56.6831,25.7813 56.8862,25.7813 Q57.2144,25.7813 57.4644,26.0469 Q57.73,26.2969 57.73,26.6406 Q57.73,26.9844 57.3862,27.3906 Q56.8862,27.9688 56.0894,28.2969 Q55.0112,28.75 53.7144,28.75 Q52.1987,28.75 50.9956,28.125 Q50.0112,27.625 49.3237,26.5625 Q48.6362,25.4844 48.6362,24.2031 L48.6362,23.0469 Q48.6362,21.7188 49.2456,20.5781 Q49.8706,19.4219 50.9644,18.8125 Q52.0581,18.1875 53.2925,18.1875 Q54.0269,18.1875 54.6675,18.3594 Q55.3237,18.5156 55.8706,18.875 Z " fill="#000000"/><text fill="#000000" font-family="sans-serif" font-size="14" lengthAdjust="spacing" textLength="42.0205" x="73.605" y="28.7969">Advice</text><line style="stroke:#181818;stroke-width:0.5;" x1="8" x2="148.7305" y1="39" y2="39"/><rect fill="none" height="6" style="stroke:#C82930;stroke-width:1.0;" width="6" x="15" y="50.8105"/><text fill="#000000" font-family="sans-serif" font-size="14" lengthAdjust="spacing" textLength="92.6064" x="27" y="58.1074">adviceStrategy</text><line style="stroke:#181818;stroke-width:0.5;" x1="8" x2="148.7305" y1="65.6211" y2="65.6211"/><ellipse cx="18" cy="80.4316" fill="#84BE84" rx="3" ry="3" style="stroke:#038048;stroke-width:1.0;"/><text fill="#000000" font-family="sans-serif" font-size="14" lengthAdjust="spacing" textLength="116.7305" x="27" y="84.7285">generateStrategy()</text></g><!--class AdviceStrategy--><g id="elem_AdviceStrategy"><rect codeLine="7" fill="#F1F1F1" height="66.6211" id="AdviceStrategy" rx="2.5" ry="2.5" style="stroke:#181818;stroke-width:0.5;" width="128.7305" x="205" y="152"/><ellipse cx="221.1575" cy="168" fill="#ADD1B2" rx="11" ry="11" style="stroke:#181818;stroke-width:1.0;"/><path d="M223.9231,163.875 Q224.0794,163.6563 224.2669,163.5469 Q224.4544,163.4375 224.6731,163.4375 Q225.0481,163.4375 225.2825,163.7031 Q225.5169,163.9531 225.5169,164.5625 L225.5169,166.0156 Q225.5169,166.625 225.2825,166.8906 Q225.0481,167.1563 224.6731,167.1563 Q224.3294,167.1563 224.1263,166.9531 Q223.9231,166.7656 223.8138,166.25 Q223.7669,165.8906 223.5794,165.7031 Q223.2513,165.3281 222.6419,165.1094 Q222.0325,164.8906 221.4075,164.8906 Q220.6419,164.8906 220.0013,165.2188 Q219.3763,165.5469 218.8763,166.2969 Q218.3919,167.0469 218.3919,168.0781 L218.3919,169.1719 Q218.3919,170.4063 219.2825,171.2344 Q220.1731,172.0469 221.7669,172.0469 Q222.7044,172.0469 223.3606,171.7969 Q223.7513,171.6406 224.1731,171.2031 Q224.4388,170.9375 224.5794,170.8594 Q224.7356,170.7813 224.9388,170.7813 Q225.2669,170.7813 225.5169,171.0469 Q225.7825,171.2969 225.7825,171.6406 Q225.7825,171.9844 225.4388,172.3906 Q224.9388,172.9688 224.1419,173.2969 Q223.0638,173.75 221.7669,173.75 Q220.2513,173.75 219.0481,173.125 Q218.0638,172.625 217.3763,171.5625 Q216.6888,170.4844 216.6888,169.2031 L216.6888,168.0469 Q216.6888,166.7188 217.2981,165.5781 Q217.9231,164.4219 219.0169,163.8125 Q220.1106,163.1875 221.345,163.1875 Q222.0794,163.1875 222.72,163.3594 Q223.3763,163.5156 223.9231,163.875 Z " fill="#000000"/><text fill="#000000" font-family="sans-serif" font-size="14" lengthAdjust="spacing" textLength="94.1582" x="235.4147" y="173.7969">AdviceStrategy</text><line style="stroke:#181818;stroke-width:0.5;" x1="206" x2="332.7305" y1="184" y2="184"/><line style="stroke:#181818;stroke-width:0.5;" x1="206" x2="332.7305" y1="192" y2="192"/><text fill="#000000" font-family="sans-serif" font-size="14" lengthAdjust="spacing" textLength="116.7305" x="211" y="211.1074">generateStrategy()</text></g><!--class SimpleAdviceStrategy--><g id="elem_SimpleAdviceStrategy"><rect codeLine="11" fill="#F1F1F1" height="48" id="SimpleAdviceStrategy" rx="2.5" ry="2.5" style="stroke:#181818;stroke-width:0.5;" width="168.9512" x="185" y="25.5"/><ellipse cx="200" cy="41.5" fill="#ADD1B2" rx="11" ry="11" style="stroke:#181818;stroke-width:1.0;"/><path d="M202.7656,37.375 Q202.9219,37.1563 203.1094,37.0469 Q203.2969,36.9375 203.5156,36.9375 Q203.8906,36.9375 204.125,37.2031 Q204.3594,37.4531 204.3594,38.0625 L204.3594,39.5156 Q204.3594,40.125 204.125,40.3906 Q203.8906,40.6563 203.5156,40.6563 Q203.1719,40.6563 202.9688,40.4531 Q202.7656,40.2656 202.6563,39.75 Q202.6094,39.3906 202.4219,39.2031 Q202.0938,38.8281 201.4844,38.6094 Q200.875,38.3906 200.25,38.3906 Q199.4844,38.3906 198.8438,38.7188 Q198.2188,39.0469 197.7188,39.7969 Q197.2344,40.5469 197.2344,41.5781 L197.2344,42.6719 Q197.2344,43.9063 198.125,44.7344 Q199.0156,45.5469 200.6094,45.5469 Q201.5469,45.5469 202.2031,45.2969 Q202.5938,45.1406 203.0156,44.7031 Q203.2813,44.4375 203.4219,44.3594 Q203.5781,44.2813 203.7813,44.2813 Q204.1094,44.2813 204.3594,44.5469 Q204.625,44.7969 204.625,45.1406 Q204.625,45.4844 204.2813,45.8906 Q203.7813,46.4688 202.9844,46.7969 Q201.9063,47.25 200.6094,47.25 Q199.0938,47.25 197.8906,46.625 Q196.9063,46.125 196.2188,45.0625 Q195.5313,43.9844 195.5313,42.7031 L195.5313,41.5469 Q195.5313,40.2188 196.1406,39.0781 Q196.7656,37.9219 197.8594,37.3125 Q198.9531,36.6875 200.1875,36.6875 Q200.9219,36.6875 201.5625,36.8594 Q202.2188,37.0156 202.7656,37.375 Z " fill="#000000"/><text fill="#000000" font-family="sans-serif" font-size="14" lengthAdjust="spacing" textLength="136.9512" x="214" y="47.2969">SimpleAdviceStrategy</text><line style="stroke:#181818;stroke-width:0.5;" x1="186" x2="352.9512" y1="57.5" y2="57.5"/><line style="stroke:#181818;stroke-width:0.5;" x1="186" x2="352.9512" y1="65.5" y2="65.5"/></g><!--class AdvancedAdviceStrategy--><g id="elem_AdvancedAdviceStrategy"><rect codeLine="15" fill="#F1F1F1" height="48" id="AdvancedAdviceStrategy" rx="2.5" ry="2.5" style="stroke:#181818;stroke-width:0.5;" width="188.4268" x="389.5" y="25.5"/><ellipse cx="404.5" cy="41.5" fill="#ADD1B2" rx="11" ry="11" style="stroke:#181818;stroke-width:1.0;"/><path d="M407.2656,37.375 Q407.4219,37.1563 407.6094,37.0469 Q407.7969,36.9375 408.0156,36.9375 Q408.3906,36.9375 408.625,37.2031 Q408.8594,37.4531 408.8594,38.0625 L408.8594,39.5156 Q408.8594,40.125 408.625,40.3906 Q408.3906,40.6563 408.0156,40.6563 Q407.6719,40.6563 407.4688,40.4531 Q407.2656,40.2656 407.1563,39.75 Q407.1094,39.3906 406.9219,39.2031 Q406.5938,38.8281 405.9844,38.6094 Q405.375,38.3906 404.75,38.3906 Q403.9844,38.3906 403.3438,38.7188 Q402.7188,39.0469 402.2188,39.7969 Q401.7344,40.5469 401.7344,41.5781 L401.7344,42.6719 Q401.7344,43.9063 402.625,44.7344 Q403.5156,45.5469 405.1094,45.5469 Q406.0469,45.5469 406.7031,45.2969 Q407.0938,45.1406 407.5156,44.7031 Q407.7813,44.4375 407.9219,44.3594 Q408.0781,44.2813 408.2813,44.2813 Q408.6094,44.2813 408.8594,44.5469 Q409.125,44.7969 409.125,45.1406 Q409.125,45.4844 408.7813,45.8906 Q408.2813,46.4688 407.4844,46.7969 Q406.4063,47.25 405.1094,47.25 Q403.5938,47.25 402.3906,46.625 Q401.4063,46.125 400.7188,45.0625 Q400.0313,43.9844 400.0313,42.7031 L400.0313,41.5469 Q400.0313,40.2188 400.6406,39.0781 Q401.2656,37.9219 402.3594,37.3125 Q403.4531,36.6875 404.6875,36.6875 Q405.4219,36.6875 406.0625,36.8594 Q406.7188,37.0156 407.2656,37.375 Z " fill="#000000"/><text fill="#000000" font-family="sans-serif" font-size="14" lengthAdjust="spacing" textLength="156.4268" x="418.5" y="47.2969">AdvancedAdviceStrategy</text><line style="stroke:#181818;stroke-width:0.5;" x1="390.5" x2="576.9268" y1="57.5" y2="57.5"/><line style="stroke:#181818;stroke-width:0.5;" x1="390.5" x2="576.9268" y1="65.5" y2="65.5"/></g><!--link Advice to AdviceStrategy--><g id="link_Advice_AdviceStrategy"><path codeLine="19" d="M137.89,92.16 C165.26,111.37 192.3676,130.395 217.9776,148.355 " fill="none" id="Advice-to-AdviceStrategy" style="stroke:#181818;stroke-width:1.0;"/><polygon fill="#181818" points="222.89,151.8,217.8181,143.3575,218.7963,148.9291,213.2247,149.9074,222.89,151.8" style="stroke:#181818;stroke-width:1.0;"/></g><!--link SimpleAdviceStrategy to AdviceStrategy--><g id="link_SimpleAdviceStrategy_AdviceStrategy"><path codeLine="20" d="M269.5,73.54 C269.5,95.16 269.5,109.73 269.5,133.99 " fill="none" id="SimpleAdviceStrategy-to-AdviceStrategy" style="stroke:#181818;stroke-width:1.0;stroke-dasharray:7.0,7.0;"/><polygon fill="none" points="269.5,151.99,275.5,133.99,263.5,133.99,269.5,151.99" style="stroke:#181818;stroke-width:1.0;"/></g><!--link AdvancedAdviceStrategy to AdviceStrategy--><g id="link_AdvancedAdviceStrategy_AdviceStrategy"><path codeLine="21" d="M446.71,73.54 C412.18,95.16 375.4278,118.1801 336.6678,142.4401 " fill="none" id="AdvancedAdviceStrategy-to-AdviceStrategy" style="stroke:#181818;stroke-width:1.0;stroke-dasharray:7.0,7.0;"/><polygon fill="none" points="321.41,151.99,339.8511,147.526,333.4845,137.3542,321.41,151.99" style="stroke:#181818;stroke-width:1.0;"/></g><!--SRC=[Iyv9B2vMS4mfoqnELQZcKW02NOL4C3Uuf2Yn93Mz4YoehP2UcfSA4e09QsXorN9n9IFfXyb0pS6d8JWpjo0d5LLRDHUAWObvoQafs5H07QkhQuTcBnSsK_NqQkpGb64t75CX0000]--></g></svg>