<svg xmlns="http://www.w3.org/2000/svg" xmlns:xlink="http://www.w3.org/1999/xlink" contentStyleType="text/css" height="480px" preserveAspectRatio="none" style="width:916px;height:480px;background:#FFFFFF;" version="1.1" viewBox="0 0 916 480" width="916px" zoomAndPan="magnify"><title>Code Diagram - backend externe service Triptop</title><defs/><g><text fill="#000000" font-family="sans-serif" font-size="14" font-weight="bold" lengthAdjust="spacing" textLength="322.1025" x="290.231" y="25.1074">Code Diagram - backend externe service Triptop</text><!--entity KLM--><g id="elem_KLM"><polygon fill="#F1F1F1" points="470,424.6211,480,414.6211,565.2412,414.6211,565.2412,453.2422,555.2412,463.2422,470,463.2422,470,424.6211" style="stroke:#181818;stroke-width:0.5;"/><line style="stroke:#181818;stroke-width:0.5;" x1="555.2412" x2="565.2412" y1="424.6211" y2="414.6211"/><line style="stroke:#181818;stroke-width:0.5;" x1="470" x2="555.2412" y1="424.6211" y2="424.6211"/><line style="stroke:#181818;stroke-width:0.5;" x1="555.2412" x2="555.2412" y1="424.6211" y2="463.2422"/><text fill="#000000" font-family="sans-serif" font-size="14" lengthAdjust="spacing" textLength="55.2412" x="485" y="449.7285">KLM API</text></g><!--entity Hertz--><g id="elem_Hertz"><polygon fill="#F1F1F1" points="742.5,424.6211,752.5,414.6211,842.4033,414.6211,842.4033,453.2422,832.4033,463.2422,742.5,463.2422,742.5,424.6211" style="stroke:#181818;stroke-width:0.5;"/><line style="stroke:#181818;stroke-width:0.5;" x1="832.4033" x2="842.4033" y1="424.6211" y2="414.6211"/><line style="stroke:#181818;stroke-width:0.5;" x1="742.5" x2="832.4033" y1="424.6211" y2="424.6211"/><line style="stroke:#181818;stroke-width:0.5;" x1="832.4033" x2="832.4033" y1="424.6211" y2="463.2422"/><text fill="#000000" font-family="sans-serif" font-size="14" lengthAdjust="spacing" textLength="59.9033" x="757.5" y="449.7285">Hertz API</text></g><!--class Flight--><g id="elem_Flight"><rect codeLine="4" fill="#F1F1F1" height="172.3086" id="Flight" rx="2.5" ry="2.5" style="stroke:#181818;stroke-width:0.5;" width="198.7168" x="7" y="173.6211"/><ellipse cx="80.4277" cy="195.9121" fill="#ADD1B2" rx="11" ry="11" style="stroke:#181818;stroke-width:1.0;"/><path d="M83.1934,191.7871 Q83.3496,191.5684 83.5371,191.459 Q83.7246,191.3496 83.9434,191.3496 Q84.3184,191.3496 84.5527,191.6152 Q84.7871,191.8652 84.7871,192.4746 L84.7871,193.9277 Q84.7871,194.5371 84.5527,194.8027 Q84.3184,195.0684 83.9434,195.0684 Q83.5996,195.0684 83.3965,194.8652 Q83.1934,194.6777 83.084,194.1621 Q83.0371,193.8027 82.8496,193.6152 Q82.5215,193.2402 81.9121,193.0215 Q81.3027,192.8027 80.6777,192.8027 Q79.9121,192.8027 79.2715,193.1309 Q78.6465,193.459 78.1465,194.209 Q77.6621,194.959 77.6621,195.9902 L77.6621,197.084 Q77.6621,198.3184 78.5527,199.1465 Q79.4434,199.959 81.0371,199.959 Q81.9746,199.959 82.6309,199.709 Q83.0215,199.5527 83.4434,199.1152 Q83.709,198.8496 83.8496,198.7715 Q84.0059,198.6934 84.209,198.6934 Q84.5371,198.6934 84.7871,198.959 Q85.0527,199.209 85.0527,199.5527 Q85.0527,199.8965 84.709,200.3027 Q84.209,200.8809 83.4121,201.209 Q82.334,201.6621 81.0371,201.6621 Q79.5215,201.6621 78.3184,201.0371 Q77.334,200.5371 76.6465,199.4746 Q75.959,198.3965 75.959,197.1152 L75.959,195.959 Q75.959,194.6309 76.5684,193.4902 Q77.1934,192.334 78.2871,191.7246 Q79.3809,191.0996 80.6152,191.0996 Q81.3496,191.0996 81.9902,191.2715 Q82.6465,191.4277 83.1934,191.7871 Z " fill="#000000"/><text fill="#000000" font-family="sans-serif" font-size="12" font-style="italic" lengthAdjust="spacing" textLength="47.3613" x="98.9277" y="191.5703">&#171;record&#187;</text><text fill="#000000" font-family="sans-serif" font-size="14" lengthAdjust="spacing" textLength="34.2344" x="105.4912" y="209.6895">Flight</text><line style="stroke:#181818;stroke-width:0.5;" x1="8" x2="204.7168" y1="218.2031" y2="218.2031"/><rect fill="none" height="6" style="stroke:#C82930;stroke-width:1.0;" width="6" x="15" y="230.0137"/><text fill="#000000" font-family="sans-serif" font-size="14" lengthAdjust="spacing" textLength="33.4619" x="27" y="237.3105">id : id</text><rect fill="none" height="6" style="stroke:#C82930;stroke-width:1.0;" width="6" x="15" y="248.6348"/><text fill="#000000" font-family="sans-serif" font-size="14" lengthAdjust="spacing" textLength="163.3926" x="27" y="255.9316">departureTime : DateTime</text><rect fill="none" height="6" style="stroke:#C82930;stroke-width:1.0;" width="6" x="15" y="267.2559"/><text fill="#000000" font-family="sans-serif" font-size="14" lengthAdjust="spacing" textLength="141.5791" x="27" y="274.5527">arrivalTime : DateTime</text><line style="stroke:#181818;stroke-width:0.5;" x1="8" x2="204.7168" y1="282.0664" y2="282.0664"/><ellipse cx="18" cy="296.877" fill="#84BE84" rx="3" ry="3" style="stroke:#038048;stroke-width:1.0;"/><text fill="#000000" font-family="sans-serif" font-size="14" lengthAdjust="spacing" textLength="172.7168" x="27" y="301.1738">departureTime() : DateTime</text><ellipse cx="18" cy="315.498" fill="#84BE84" rx="3" ry="3" style="stroke:#038048;stroke-width:1.0;"/><text fill="#000000" font-family="sans-serif" font-size="14" lengthAdjust="spacing" textLength="150.9033" x="27" y="319.7949">arrivalTime() : DateTime</text><ellipse cx="18" cy="334.1191" fill="#84BE84" rx="3" ry="3" style="stroke:#038048;stroke-width:1.0;"/><text fill="#000000" font-family="sans-serif" font-size="14" lengthAdjust="spacing" textLength="42.7861" x="27" y="338.416">id() : id</text></g><!--class CarRental--><g id="elem_CarRental"><rect codeLine="13" fill="#F1F1F1" height="97.8242" id="CarRental" rx="2.5" ry="2.5" style="stroke:#181818;stroke-width:0.5;" width="119.3721" x="241" y="210.6211"/><ellipse cx="266.9551" cy="232.9121" fill="#ADD1B2" rx="11" ry="11" style="stroke:#181818;stroke-width:1.0;"/><path d="M269.7208,228.7871 Q269.877,228.5684 270.0645,228.459 Q270.252,228.3496 270.4708,228.3496 Q270.8458,228.3496 271.0801,228.6152 Q271.3145,228.8652 271.3145,229.4746 L271.3145,230.9277 Q271.3145,231.5371 271.0801,231.8027 Q270.8458,232.0684 270.4708,232.0684 Q270.127,232.0684 269.9239,231.8652 Q269.7208,231.6777 269.6114,231.1621 Q269.5645,230.8027 269.377,230.6152 Q269.0489,230.2402 268.4395,230.0215 Q267.8301,229.8027 267.2051,229.8027 Q266.4395,229.8027 265.7989,230.1309 Q265.1739,230.459 264.6739,231.209 Q264.1895,231.959 264.1895,232.9902 L264.1895,234.084 Q264.1895,235.3184 265.0801,236.1465 Q265.9708,236.959 267.5645,236.959 Q268.502,236.959 269.1583,236.709 Q269.5489,236.5527 269.9708,236.1152 Q270.2364,235.8496 270.377,235.7715 Q270.5333,235.6934 270.7364,235.6934 Q271.0645,235.6934 271.3145,235.959 Q271.5801,236.209 271.5801,236.5527 Q271.5801,236.8965 271.2364,237.3027 Q270.7364,237.8809 269.9395,238.209 Q268.8614,238.6621 267.5645,238.6621 Q266.0489,238.6621 264.8458,238.0371 Q263.8614,237.5371 263.1739,236.4746 Q262.4864,235.3965 262.4864,234.1152 L262.4864,232.959 Q262.4864,231.6309 263.0958,230.4902 Q263.7208,229.334 264.8145,228.7246 Q265.9083,228.0996 267.1426,228.0996 Q267.877,228.0996 268.5176,228.2715 Q269.1739,228.4277 269.7208,228.7871 Z " fill="#000000"/><text fill="#000000" font-family="sans-serif" font-size="12" font-style="italic" lengthAdjust="spacing" textLength="47.3613" x="291.2226" y="228.5703">&#171;record&#187;</text><text fill="#000000" font-family="sans-serif" font-size="14" lengthAdjust="spacing" textLength="63.0273" x="283.3896" y="246.6895">CarRental</text><line style="stroke:#181818;stroke-width:0.5;" x1="242" x2="359.3721" y1="255.2031" y2="255.2031"/><rect fill="none" height="6" style="stroke:#C82930;stroke-width:1.0;" width="6" x="249" y="267.0137"/><text fill="#000000" font-family="sans-serif" font-size="14" lengthAdjust="spacing" textLength="84.0479" x="261" y="274.3105">brand : String</text><line style="stroke:#181818;stroke-width:0.5;" x1="242" x2="359.3721" y1="281.8242" y2="281.8242"/><ellipse cx="252" cy="296.6348" fill="#84BE84" rx="3" ry="3" style="stroke:#038048;stroke-width:1.0;"/><text fill="#000000" font-family="sans-serif" font-size="14" lengthAdjust="spacing" textLength="93.3721" x="261" y="300.9316">brand() : String</text></g><!--class BuildingBlockService--><g id="elem_BuildingBlockService"><rect codeLine="18" fill="#F1F1F1" height="66.6211" id="BuildingBlockService" rx="2.5" ry="2.5" style="stroke:#181818;stroke-width:0.5;" width="297.6123" x="259.5" y="46.6211"/><ellipse cx="338.6909" cy="62.6211" fill="#ADD1B2" rx="11" ry="11" style="stroke:#181818;stroke-width:1.0;"/><path d="M341.4565,58.4961 Q341.6128,58.2773 341.8003,58.168 Q341.9878,58.0586 342.2065,58.0586 Q342.5815,58.0586 342.8159,58.3242 Q343.0503,58.5742 343.0503,59.1836 L343.0503,60.6367 Q343.0503,61.2461 342.8159,61.5117 Q342.5815,61.7773 342.2065,61.7773 Q341.8628,61.7773 341.6597,61.5742 Q341.4565,61.3867 341.3472,60.8711 Q341.3003,60.5117 341.1128,60.3242 Q340.7847,59.9492 340.1753,59.7305 Q339.5659,59.5117 338.9409,59.5117 Q338.1753,59.5117 337.5347,59.8398 Q336.9097,60.168 336.4097,60.918 Q335.9253,61.668 335.9253,62.6992 L335.9253,63.793 Q335.9253,65.0273 336.8159,65.8555 Q337.7065,66.668 339.3003,66.668 Q340.2378,66.668 340.894,66.418 Q341.2847,66.2617 341.7065,65.8242 Q341.9722,65.5586 342.1128,65.4805 Q342.269,65.4023 342.4722,65.4023 Q342.8003,65.4023 343.0503,65.668 Q343.3159,65.918 343.3159,66.2617 Q343.3159,66.6055 342.9722,67.0117 Q342.4722,67.5898 341.6753,67.918 Q340.5972,68.3711 339.3003,68.3711 Q337.7847,68.3711 336.5815,67.7461 Q335.5972,67.2461 334.9097,66.1836 Q334.2222,65.1055 334.2222,63.8242 L334.2222,62.668 Q334.2222,61.3398 334.8315,60.1992 Q335.4565,59.043 336.5503,58.4336 Q337.644,57.8086 338.8784,57.8086 Q339.6128,57.8086 340.2534,57.9805 Q340.9097,58.1367 341.4565,58.4961 Z " fill="#000000"/><text fill="#000000" font-family="sans-serif" font-size="14" lengthAdjust="spacing" textLength="130.7305" x="359.1909" y="68.418">BuildingBlockService</text><line style="stroke:#181818;stroke-width:0.5;" x1="260.5" x2="556.1123" y1="78.6211" y2="78.6211"/><line style="stroke:#181818;stroke-width:0.5;" x1="260.5" x2="556.1123" y1="86.6211" y2="86.6211"/><ellipse cx="270.5" cy="101.4316" fill="#84BE84" rx="3" ry="3" style="stroke:#038048;stroke-width:1.0;"/><text fill="#000000" font-family="sans-serif" font-size="14" lengthAdjust="spacing" textLength="271.6123" x="279.5" y="105.7285">book(BuildingBlock buildingBlock) : boolean</text></g><!--class FlightService--><g id="elem_FlightService"><rect codeLine="22" fill="#F1F1F1" height="66.6211" id="FlightService" rx="2.5" ry="2.5" style="stroke:#181818;stroke-width:0.5;" width="244.6885" x="395" y="226.1211"/><ellipse cx="472.6357" cy="242.1211" fill="#ADD1B2" rx="11" ry="11" style="stroke:#181818;stroke-width:1.0;"/><path d="M475.4014,237.9961 Q475.5576,237.7773 475.7451,237.668 Q475.9326,237.5586 476.1514,237.5586 Q476.5264,237.5586 476.7607,237.8242 Q476.9951,238.0742 476.9951,238.6836 L476.9951,240.1367 Q476.9951,240.7461 476.7607,241.0117 Q476.5264,241.2773 476.1514,241.2773 Q475.8076,241.2773 475.6045,241.0742 Q475.4014,240.8867 475.292,240.3711 Q475.2451,240.0117 475.0576,239.8242 Q474.7295,239.4492 474.1201,239.2305 Q473.5107,239.0117 472.8857,239.0117 Q472.1201,239.0117 471.4795,239.3398 Q470.8545,239.668 470.3545,240.418 Q469.8701,241.168 469.8701,242.1992 L469.8701,243.293 Q469.8701,244.5273 470.7607,245.3555 Q471.6514,246.168 473.2451,246.168 Q474.1826,246.168 474.8389,245.918 Q475.2295,245.7617 475.6514,245.3242 Q475.917,245.0586 476.0576,244.9805 Q476.2139,244.9023 476.417,244.9023 Q476.7451,244.9023 476.9951,245.168 Q477.2607,245.418 477.2607,245.7617 Q477.2607,246.1055 476.917,246.5117 Q476.417,247.0898 475.6201,247.418 Q474.542,247.8711 473.2451,247.8711 Q471.7295,247.8711 470.5264,247.2461 Q469.542,246.7461 468.8545,245.6836 Q468.167,244.6055 468.167,243.3242 L468.167,242.168 Q468.167,240.8398 468.7764,239.6992 Q469.4014,238.543 470.4951,237.9336 Q471.5889,237.3086 472.8232,237.3086 Q473.5576,237.3086 474.1982,237.4805 Q474.8545,237.6367 475.4014,237.9961 Z " fill="#000000"/><text fill="#000000" font-family="sans-serif" font-size="14" lengthAdjust="spacing" textLength="80.917" x="493.1357" y="247.918">FlightService</text><line style="stroke:#181818;stroke-width:0.5;" x1="396" x2="638.6885" y1="258.1211" y2="258.1211"/><line style="stroke:#181818;stroke-width:0.5;" x1="396" x2="638.6885" y1="266.1211" y2="266.1211"/><ellipse cx="406" cy="280.9316" fill="#84BE84" rx="3" ry="3" style="stroke:#038048;stroke-width:1.0;"/><text fill="#000000" font-family="sans-serif" font-size="14" lengthAdjust="spacing" textLength="218.6885" x="415" y="285.2285">book(BuildingBlock flight) : boolean</text></g><!--class CarRentalService--><g id="elem_CarRentalService"><rect codeLine="26" fill="#F1F1F1" height="66.6211" id="CarRentalService" rx="2.5" ry="2.5" style="stroke:#181818;stroke-width:0.5;" width="234.5645" x="675" y="226.1211"/><ellipse cx="733.1772" cy="242.1211" fill="#ADD1B2" rx="11" ry="11" style="stroke:#181818;stroke-width:1.0;"/><path d="M735.9429,237.9961 Q736.0991,237.7773 736.2866,237.668 Q736.4741,237.5586 736.6929,237.5586 Q737.0679,237.5586 737.3022,237.8242 Q737.5366,238.0742 737.5366,238.6836 L737.5366,240.1367 Q737.5366,240.7461 737.3022,241.0117 Q737.0679,241.2773 736.6929,241.2773 Q736.3491,241.2773 736.146,241.0742 Q735.9429,240.8867 735.8335,240.3711 Q735.7866,240.0117 735.5991,239.8242 Q735.271,239.4492 734.6616,239.2305 Q734.0522,239.0117 733.4272,239.0117 Q732.6616,239.0117 732.021,239.3398 Q731.396,239.668 730.896,240.418 Q730.4116,241.168 730.4116,242.1992 L730.4116,243.293 Q730.4116,244.5273 731.3022,245.3555 Q732.1929,246.168 733.7866,246.168 Q734.7241,246.168 735.3804,245.918 Q735.771,245.7617 736.1929,245.3242 Q736.4585,245.0586 736.5991,244.9805 Q736.7554,244.9023 736.9585,244.9023 Q737.2866,244.9023 737.5366,245.168 Q737.8022,245.418 737.8022,245.7617 Q737.8022,246.1055 737.4585,246.5117 Q736.9585,247.0898 736.1616,247.418 Q735.0835,247.8711 733.7866,247.8711 Q732.271,247.8711 731.0679,247.2461 Q730.0835,246.7461 729.396,245.6836 Q728.7085,244.6055 728.7085,243.3242 L728.7085,242.168 Q728.7085,240.8398 729.3179,239.6992 Q729.9429,238.543 731.0366,237.9336 Q732.1304,237.3086 733.3647,237.3086 Q734.0991,237.3086 734.7397,237.4805 Q735.396,237.6367 735.9429,237.9961 Z " fill="#000000"/><text fill="#000000" font-family="sans-serif" font-size="14" lengthAdjust="spacing" textLength="109.71" x="753.6772" y="247.918">CarRentalService</text><line style="stroke:#181818;stroke-width:0.5;" x1="676" x2="908.5645" y1="258.1211" y2="258.1211"/><line style="stroke:#181818;stroke-width:0.5;" x1="676" x2="908.5645" y1="266.1211" y2="266.1211"/><ellipse cx="686" cy="280.9316" fill="#84BE84" rx="3" ry="3" style="stroke:#038048;stroke-width:1.0;"/><text fill="#000000" font-family="sans-serif" font-size="14" lengthAdjust="spacing" textLength="208.5645" x="695" y="285.2285">book(BuildingBlock car) : boolean</text></g><!--class BuildingBlock--><g id="elem_BuildingBlock"><rect codeLine="30" fill="#F1F1F1" height="66.6211" id="BuildingBlock" rx="2.5" ry="2.5" style="stroke:#181818;stroke-width:0.5;" width="121.7031" x="142.5" y="405.6211"/><ellipse cx="160.0449" cy="421.6211" fill="#B4A7E5" rx="11" ry="11" style="stroke:#181818;stroke-width:1.0;"/><path d="M160.998,418.2617 L160.998,424.918 L162.7167,424.918 Q163.3261,424.918 163.5917,425.1523 Q163.8574,425.3867 163.8574,425.7773 Q163.8574,426.1523 163.5917,426.3867 Q163.3261,426.6211 162.7167,426.6211 L157.5761,426.6211 Q156.9667,426.6211 156.7011,426.3867 Q156.4355,426.1523 156.4355,425.7617 Q156.4355,425.3867 156.7011,425.1523 Q156.9667,424.918 157.5761,424.918 L159.2949,424.918 L159.2949,418.2617 L157.5761,418.2617 Q156.9667,418.2617 156.7011,418.0273 Q156.4355,417.793 156.4355,417.4023 Q156.4355,417.0273 156.7011,416.793 Q156.9667,416.5586 157.5761,416.5586 L162.7167,416.5586 Q163.3261,416.5586 163.5917,416.793 Q163.8574,417.0273 163.8574,417.4023 Q163.8574,417.793 163.5917,418.0273 Q163.3261,418.2617 162.7167,418.2617 L160.998,418.2617 Z " fill="#000000"/><text fill="#000000" font-family="sans-serif" font-size="14" font-style="italic" lengthAdjust="spacing" textLength="84.0479" x="174.6104" y="427.418">BuildingBlock</text><line style="stroke:#181818;stroke-width:0.5;" x1="143.5" x2="263.2031" y1="437.6211" y2="437.6211"/><line style="stroke:#181818;stroke-width:0.5;" x1="143.5" x2="263.2031" y1="445.6211" y2="445.6211"/><ellipse cx="153.5" cy="460.4316" fill="#84BE84" rx="3" ry="3" style="stroke:#038048;stroke-width:1.0;"/><text fill="#000000" font-family="sans-serif" font-size="14" lengthAdjust="spacing" textLength="95.7031" x="162.5" y="464.7285">price() : Double</text></g><!--link BuildingBlockService to FlightService--><g id="link_BuildingBlockService_FlightService"><path codeLine="34" d="M428.49,113.6811 C448.1,145.6011 474.6798,188.8985 494.3098,220.8585 " fill="none" id="BuildingBlockService-to-FlightService" style="stroke:#181818;stroke-width:1.0;"/><polygon fill="#181818" points="497.45,225.9711,496.1481,216.2087,494.8332,221.7106,489.3313,220.3956,497.45,225.9711" style="stroke:#181818;stroke-width:1.0;"/></g><!--link BuildingBlockService to CarRentalService--><g id="link_BuildingBlockService_CarRentalService"><path codeLine="35" d="M510.44,113.6511 C556.31,129.6311 610.57,150.4411 657.5,173.6211 C688.17,188.7711 715.6692,205.7506 741.0992,222.7206 " fill="none" id="BuildingBlockService-to-CarRentalService" style="stroke:#181818;stroke-width:1.0;"/><polygon fill="#181818" points="746.09,226.0511,740.8241,217.7282,741.931,223.2757,736.3835,224.3826,746.09,226.0511" style="stroke:#181818;stroke-width:1.0;"/></g><!--link BuildingBlockService to CarRental--><g id="link_BuildingBlockService_CarRental"><path codeLine="36" d="M388.69,113.6811 C372.19,140.8011 351.5686,174.6952 332.8786,205.4152 " fill="none" id="BuildingBlockService-to-CarRental" style="stroke:#181818;stroke-width:1.0;"/><polygon fill="#181818" points="329.76,210.5411,337.8551,204.9313,332.3588,206.2695,331.0206,200.7732,329.76,210.5411" style="stroke:#181818;stroke-width:1.0;"/></g><!--link BuildingBlockService to Flight--><g id="link_BuildingBlockService_Flight"><path codeLine="37" d="M336.31,113.8111 C301.49,130.4311 259.56,151.7111 223.5,173.6211 C217.81,177.0711 217.0743,177.4514 211.3143,181.2114 " fill="none" id="BuildingBlockService-to-Flight" style="stroke:#181818;stroke-width:1.0;"/><polygon fill="#181818" points="206.29,184.4911,216.0129,182.921,210.4769,181.758,211.6399,176.222,206.29,184.4911" style="stroke:#181818;stroke-width:1.0;"/></g><!--link Flight to BuildingBlock--><g id="link_Flight_BuildingBlock"><path codeLine="38" d="M153.01,345.7311 C164.58,366.9111 167.6782,372.5658 176.9082,389.4558 " fill="none" id="Flight-to-BuildingBlock" style="stroke:#181818;stroke-width:1.0;stroke-dasharray:7.0,7.0;"/><polygon fill="none" points="185.54,405.2511,182.1733,386.5785,171.6431,392.333,185.54,405.2511" style="stroke:#181818;stroke-width:1.0;"/></g><!--link CarRental to BuildingBlock--><g id="link_CarRental_BuildingBlock"><path codeLine="39" d="M274.25,308.6511 C257.47,339.3511 244.7891,362.5543 229.9691,389.6843 " fill="none" id="CarRental-to-BuildingBlock" style="stroke:#181818;stroke-width:1.0;stroke-dasharray:7.0,7.0;"/><polygon fill="none" points="221.34,405.4811,235.2347,392.5607,224.7035,386.8079,221.34,405.4811" style="stroke:#181818;stroke-width:1.0;"/></g><!--link FlightService to KLM--><g id="link_FlightService_KLM"><path codeLine="48" d="M517.5,293.1811 C517.5,328.3111 517.5,383.3911 517.5,414.5611 " fill="none" id="FlightService-KLM" style="stroke:#181818;stroke-width:1.0;"/></g><!--link CarRentalService to Hertz--><g id="link_CarRentalService_Hertz"><path codeLine="49" d="M792.5,293.1811 C792.5,328.3111 792.5,383.3911 792.5,414.5611 " fill="none" id="CarRentalService-Hertz" style="stroke:#181818;stroke-width:1.0;"/></g><!--SRC=[ZLFhJi8m5FxVfpZX5yQC1p1aYK2CHasCy09dwm6RbNOvAyI8lhkzJ60mWllLVhUTo-QKqmHJAmbc2bUCQyYWmB8Y8u4-7R4XQ8YtgYHOiAgThOKeDJODF6Yr-d0m7ZELbcMUmqw0Vp8buGwKJ1T9DRBRC2tKcZm-GnUFYKLcjKNTnzrsdCERC_x8syCg6K5VnizVmLFaTp8ETK_D1QC9PSyTAxDA4H6BAIswJvfib9OUcMXRLlDsFBlMPMqrx0YWEBw5FA_HXEOGc6PvFMaPTRqH- -wkfvJ89n7A-5KlqRkwoZQZPX-OXcmtXQPWwPr1bkNTNYxBJklzX_BQEqNxIOv6ttct4N7OVGyfX0b_mE3vvHNktvu6W0s4yoxqcQX7OlUr9zCjqjtDPLamYhDTU3nwn2y0]--></g></svg>