<svg xmlns="http://www.w3.org/2000/svg" xmlns:xlink="http://www.w3.org/1999/xlink" contentStyleType="text/css" height="239px" preserveAspectRatio="none" style="width:1259px;height:239px;background:#FFFFFF;" version="1.1" viewBox="0 0 1259 239" width="1259px" zoomAndPan="magnify"><title>Code Diagram Backend Adapter voor triptop</title><defs/><g><text fill="#000000" font-family="sans-serif" font-size="14" font-weight="bold" lengthAdjust="spacing" textLength="296.3789" x="474.5259" y="25.1074">Code Diagram Backend Adapter voor triptop</text><!--entity DeutscheBahnAPI--><g id="elem_DeutscheBahnAPI"><polygon fill="#F1F1F1" points="17.5,183.6211,27.5,173.6211,169.5752,173.6211,169.5752,212.2422,159.5752,222.2422,17.5,222.2422,17.5,183.6211" style="stroke:#181818;stroke-width:0.5;"/><line style="stroke:#181818;stroke-width:0.5;" x1="159.5752" x2="169.5752" y1="183.6211" y2="173.6211"/><line style="stroke:#181818;stroke-width:0.5;" x1="17.5" x2="159.5752" y1="183.6211" y2="183.6211"/><line style="stroke:#181818;stroke-width:0.5;" x1="159.5752" x2="159.5752" y1="183.6211" y2="222.2422"/><text fill="#000000" font-family="sans-serif" font-size="14" lengthAdjust="spacing" textLength="112.0752" x="32.5" y="208.7285">DeutscheBahnApi</text></g><!--entity DirectionsApi--><g id="elem_DirectionsApi"><polygon fill="#F1F1F1" points="964.5,183.6211,974.5,173.6211,1086.9756,173.6211,1086.9756,212.2422,1076.9756,222.2422,964.5,222.2422,964.5,183.6211" style="stroke:#181818;stroke-width:0.5;"/><line style="stroke:#181818;stroke-width:0.5;" x1="1076.9756" x2="1086.9756" y1="183.6211" y2="173.6211"/><line style="stroke:#181818;stroke-width:0.5;" x1="964.5" x2="1076.9756" y1="183.6211" y2="183.6211"/><line style="stroke:#181818;stroke-width:0.5;" x1="1076.9756" x2="1076.9756" y1="183.6211" y2="222.2422"/><text fill="#000000" font-family="sans-serif" font-size="14" lengthAdjust="spacing" textLength="82.4756" x="979.5" y="208.7285">DirectionsApi</text></g><!--class TravelService--><g id="elem_TravelService"><rect codeLine="5" fill="#F1F1F1" height="66.6211" id="TravelService" rx="2.5" ry="2.5" style="stroke:#181818;stroke-width:0.5;" width="507.6738" x="215.5" y="46.6211"/><ellipse cx="422.2974" cy="62.6211" fill="#ADD1B2" rx="11" ry="11" style="stroke:#181818;stroke-width:1.0;"/><path d="M425.063,58.4961 Q425.2192,58.2773 425.4067,58.168 Q425.5942,58.0586 425.813,58.0586 Q426.188,58.0586 426.4224,58.3242 Q426.6567,58.5742 426.6567,59.1836 L426.6567,60.6367 Q426.6567,61.2461 426.4224,61.5117 Q426.188,61.7773 425.813,61.7773 Q425.4692,61.7773 425.2661,61.5742 Q425.063,61.3867 424.9536,60.8711 Q424.9067,60.5117 424.7192,60.3242 Q424.3911,59.9492 423.7817,59.7305 Q423.1724,59.5117 422.5474,59.5117 Q421.7817,59.5117 421.1411,59.8398 Q420.5161,60.168 420.0161,60.918 Q419.5317,61.668 419.5317,62.6992 L419.5317,63.793 Q419.5317,65.0273 420.4224,65.8555 Q421.313,66.668 422.9067,66.668 Q423.8442,66.668 424.5005,66.418 Q424.8911,66.2617 425.313,65.8242 Q425.5786,65.5586 425.7192,65.4805 Q425.8755,65.4023 426.0786,65.4023 Q426.4067,65.4023 426.6567,65.668 Q426.9224,65.918 426.9224,66.2617 Q426.9224,66.6055 426.5786,67.0117 Q426.0786,67.5898 425.2817,67.918 Q424.2036,68.3711 422.9067,68.3711 Q421.3911,68.3711 420.188,67.7461 Q419.2036,67.2461 418.5161,66.1836 Q417.8286,65.1055 417.8286,63.8242 L417.8286,62.668 Q417.8286,61.3398 418.438,60.1992 Q419.063,59.043 420.1567,58.4336 Q421.2505,57.8086 422.4849,57.8086 Q423.2192,57.8086 423.8599,57.9805 Q424.5161,58.1367 425.063,58.4961 Z " fill="#000000"/><text fill="#000000" font-family="sans-serif" font-size="14" lengthAdjust="spacing" textLength="85.5791" x="442.7974" y="68.418">TravelService</text><line style="stroke:#181818;stroke-width:0.5;" x1="216.5" x2="722.1738" y1="78.6211" y2="78.6211"/><line style="stroke:#181818;stroke-width:0.5;" x1="216.5" x2="722.1738" y1="86.6211" y2="86.6211"/><text fill="#000000" font-family="sans-serif" font-size="14" lengthAdjust="spacing" textLength="495.6738" x="221.5" y="105.7285">getTravelData(locationStart: String, locationEnd: String, travelType: String): void</text></g><!--class TravelAdapter--><g id="elem_TravelAdapter"><rect codeLine="9" fill="#F1F1F1" height="66.6211" id="TravelAdapter" rx="2.5" ry="2.5" style="stroke:#181818;stroke-width:0.5;" width="119.9307" x="1132.5" y="46.6211"/><ellipse cx="1147.5" cy="62.6211" fill="#B4A7E5" rx="11" ry="11" style="stroke:#181818;stroke-width:1.0;"/><path d="M1148.4531,59.2617 L1148.4531,65.918 L1150.1719,65.918 Q1150.7813,65.918 1151.0469,66.1523 Q1151.3125,66.3867 1151.3125,66.7773 Q1151.3125,67.1523 1151.0469,67.3867 Q1150.7813,67.6211 1150.1719,67.6211 L1145.0313,67.6211 Q1144.4219,67.6211 1144.1563,67.3867 Q1143.8906,67.1523 1143.8906,66.7617 Q1143.8906,66.3867 1144.1563,66.1523 Q1144.4219,65.918 1145.0313,65.918 L1146.75,65.918 L1146.75,59.2617 L1145.0313,59.2617 Q1144.4219,59.2617 1144.1563,59.0273 Q1143.8906,58.793 1143.8906,58.4023 Q1143.8906,58.0273 1144.1563,57.793 Q1144.4219,57.5586 1145.0313,57.5586 L1150.1719,57.5586 Q1150.7813,57.5586 1151.0469,57.793 Q1151.3125,58.0273 1151.3125,58.4023 Q1151.3125,58.793 1151.0469,59.0273 Q1150.7813,59.2617 1150.1719,59.2617 L1148.4531,59.2617 Z " fill="#000000"/><text fill="#000000" font-family="sans-serif" font-size="14" font-style="italic" lengthAdjust="spacing" textLength="87.9307" x="1161.5" y="68.418">TravelAdapter</text><line style="stroke:#181818;stroke-width:0.5;" x1="1133.5" x2="1251.4307" y1="78.6211" y2="78.6211"/><line style="stroke:#181818;stroke-width:0.5;" x1="1133.5" x2="1251.4307" y1="86.6211" y2="86.6211"/><text fill="#000000" font-family="sans-serif" font-size="14" lengthAdjust="spacing" textLength="99.6064" x="1138.5" y="105.7285">getRoute(): void</text></g><!--class DirectionsAdapter--><g id="elem_DirectionsAdapter"><rect codeLine="12" fill="#F1F1F1" height="66.6211" id="DirectionsAdapter" rx="2.5" ry="2.5" style="stroke:#181818;stroke-width:0.5;" width="143.2754" x="954" y="46.6211"/><ellipse cx="969" cy="62.6211" fill="#ADD1B2" rx="11" ry="11" style="stroke:#181818;stroke-width:1.0;"/><path d="M971.7656,58.4961 Q971.9219,58.2773 972.1094,58.168 Q972.2969,58.0586 972.5156,58.0586 Q972.8906,58.0586 973.125,58.3242 Q973.3594,58.5742 973.3594,59.1836 L973.3594,60.6367 Q973.3594,61.2461 973.125,61.5117 Q972.8906,61.7773 972.5156,61.7773 Q972.1719,61.7773 971.9688,61.5742 Q971.7656,61.3867 971.6563,60.8711 Q971.6094,60.5117 971.4219,60.3242 Q971.0938,59.9492 970.4844,59.7305 Q969.875,59.5117 969.25,59.5117 Q968.4844,59.5117 967.8438,59.8398 Q967.2188,60.168 966.7188,60.918 Q966.2344,61.668 966.2344,62.6992 L966.2344,63.793 Q966.2344,65.0273 967.125,65.8555 Q968.0156,66.668 969.6094,66.668 Q970.5469,66.668 971.2031,66.418 Q971.5938,66.2617 972.0156,65.8242 Q972.2813,65.5586 972.4219,65.4805 Q972.5781,65.4023 972.7813,65.4023 Q973.1094,65.4023 973.3594,65.668 Q973.625,65.918 973.625,66.2617 Q973.625,66.6055 973.2813,67.0117 Q972.7813,67.5898 971.9844,67.918 Q970.9063,68.3711 969.6094,68.3711 Q968.0938,68.3711 966.8906,67.7461 Q965.9063,67.2461 965.2188,66.1836 Q964.5313,65.1055 964.5313,63.8242 L964.5313,62.668 Q964.5313,61.3398 965.1406,60.1992 Q965.7656,59.043 966.8594,58.4336 Q967.9531,57.8086 969.1875,57.8086 Q969.9219,57.8086 970.5625,57.9805 Q971.2188,58.1367 971.7656,58.4961 Z " fill="#000000"/><text fill="#000000" font-family="sans-serif" font-size="14" lengthAdjust="spacing" textLength="111.2754" x="983" y="68.418">DirectionsAdapter</text><line style="stroke:#181818;stroke-width:0.5;" x1="955" x2="1096.2754" y1="78.6211" y2="78.6211"/><line style="stroke:#181818;stroke-width:0.5;" x1="955" x2="1096.2754" y1="86.6211" y2="86.6211"/><text fill="#000000" font-family="sans-serif" font-size="14" lengthAdjust="spacing" textLength="99.6064" x="960" y="105.7285">getRoute(): void</text></g><!--class DeutscheBahnAdapter--><g id="elem_DeutscheBahnAdapter"><rect codeLine="15" fill="#F1F1F1" height="66.6211" id="DeutscheBahnAdapter" rx="2.5" ry="2.5" style="stroke:#181818;stroke-width:0.5;" width="172.875" x="7" y="46.6211"/><ellipse cx="22" cy="62.6211" fill="#ADD1B2" rx="11" ry="11" style="stroke:#181818;stroke-width:1.0;"/><path d="M24.7656,58.4961 Q24.9219,58.2773 25.1094,58.168 Q25.2969,58.0586 25.5156,58.0586 Q25.8906,58.0586 26.125,58.3242 Q26.3594,58.5742 26.3594,59.1836 L26.3594,60.6367 Q26.3594,61.2461 26.125,61.5117 Q25.8906,61.7773 25.5156,61.7773 Q25.1719,61.7773 24.9688,61.5742 Q24.7656,61.3867 24.6563,60.8711 Q24.6094,60.5117 24.4219,60.3242 Q24.0938,59.9492 23.4844,59.7305 Q22.875,59.5117 22.25,59.5117 Q21.4844,59.5117 20.8438,59.8398 Q20.2188,60.168 19.7188,60.918 Q19.2344,61.668 19.2344,62.6992 L19.2344,63.793 Q19.2344,65.0273 20.125,65.8555 Q21.0156,66.668 22.6094,66.668 Q23.5469,66.668 24.2031,66.418 Q24.5938,66.2617 25.0156,65.8242 Q25.2813,65.5586 25.4219,65.4805 Q25.5781,65.4023 25.7813,65.4023 Q26.1094,65.4023 26.3594,65.668 Q26.625,65.918 26.625,66.2617 Q26.625,66.6055 26.2813,67.0117 Q25.7813,67.5898 24.9844,67.918 Q23.9063,68.3711 22.6094,68.3711 Q21.0938,68.3711 19.8906,67.7461 Q18.9063,67.2461 18.2188,66.1836 Q17.5313,65.1055 17.5313,63.8242 L17.5313,62.668 Q17.5313,61.3398 18.1406,60.1992 Q18.7656,59.043 19.8594,58.4336 Q20.9531,57.8086 22.1875,57.8086 Q22.9219,57.8086 23.5625,57.9805 Q24.2188,58.1367 24.7656,58.4961 Z " fill="#000000"/><text fill="#000000" font-family="sans-serif" font-size="14" lengthAdjust="spacing" textLength="140.875" x="36" y="68.418">DeutscheBahnAdapter</text><line style="stroke:#181818;stroke-width:0.5;" x1="8" x2="178.875" y1="78.6211" y2="78.6211"/><line style="stroke:#181818;stroke-width:0.5;" x1="8" x2="178.875" y1="86.6211" y2="86.6211"/><text fill="#000000" font-family="sans-serif" font-size="14" lengthAdjust="spacing" textLength="99.6064" x="13" y="105.7285">getRoute(): void</text></g><!--class ITreinAdapter--><g id="elem_ITreinAdapter"><rect fill="#F1F1F1" height="48" id="ITreinAdapter" rx="2.5" ry="2.5" style="stroke:#181818;stroke-width:0.5;" width="116.8203" x="595" y="174.1211"/><ellipse cx="610" cy="190.1211" fill="#ADD1B2" rx="11" ry="11" style="stroke:#181818;stroke-width:1.0;"/><path d="M612.7656,185.9961 Q612.9219,185.7773 613.1094,185.668 Q613.2969,185.5586 613.5156,185.5586 Q613.8906,185.5586 614.125,185.8242 Q614.3594,186.0742 614.3594,186.6836 L614.3594,188.1367 Q614.3594,188.7461 614.125,189.0117 Q613.8906,189.2773 613.5156,189.2773 Q613.1719,189.2773 612.9688,189.0742 Q612.7656,188.8867 612.6563,188.3711 Q612.6094,188.0117 612.4219,187.8242 Q612.0938,187.4492 611.4844,187.2305 Q610.875,187.0117 610.25,187.0117 Q609.4844,187.0117 608.8438,187.3398 Q608.2188,187.668 607.7188,188.418 Q607.2344,189.168 607.2344,190.1992 L607.2344,191.293 Q607.2344,192.5273 608.125,193.3555 Q609.0156,194.168 610.6094,194.168 Q611.5469,194.168 612.2031,193.918 Q612.5938,193.7617 613.0156,193.3242 Q613.2813,193.0586 613.4219,192.9805 Q613.5781,192.9023 613.7813,192.9023 Q614.1094,192.9023 614.3594,193.168 Q614.625,193.418 614.625,193.7617 Q614.625,194.1055 614.2813,194.5117 Q613.7813,195.0898 612.9844,195.418 Q611.9063,195.8711 610.6094,195.8711 Q609.0938,195.8711 607.8906,195.2461 Q606.9063,194.7461 606.2188,193.6836 Q605.5313,192.6055 605.5313,191.3242 L605.5313,190.168 Q605.5313,188.8398 606.1406,187.6992 Q606.7656,186.543 607.8594,185.9336 Q608.9531,185.3086 610.1875,185.3086 Q610.9219,185.3086 611.5625,185.4805 Q612.2188,185.6367 612.7656,185.9961 Z " fill="#000000"/><text fill="#000000" font-family="sans-serif" font-size="14" lengthAdjust="spacing" textLength="84.8203" x="624" y="195.918">ITreinAdapter</text><line style="stroke:#181818;stroke-width:0.5;" x1="596" x2="710.8203" y1="206.1211" y2="206.1211"/><line style="stroke:#181818;stroke-width:0.5;" x1="596" x2="710.8203" y1="214.1211" y2="214.1211"/></g><!--class TreinAdapterFactory--><g id="elem_TreinAdapterFactory"><rect fill="#F1F1F1" height="48" id="TreinAdapterFactory" rx="2.5" ry="2.5" style="stroke:#181818;stroke-width:0.5;" width="159.6064" x="758.5" y="56.1211"/><ellipse cx="773.5" cy="72.1211" fill="#ADD1B2" rx="11" ry="11" style="stroke:#181818;stroke-width:1.0;"/><path d="M776.2656,67.9961 Q776.4219,67.7773 776.6094,67.668 Q776.7969,67.5586 777.0156,67.5586 Q777.3906,67.5586 777.625,67.8242 Q777.8594,68.0742 777.8594,68.6836 L777.8594,70.1367 Q777.8594,70.7461 777.625,71.0117 Q777.3906,71.2773 777.0156,71.2773 Q776.6719,71.2773 776.4688,71.0742 Q776.2656,70.8867 776.1563,70.3711 Q776.1094,70.0117 775.9219,69.8242 Q775.5938,69.4492 774.9844,69.2305 Q774.375,69.0117 773.75,69.0117 Q772.9844,69.0117 772.3438,69.3398 Q771.7188,69.668 771.2188,70.418 Q770.7344,71.168 770.7344,72.1992 L770.7344,73.293 Q770.7344,74.5273 771.625,75.3555 Q772.5156,76.168 774.1094,76.168 Q775.0469,76.168 775.7031,75.918 Q776.0938,75.7617 776.5156,75.3242 Q776.7813,75.0586 776.9219,74.9805 Q777.0781,74.9023 777.2813,74.9023 Q777.6094,74.9023 777.8594,75.168 Q778.125,75.418 778.125,75.7617 Q778.125,76.1055 777.7813,76.5117 Q777.2813,77.0898 776.4844,77.418 Q775.4063,77.8711 774.1094,77.8711 Q772.5938,77.8711 771.3906,77.2461 Q770.4063,76.7461 769.7188,75.6836 Q769.0313,74.6055 769.0313,73.3242 L769.0313,72.168 Q769.0313,70.8398 769.6406,69.6992 Q770.2656,68.543 771.3594,67.9336 Q772.4531,67.3086 773.6875,67.3086 Q774.4219,67.3086 775.0625,67.4805 Q775.7188,67.6367 776.2656,67.9961 Z " fill="#000000"/><text fill="#000000" font-family="sans-serif" font-size="14" lengthAdjust="spacing" textLength="127.6064" x="787.5" y="77.918">TreinAdapterFactory</text><line style="stroke:#181818;stroke-width:0.5;" x1="759.5" x2="917.1064" y1="88.1211" y2="88.1211"/><line style="stroke:#181818;stroke-width:0.5;" x1="759.5" x2="917.1064" y1="96.1211" y2="96.1211"/></g><!--link TravelService to ITreinAdapter--><g id="link_TravelService_ITreinAdapter"><path codeLine="22" d="M521.24,113.7411 C551.75,132.9711 584.5346,153.641 611.9246,170.911 " fill="none" id="TravelService-to-ITreinAdapter" style="stroke:#181818;stroke-width:1.0;"/><polygon fill="#181818" points="617,174.1111,611.5204,165.9273,612.7705,171.4443,607.2536,172.6945,617,174.1111" style="stroke:#181818;stroke-width:1.0;"/></g><!--link DirectionsAdapter to ITreinAdapter--><g id="link_DirectionsAdapter_ITreinAdapter"><path codeLine="24" d="M953.75,107.7611 C947.93,109.7911 942.12,111.7711 936.5,113.6211 C859.51,139.0111 786.8933,160.0574 729.4333,176.1474 " fill="none" id="DirectionsAdapter-to-ITreinAdapter" style="stroke:#181818;stroke-width:1.0;stroke-dasharray:7.0,7.0;"/><polygon fill="none" points="712.1,181.0011,731.0511,181.9252,727.8154,170.3697,712.1,181.0011" style="stroke:#181818;stroke-width:1.0;"/></g><!--link DeutscheBahnAdapter to ITreinAdapter--><g id="link_DeutscheBahnAdapter_ITreinAdapter"><path codeLine="25" d="M180.1,109.0511 C185.97,110.6711 191.81,112.2111 197.5,113.6211 C338.54,148.4311 489.5771,173.0148 576.9071,186.0448 " fill="none" id="DeutscheBahnAdapter-to-ITreinAdapter" style="stroke:#181818;stroke-width:1.0;stroke-dasharray:7.0,7.0;"/><polygon fill="none" points="594.71,188.7011,577.7925,180.1105,576.0216,191.9791,594.71,188.7011" style="stroke:#181818;stroke-width:1.0;"/></g><!--link TreinAdapterFactory to ITreinAdapter--><g id="link_TreinAdapterFactory_ITreinAdapter"><path codeLine="26" d="M801.51,104.3211 C769.24,124.5511 727.7635,150.5539 695.5135,170.7739 " fill="none" id="TreinAdapterFactory-to-ITreinAdapter" style="stroke:#181818;stroke-width:1.0;stroke-dasharray:7.0,7.0;"/><polygon fill="#181818" points="690.43,173.9611,700.18,172.5692,694.6662,171.3051,695.9304,165.7913,690.43,173.9611" style="stroke:#181818;stroke-width:1.0;"/></g><!--link DirectionsAdapter to DirectionsApi--><g id="link_DirectionsAdapter_DirectionsApi"><path codeLine="34" d="M1025.5,113.7411 C1025.5,132.7711 1025.5,156.3411 1025.5,173.5611 " fill="none" id="DirectionsAdapter-DirectionsApi" style="stroke:#181818;stroke-width:1.0;"/></g><!--link DeutscheBahnAdapter to DeutscheBahnAPI--><g id="link_DeutscheBahnAdapter_DeutscheBahnAPI"><path codeLine="35" d="M93.5,113.7411 C93.5,132.7711 93.5,156.3411 93.5,173.5611 " fill="none" id="DeutscheBahnAdapter-DeutscheBahnAPI" style="stroke:#181818;stroke-width:1.0;"/></g><!--SRC=[TP51JuGm48Nl_HMJlRWc0dSE9gveiZSZ_8596Q4HsgOC91lT_sw1HK2mjxvyRzwRzgvajaqSHRP2pMrTXTBKaQomQO9SOU6m5gou8dWsEK4oId12-KawXwSSBPE3pXW7x9HbOuKGWnyoXnrLARbEIVeIu4z1FAe9CXuh8v6LqIcZunXIFq0N3p39BpgVHHvisSNIfDt7FbRbuYg4qhx41qgwPTvg3Pa-yjsqJCUP7-ibof7iSveP_n-cbXjPqWbBlPY-m_TdjJa4mIESCqTgSWgnoGx3xx_GJYJiOClBAqesxkAnJQ8UlcyvykqCsC1XfLbr61xjEXdcdbQD-5BvXJVx-ANNvjrrUcXTwGS0]--></g></svg>