<svg xmlns="http://www.w3.org/2000/svg" xmlns:xlink="http://www.w3.org/1999/xlink" contentStyleType="text/css" height="443px" preserveAspectRatio="none" style="width:916px;height:443px;background:#FFFFFF;" version="1.1" viewBox="0 0 916 443" width="916px" zoomAndPan="magnify"><title>Code Diagram - backend externe service Triptop</title><defs/><g><text fill="#000000" font-family="sans-serif" font-size="14" font-weight="bold" lengthAdjust="spacing" textLength="322.1025" x="290.231" y="25.1074">Code Diagram - backend externe service Triptop</text><!--entity KLM--><g id="elem_KLM"><polygon fill="#F1F1F1" points="470,387.6211,480,377.6211,565.2412,377.6211,565.2412,416.2422,555.2412,426.2422,470,426.2422,470,387.6211" style="stroke:#181818;stroke-width:0.5;"/><line style="stroke:#181818;stroke-width:0.5;" x1="555.2412" x2="565.2412" y1="387.6211" y2="377.6211"/><line style="stroke:#181818;stroke-width:0.5;" x1="470" x2="555.2412" y1="387.6211" y2="387.6211"/><line style="stroke:#181818;stroke-width:0.5;" x1="555.2412" x2="555.2412" y1="387.6211" y2="426.2422"/><text fill="#000000" font-family="sans-serif" font-size="14" lengthAdjust="spacing" textLength="55.2412" x="485" y="412.7285">KLM API</text></g><!--entity Hertz--><g id="elem_Hertz"><polygon fill="#F1F1F1" points="742.5,387.6211,752.5,377.6211,842.4033,377.6211,842.4033,416.2422,832.4033,426.2422,742.5,426.2422,742.5,387.6211" style="stroke:#181818;stroke-width:0.5;"/><line style="stroke:#181818;stroke-width:0.5;" x1="832.4033" x2="842.4033" y1="387.6211" y2="377.6211"/><line style="stroke:#181818;stroke-width:0.5;" x1="742.5" x2="832.4033" y1="387.6211" y2="387.6211"/><line style="stroke:#181818;stroke-width:0.5;" x1="832.4033" x2="832.4033" y1="387.6211" y2="426.2422"/><text fill="#000000" font-family="sans-serif" font-size="14" lengthAdjust="spacing" textLength="59.9033" x="757.5" y="412.7285">Hertz API</text></g><!--class Flight--><g id="elem_Flight"><rect codeLine="4" fill="#F1F1F1" height="135.0664" id="Flight" rx="2.5" ry="2.5" style="stroke:#181818;stroke-width:0.5;" width="198.7168" x="7" y="173.6211"/><ellipse cx="80.4277" cy="195.9121" fill="#ADD1B2" rx="11" ry="11" style="stroke:#181818;stroke-width:1.0;"/><path d="M83.1934,191.7871 Q83.3496,191.5684 83.5371,191.459 Q83.7246,191.3496 83.9434,191.3496 Q84.3184,191.3496 84.5527,191.6152 Q84.7871,191.8652 84.7871,192.4746 L84.7871,193.9277 Q84.7871,194.5371 84.5527,194.8027 Q84.3184,195.0684 83.9434,195.0684 Q83.5996,195.0684 83.3965,194.8652 Q83.1934,194.6777 83.084,194.1621 Q83.0371,193.8027 82.8496,193.6152 Q82.5215,193.2402 81.9121,193.0215 Q81.3027,192.8027 80.6777,192.8027 Q79.9121,192.8027 79.2715,193.1309 Q78.6465,193.459 78.1465,194.209 Q77.6621,194.959 77.6621,195.9902 L77.6621,197.084 Q77.6621,198.3184 78.5527,199.1465 Q79.4434,199.959 81.0371,199.959 Q81.9746,199.959 82.6309,199.709 Q83.0215,199.5527 83.4434,199.1152 Q83.709,198.8496 83.8496,198.7715 Q84.0059,198.6934 84.209,198.6934 Q84.5371,198.6934 84.7871,198.959 Q85.0527,199.209 85.0527,199.5527 Q85.0527,199.8965 84.709,200.3027 Q84.209,200.8809 83.4121,201.209 Q82.334,201.6621 81.0371,201.6621 Q79.5215,201.6621 78.3184,201.0371 Q77.334,200.5371 76.6465,199.4746 Q75.959,198.3965 75.959,197.1152 L75.959,195.959 Q75.959,194.6309 76.5684,193.4902 Q77.1934,192.334 78.2871,191.7246 Q79.3809,191.0996 80.6152,191.0996 Q81.3496,191.0996 81.9902,191.2715 Q82.6465,191.4277 83.1934,191.7871 Z " fill="#000000"/><text fill="#000000" font-family="sans-serif" font-size="12" font-style="italic" lengthAdjust="spacing" textLength="47.3613" x="98.9277" y="191.5703">&#171;record&#187;</text><text fill="#000000" font-family="sans-serif" font-size="14" lengthAdjust="spacing" textLength="34.2344" x="105.4912" y="209.6895">Flight</text><line style="stroke:#181818;stroke-width:0.5;" x1="8" x2="204.7168" y1="218.2031" y2="218.2031"/><rect fill="none" height="6" style="stroke:#C82930;stroke-width:1.0;" width="6" x="15" y="230.0137"/><text fill="#000000" font-family="sans-serif" font-size="14" lengthAdjust="spacing" textLength="163.3926" x="27" y="237.3105">departureTime : DateTime</text><rect fill="none" height="6" style="stroke:#C82930;stroke-width:1.0;" width="6" x="15" y="248.6348"/><text fill="#000000" font-family="sans-serif" font-size="14" lengthAdjust="spacing" textLength="141.5791" x="27" y="255.9316">arrivalTime : DateTime</text><line style="stroke:#181818;stroke-width:0.5;" x1="8" x2="204.7168" y1="263.4453" y2="263.4453"/><ellipse cx="18" cy="278.2559" fill="#84BE84" rx="3" ry="3" style="stroke:#038048;stroke-width:1.0;"/><text fill="#000000" font-family="sans-serif" font-size="14" lengthAdjust="spacing" textLength="172.7168" x="27" y="282.5527">departureTime() : DateTime</text><ellipse cx="18" cy="296.877" fill="#84BE84" rx="3" ry="3" style="stroke:#038048;stroke-width:1.0;"/><text fill="#000000" font-family="sans-serif" font-size="14" lengthAdjust="spacing" textLength="150.9033" x="27" y="301.1738">arrivalTime() : DateTime</text></g><!--class CarRental--><g id="elem_CarRental"><rect codeLine="11" fill="#F1F1F1" height="97.8242" id="CarRental" rx="2.5" ry="2.5" style="stroke:#181818;stroke-width:0.5;" width="119.3721" x="241" y="192.1211"/><ellipse cx="266.9551" cy="214.4121" fill="#ADD1B2" rx="11" ry="11" style="stroke:#181818;stroke-width:1.0;"/><path d="M269.7208,210.2871 Q269.877,210.0684 270.0645,209.959 Q270.252,209.8496 270.4708,209.8496 Q270.8458,209.8496 271.0801,210.1152 Q271.3145,210.3652 271.3145,210.9746 L271.3145,212.4277 Q271.3145,213.0371 271.0801,213.3027 Q270.8458,213.5684 270.4708,213.5684 Q270.127,213.5684 269.9239,213.3652 Q269.7208,213.1777 269.6114,212.6621 Q269.5645,212.3027 269.377,212.1152 Q269.0489,211.7402 268.4395,211.5215 Q267.8301,211.3027 267.2051,211.3027 Q266.4395,211.3027 265.7989,211.6309 Q265.1739,211.959 264.6739,212.709 Q264.1895,213.459 264.1895,214.4902 L264.1895,215.584 Q264.1895,216.8184 265.0801,217.6465 Q265.9708,218.459 267.5645,218.459 Q268.502,218.459 269.1583,218.209 Q269.5489,218.0527 269.9708,217.6152 Q270.2364,217.3496 270.377,217.2715 Q270.5333,217.1934 270.7364,217.1934 Q271.0645,217.1934 271.3145,217.459 Q271.5801,217.709 271.5801,218.0527 Q271.5801,218.3965 271.2364,218.8027 Q270.7364,219.3809 269.9395,219.709 Q268.8614,220.1621 267.5645,220.1621 Q266.0489,220.1621 264.8458,219.5371 Q263.8614,219.0371 263.1739,217.9746 Q262.4864,216.8965 262.4864,215.6152 L262.4864,214.459 Q262.4864,213.1309 263.0958,211.9902 Q263.7208,210.834 264.8145,210.2246 Q265.9083,209.5996 267.1426,209.5996 Q267.877,209.5996 268.5176,209.7715 Q269.1739,209.9277 269.7208,210.2871 Z " fill="#000000"/><text fill="#000000" font-family="sans-serif" font-size="12" font-style="italic" lengthAdjust="spacing" textLength="47.3613" x="291.2226" y="210.0703">&#171;record&#187;</text><text fill="#000000" font-family="sans-serif" font-size="14" lengthAdjust="spacing" textLength="63.0273" x="283.3896" y="228.1895">CarRental</text><line style="stroke:#181818;stroke-width:0.5;" x1="242" x2="359.3721" y1="236.7031" y2="236.7031"/><rect fill="none" height="6" style="stroke:#C82930;stroke-width:1.0;" width="6" x="249" y="248.5137"/><text fill="#000000" font-family="sans-serif" font-size="14" lengthAdjust="spacing" textLength="84.0479" x="261" y="255.8105">brand : String</text><line style="stroke:#181818;stroke-width:0.5;" x1="242" x2="359.3721" y1="263.3242" y2="263.3242"/><ellipse cx="252" cy="278.1348" fill="#84BE84" rx="3" ry="3" style="stroke:#038048;stroke-width:1.0;"/><text fill="#000000" font-family="sans-serif" font-size="14" lengthAdjust="spacing" textLength="93.3721" x="261" y="282.4316">brand() : String</text></g><!--class BuildingBlockService--><g id="elem_BuildingBlockService"><rect codeLine="16" fill="#F1F1F1" height="66.6211" id="BuildingBlockService" rx="2.5" ry="2.5" style="stroke:#181818;stroke-width:0.5;" width="297.6123" x="259.5" y="46.6211"/><ellipse cx="338.6909" cy="62.6211" fill="#ADD1B2" rx="11" ry="11" style="stroke:#181818;stroke-width:1.0;"/><path d="M341.4565,58.4961 Q341.6128,58.2773 341.8003,58.168 Q341.9878,58.0586 342.2065,58.0586 Q342.5815,58.0586 342.8159,58.3242 Q343.0503,58.5742 343.0503,59.1836 L343.0503,60.6367 Q343.0503,61.2461 342.8159,61.5117 Q342.5815,61.7773 342.2065,61.7773 Q341.8628,61.7773 341.6597,61.5742 Q341.4565,61.3867 341.3472,60.8711 Q341.3003,60.5117 341.1128,60.3242 Q340.7847,59.9492 340.1753,59.7305 Q339.5659,59.5117 338.9409,59.5117 Q338.1753,59.5117 337.5347,59.8398 Q336.9097,60.168 336.4097,60.918 Q335.9253,61.668 335.9253,62.6992 L335.9253,63.793 Q335.9253,65.0273 336.8159,65.8555 Q337.7065,66.668 339.3003,66.668 Q340.2378,66.668 340.894,66.418 Q341.2847,66.2617 341.7065,65.8242 Q341.9722,65.5586 342.1128,65.4805 Q342.269,65.4023 342.4722,65.4023 Q342.8003,65.4023 343.0503,65.668 Q343.3159,65.918 343.3159,66.2617 Q343.3159,66.6055 342.9722,67.0117 Q342.4722,67.5898 341.6753,67.918 Q340.5972,68.3711 339.3003,68.3711 Q337.7847,68.3711 336.5815,67.7461 Q335.5972,67.2461 334.9097,66.1836 Q334.2222,65.1055 334.2222,63.8242 L334.2222,62.668 Q334.2222,61.3398 334.8315,60.1992 Q335.4565,59.043 336.5503,58.4336 Q337.644,57.8086 338.8784,57.8086 Q339.6128,57.8086 340.2534,57.9805 Q340.9097,58.1367 341.4565,58.4961 Z " fill="#000000"/><text fill="#000000" font-family="sans-serif" font-size="14" lengthAdjust="spacing" textLength="130.7305" x="359.1909" y="68.418">BuildingBlockService</text><line style="stroke:#181818;stroke-width:0.5;" x1="260.5" x2="556.1123" y1="78.6211" y2="78.6211"/><line style="stroke:#181818;stroke-width:0.5;" x1="260.5" x2="556.1123" y1="86.6211" y2="86.6211"/><ellipse cx="270.5" cy="101.4316" fill="#84BE84" rx="3" ry="3" style="stroke:#038048;stroke-width:1.0;"/><text fill="#000000" font-family="sans-serif" font-size="14" lengthAdjust="spacing" textLength="271.6123" x="279.5" y="105.7285">book(BuildingBlock buildingBlock) : boolean</text></g><!--class FlightService--><g id="elem_FlightService"><rect codeLine="20" fill="#F1F1F1" height="66.6211" id="FlightService" rx="2.5" ry="2.5" style="stroke:#181818;stroke-width:0.5;" width="244.6885" x="395" y="207.6211"/><ellipse cx="472.6357" cy="223.6211" fill="#ADD1B2" rx="11" ry="11" style="stroke:#181818;stroke-width:1.0;"/><path d="M475.4014,219.4961 Q475.5576,219.2773 475.7451,219.168 Q475.9326,219.0586 476.1514,219.0586 Q476.5264,219.0586 476.7607,219.3242 Q476.9951,219.5742 476.9951,220.1836 L476.9951,221.6367 Q476.9951,222.2461 476.7607,222.5117 Q476.5264,222.7773 476.1514,222.7773 Q475.8076,222.7773 475.6045,222.5742 Q475.4014,222.3867 475.292,221.8711 Q475.2451,221.5117 475.0576,221.3242 Q474.7295,220.9492 474.1201,220.7305 Q473.5107,220.5117 472.8857,220.5117 Q472.1201,220.5117 471.4795,220.8398 Q470.8545,221.168 470.3545,221.918 Q469.8701,222.668 469.8701,223.6992 L469.8701,224.793 Q469.8701,226.0273 470.7607,226.8555 Q471.6514,227.668 473.2451,227.668 Q474.1826,227.668 474.8389,227.418 Q475.2295,227.2617 475.6514,226.8242 Q475.917,226.5586 476.0576,226.4805 Q476.2139,226.4023 476.417,226.4023 Q476.7451,226.4023 476.9951,226.668 Q477.2607,226.918 477.2607,227.2617 Q477.2607,227.6055 476.917,228.0117 Q476.417,228.5898 475.6201,228.918 Q474.542,229.3711 473.2451,229.3711 Q471.7295,229.3711 470.5264,228.7461 Q469.542,228.2461 468.8545,227.1836 Q468.167,226.1055 468.167,224.8242 L468.167,223.668 Q468.167,222.3398 468.7764,221.1992 Q469.4014,220.043 470.4951,219.4336 Q471.5889,218.8086 472.8232,218.8086 Q473.5576,218.8086 474.1982,218.9805 Q474.8545,219.1367 475.4014,219.4961 Z " fill="#000000"/><text fill="#000000" font-family="sans-serif" font-size="14" lengthAdjust="spacing" textLength="80.917" x="493.1357" y="229.418">FlightService</text><line style="stroke:#181818;stroke-width:0.5;" x1="396" x2="638.6885" y1="239.6211" y2="239.6211"/><line style="stroke:#181818;stroke-width:0.5;" x1="396" x2="638.6885" y1="247.6211" y2="247.6211"/><ellipse cx="406" cy="262.4316" fill="#84BE84" rx="3" ry="3" style="stroke:#038048;stroke-width:1.0;"/><text fill="#000000" font-family="sans-serif" font-size="14" lengthAdjust="spacing" textLength="218.6885" x="415" y="266.7285">book(BuildingBlock flight) : boolean</text></g><!--class CarRentalService--><g id="elem_CarRentalService"><rect codeLine="24" fill="#F1F1F1" height="66.6211" id="CarRentalService" rx="2.5" ry="2.5" style="stroke:#181818;stroke-width:0.5;" width="234.5645" x="675" y="207.6211"/><ellipse cx="733.1772" cy="223.6211" fill="#ADD1B2" rx="11" ry="11" style="stroke:#181818;stroke-width:1.0;"/><path d="M735.9429,219.4961 Q736.0991,219.2773 736.2866,219.168 Q736.4741,219.0586 736.6929,219.0586 Q737.0679,219.0586 737.3022,219.3242 Q737.5366,219.5742 737.5366,220.1836 L737.5366,221.6367 Q737.5366,222.2461 737.3022,222.5117 Q737.0679,222.7773 736.6929,222.7773 Q736.3491,222.7773 736.146,222.5742 Q735.9429,222.3867 735.8335,221.8711 Q735.7866,221.5117 735.5991,221.3242 Q735.271,220.9492 734.6616,220.7305 Q734.0522,220.5117 733.4272,220.5117 Q732.6616,220.5117 732.021,220.8398 Q731.396,221.168 730.896,221.918 Q730.4116,222.668 730.4116,223.6992 L730.4116,224.793 Q730.4116,226.0273 731.3022,226.8555 Q732.1929,227.668 733.7866,227.668 Q734.7241,227.668 735.3804,227.418 Q735.771,227.2617 736.1929,226.8242 Q736.4585,226.5586 736.5991,226.4805 Q736.7554,226.4023 736.9585,226.4023 Q737.2866,226.4023 737.5366,226.668 Q737.8022,226.918 737.8022,227.2617 Q737.8022,227.6055 737.4585,228.0117 Q736.9585,228.5898 736.1616,228.918 Q735.0835,229.3711 733.7866,229.3711 Q732.271,229.3711 731.0679,228.7461 Q730.0835,228.2461 729.396,227.1836 Q728.7085,226.1055 728.7085,224.8242 L728.7085,223.668 Q728.7085,222.3398 729.3179,221.1992 Q729.9429,220.043 731.0366,219.4336 Q732.1304,218.8086 733.3647,218.8086 Q734.0991,218.8086 734.7397,218.9805 Q735.396,219.1367 735.9429,219.4961 Z " fill="#000000"/><text fill="#000000" font-family="sans-serif" font-size="14" lengthAdjust="spacing" textLength="109.71" x="753.6772" y="229.418">CarRentalService</text><line style="stroke:#181818;stroke-width:0.5;" x1="676" x2="908.5645" y1="239.6211" y2="239.6211"/><line style="stroke:#181818;stroke-width:0.5;" x1="676" x2="908.5645" y1="247.6211" y2="247.6211"/><ellipse cx="686" cy="262.4316" fill="#84BE84" rx="3" ry="3" style="stroke:#038048;stroke-width:1.0;"/><text fill="#000000" font-family="sans-serif" font-size="14" lengthAdjust="spacing" textLength="208.5645" x="695" y="266.7285">book(BuildingBlock car) : boolean</text></g><!--class BuildingBlock--><g id="elem_BuildingBlock"><rect codeLine="28" fill="#F1F1F1" height="66.6211" id="BuildingBlock" rx="2.5" ry="2.5" style="stroke:#181818;stroke-width:0.5;" width="121.7031" x="142.5" y="368.6211"/><ellipse cx="160.0449" cy="384.6211" fill="#B4A7E5" rx="11" ry="11" style="stroke:#181818;stroke-width:1.0;"/><path d="M160.998,381.2617 L160.998,387.918 L162.7167,387.918 Q163.3261,387.918 163.5917,388.1523 Q163.8574,388.3867 163.8574,388.7773 Q163.8574,389.1523 163.5917,389.3867 Q163.3261,389.6211 162.7167,389.6211 L157.5761,389.6211 Q156.9667,389.6211 156.7011,389.3867 Q156.4355,389.1523 156.4355,388.7617 Q156.4355,388.3867 156.7011,388.1523 Q156.9667,387.918 157.5761,387.918 L159.2949,387.918 L159.2949,381.2617 L157.5761,381.2617 Q156.9667,381.2617 156.7011,381.0273 Q156.4355,380.793 156.4355,380.4023 Q156.4355,380.0273 156.7011,379.793 Q156.9667,379.5586 157.5761,379.5586 L162.7167,379.5586 Q163.3261,379.5586 163.5917,379.793 Q163.8574,380.0273 163.8574,380.4023 Q163.8574,380.793 163.5917,381.0273 Q163.3261,381.2617 162.7167,381.2617 L160.998,381.2617 Z " fill="#000000"/><text fill="#000000" font-family="sans-serif" font-size="14" font-style="italic" lengthAdjust="spacing" textLength="84.0479" x="174.6104" y="390.418">BuildingBlock</text><line style="stroke:#181818;stroke-width:0.5;" x1="143.5" x2="263.2031" y1="400.6211" y2="400.6211"/><line style="stroke:#181818;stroke-width:0.5;" x1="143.5" x2="263.2031" y1="408.6211" y2="408.6211"/><ellipse cx="153.5" cy="423.4316" fill="#84BE84" rx="3" ry="3" style="stroke:#038048;stroke-width:1.0;"/><text fill="#000000" font-family="sans-serif" font-size="14" lengthAdjust="spacing" textLength="95.7031" x="162.5" y="427.7285">price() : Double</text></g><!--link BuildingBlockService to FlightService--><g id="link_BuildingBlockService_FlightService"><path codeLine="32" d="M430.82,113.6811 C449.63,141.1211 473.0171,175.2325 491.8171,202.6525 " fill="none" id="BuildingBlockService-to-FlightService" style="stroke:#181818;stroke-width:1.0;"/><polygon fill="#181818" points="495.21,207.6011,493.4197,197.9163,492.3826,203.4773,486.8216,202.4402,495.21,207.6011" style="stroke:#181818;stroke-width:1.0;"/></g><!--link BuildingBlockService to CarRentalService--><g id="link_BuildingBlockService_CarRentalService"><path codeLine="33" d="M503.1,113.6911 C549.99,130.4911 607.2,151.9611 657.5,173.6211 C681.38,183.9011 701.722,193.5607 724.232,204.8007 " fill="none" id="BuildingBlockService-to-CarRentalService" style="stroke:#181818;stroke-width:1.0;"/><polygon fill="#181818" points="729.6,207.4811,723.335,199.8818,725.1267,205.2474,719.7611,207.0391,729.6,207.4811" style="stroke:#181818;stroke-width:1.0;"/></g><!--link BuildingBlockService to CarRental--><g id="link_BuildingBlockService_CarRental"><path codeLine="34" d="M386.38,113.6811 C371.08,136.2111 353.8206,161.6173 336.6206,186.9473 " fill="none" id="BuildingBlockService-to-CarRental" style="stroke:#181818;stroke-width:1.0;"/><polygon fill="#181818" points="333.25,191.9111,341.6151,186.7125,336.0588,187.7746,334.9967,182.2184,333.25,191.9111" style="stroke:#181818;stroke-width:1.0;"/></g><!--link BuildingBlockService to Flight--><g id="link_BuildingBlockService_Flight"><path codeLine="35" d="M341.27,113.6611 C305.98,131.0211 262.15,152.9911 223.5,173.6211 C217.83,176.6511 217.2919,176.9079 211.4519,180.1079 " fill="none" id="BuildingBlockService-to-Flight" style="stroke:#181818;stroke-width:1.0;"/><polygon fill="#181818" points="206.19,182.9911,216.0049,182.1742,210.5749,180.5884,212.1606,175.1584,206.19,182.9911" style="stroke:#181818;stroke-width:1.0;"/></g><!--link Flight to BuildingBlock--><g id="link_Flight_BuildingBlock"><path codeLine="36" d="M147.07,308.6311 C159.64,329.2211 163.5554,335.645 174.0854,352.905 " fill="none" id="Flight-to-BuildingBlock" style="stroke:#181818;stroke-width:1.0;stroke-dasharray:7.0,7.0;"/><polygon fill="none" points="183.46,368.2711,179.2075,349.7801,168.9634,356.0298,183.46,368.2711" style="stroke:#181818;stroke-width:1.0;"/></g><!--link CarRental to BuildingBlock--><g id="link_CarRental_BuildingBlock"><path codeLine="37" d="M271.13,290.2611 C255.74,315.4811 246.6651,330.3653 232.9251,352.8853 " fill="none" id="CarRental-to-BuildingBlock" style="stroke:#181818;stroke-width:1.0;stroke-dasharray:7.0,7.0;"/><polygon fill="none" points="223.55,368.2511,238.047,356.0103,227.8031,349.7603,223.55,368.2511" style="stroke:#181818;stroke-width:1.0;"/></g><!--link FlightService to KLM--><g id="link_FlightService_KLM"><path codeLine="46" d="M517.5,274.6811 C517.5,305.2111 517.5,350.1211 517.5,377.3911 " fill="none" id="FlightService-KLM" style="stroke:#181818;stroke-width:1.0;"/></g><!--link CarRentalService to Hertz--><g id="link_CarRentalService_Hertz"><path codeLine="47" d="M792.5,274.6811 C792.5,305.2111 792.5,350.1211 792.5,377.3911 " fill="none" id="CarRentalService-Hertz" style="stroke:#181818;stroke-width:1.0;"/></g><!--SRC=[ZL9TJiCm37xFAQmz3Q7k0DDKYMr28412R1TmMwz4pPBAJIT4uUwaQTcMhQZqAV7tK_jphBIAO6KoWhN4d74F4IIO5gGpe0zBh0agueDC2ROiIsjA8LA5LGNtIkRl5XOBfjHm5iVG271Vb569R6kchTmJp66DrXyx59db0TKGTXiefpTN-9asHBz_creXlv6sg0RwIXZTL7FOM9OwxnnzpNlrrQFJifOgSvMbCccnwIDeUfKnnJGWG79-Q_qSHn7gas6NrxZJplC6BOxJZRkao1SMKhjrxj2fGcRlKR8px58rTQ9yfeCPH54Spl8txRBVVp37_YdwPpURVSNX8EAq-m5G2Ds-yidJymlSlJvE02jepqqxPmSz4DlF8zZTF1nkBefQeRZQXQjxZVW1]--></g></svg>