<svg xmlns="http://www.w3.org/2000/svg" xmlns:xlink="http://www.w3.org/1999/xlink" contentStyleType="text/css" height="247px" preserveAspectRatio="none" style="width:1059px;height:247px;background:#FFFFFF;" version="1.1" viewBox="0 0 1059 247" width="1059px" zoomAndPan="magnify"><title>code diagram for advice strategy</title><defs/><g><text fill="#000000" font-family="sans-serif" font-size="14" font-weight="bold" lengthAdjust="spacing" textLength="219.4131" x="413.0308" y="25.1074">code diagram for advice strategy</text><!--class AccommodationService--><g id="elem_AccommodationService"><rect codeLine="3" fill="#F1F1F1" height="66.6211" id="AccommodationService" rx="2.5" ry="2.5" style="stroke:#181818;stroke-width:0.5;" width="345.0469" x="7" y="46.6211"/><ellipse cx="101.7427" cy="62.6211" fill="#ADD1B2" rx="11" ry="11" style="stroke:#181818;stroke-width:1.0;"/><path d="M104.5083,58.4961 Q104.6646,58.2773 104.8521,58.168 Q105.0396,58.0586 105.2583,58.0586 Q105.6333,58.0586 105.8677,58.3242 Q106.1021,58.5742 106.1021,59.1836 L106.1021,60.6367 Q106.1021,61.2461 105.8677,61.5117 Q105.6333,61.7773 105.2583,61.7773 Q104.9146,61.7773 104.7114,61.5742 Q104.5083,61.3867 104.3989,60.8711 Q104.3521,60.5117 104.1646,60.3242 Q103.8364,59.9492 103.2271,59.7305 Q102.6177,59.5117 101.9927,59.5117 Q101.2271,59.5117 100.5864,59.8398 Q99.9614,60.168 99.4614,60.918 Q98.9771,61.668 98.9771,62.6992 L98.9771,63.793 Q98.9771,65.0273 99.8677,65.8555 Q100.7583,66.668 102.3521,66.668 Q103.2896,66.668 103.9458,66.418 Q104.3364,66.2617 104.7583,65.8242 Q105.0239,65.5586 105.1646,65.4805 Q105.3208,65.4023 105.5239,65.4023 Q105.8521,65.4023 106.1021,65.668 Q106.3677,65.918 106.3677,66.2617 Q106.3677,66.6055 106.0239,67.0117 Q105.5239,67.5898 104.7271,67.918 Q103.6489,68.3711 102.3521,68.3711 Q100.8364,68.3711 99.6333,67.7461 Q98.6489,67.2461 97.9614,66.1836 Q97.2739,65.1055 97.2739,63.8242 L97.2739,62.668 Q97.2739,61.3398 97.8833,60.1992 Q98.5083,59.043 99.6021,58.4336 Q100.6958,57.8086 101.9302,57.8086 Q102.6646,57.8086 103.3052,57.9805 Q103.9614,58.1367 104.5083,58.4961 Z " fill="#000000"/><text fill="#000000" font-family="sans-serif" font-size="14" lengthAdjust="spacing" textLength="147.0615" x="122.2427" y="68.418">AccommodationService</text><line style="stroke:#181818;stroke-width:0.5;" x1="8" x2="351.0469" y1="78.6211" y2="78.6211"/><line style="stroke:#181818;stroke-width:0.5;" x1="8" x2="351.0469" y1="86.6211" y2="86.6211"/><ellipse cx="18" cy="101.4316" fill="#84BE84" rx="3" ry="3" style="stroke:#038048;stroke-width:1.0;"/><text fill="#000000" font-family="sans-serif" font-size="14" lengthAdjust="spacing" textLength="319.0469" x="27" y="105.7285">generateAdvice(adviceStrategy) : Accommodation[]</text></g><!--class AdviceStrategy--><g id="elem_AdviceStrategy"><rect codeLine="7" fill="#F1F1F1" height="66.6211" id="AdviceStrategy" rx="2.5" ry="2.5" style="stroke:#181818;stroke-width:0.5;" width="238.4404" x="425.5" y="173.6211"/><ellipse cx="493.3911" cy="189.6211" fill="#ADD1B2" rx="11" ry="11" style="stroke:#181818;stroke-width:1.0;"/><path d="M496.1567,185.4961 Q496.313,185.2773 496.5005,185.168 Q496.688,185.0586 496.9067,185.0586 Q497.2817,185.0586 497.5161,185.3242 Q497.7505,185.5742 497.7505,186.1836 L497.7505,187.6367 Q497.7505,188.2461 497.5161,188.5117 Q497.2817,188.7773 496.9067,188.7773 Q496.563,188.7773 496.3599,188.5742 Q496.1567,188.3867 496.0474,187.8711 Q496.0005,187.5117 495.813,187.3242 Q495.4849,186.9492 494.8755,186.7305 Q494.2661,186.5117 493.6411,186.5117 Q492.8755,186.5117 492.2349,186.8398 Q491.6099,187.168 491.1099,187.918 Q490.6255,188.668 490.6255,189.6992 L490.6255,190.793 Q490.6255,192.0273 491.5161,192.8555 Q492.4067,193.668 494.0005,193.668 Q494.938,193.668 495.5942,193.418 Q495.9849,193.2617 496.4067,192.8242 Q496.6724,192.5586 496.813,192.4805 Q496.9692,192.4023 497.1724,192.4023 Q497.5005,192.4023 497.7505,192.668 Q498.0161,192.918 498.0161,193.2617 Q498.0161,193.6055 497.6724,194.0117 Q497.1724,194.5898 496.3755,194.918 Q495.2974,195.3711 494.0005,195.3711 Q492.4849,195.3711 491.2817,194.7461 Q490.2974,194.2461 489.6099,193.1836 Q488.9224,192.1055 488.9224,190.8242 L488.9224,189.668 Q488.9224,188.3398 489.5317,187.1992 Q490.1567,186.043 491.2505,185.4336 Q492.3442,184.8086 493.5786,184.8086 Q494.313,184.8086 494.9536,184.9805 Q495.6099,185.1367 496.1567,185.4961 Z " fill="#000000"/><text fill="#000000" font-family="sans-serif" font-size="14" lengthAdjust="spacing" textLength="94.1582" x="513.8911" y="195.418">AdviceStrategy</text><line style="stroke:#181818;stroke-width:0.5;" x1="426.5" x2="662.9404" y1="205.6211" y2="205.6211"/><line style="stroke:#181818;stroke-width:0.5;" x1="426.5" x2="662.9404" y1="213.6211" y2="213.6211"/><text fill="#000000" font-family="sans-serif" font-size="14" lengthAdjust="spacing" textLength="226.4404" x="431.5" y="232.7285">generateAdvice() : Accommodation[]</text></g><!--class CheapestAdviceStrategy--><g id="elem_CheapestAdviceStrategy"><rect codeLine="11" fill="#F1F1F1" height="66.6211" id="CheapestAdviceStrategy" rx="2.5" ry="2.5" style="stroke:#181818;stroke-width:0.5;" width="315.4746" x="387" y="46.6211"/><ellipse cx="463.4429" cy="62.6211" fill="#ADD1B2" rx="11" ry="11" style="stroke:#181818;stroke-width:1.0;"/><path d="M466.2085,58.4961 Q466.3647,58.2773 466.5522,58.168 Q466.7397,58.0586 466.9585,58.0586 Q467.3335,58.0586 467.5679,58.3242 Q467.8022,58.5742 467.8022,59.1836 L467.8022,60.6367 Q467.8022,61.2461 467.5679,61.5117 Q467.3335,61.7773 466.9585,61.7773 Q466.6147,61.7773 466.4116,61.5742 Q466.2085,61.3867 466.0991,60.8711 Q466.0522,60.5117 465.8647,60.3242 Q465.5366,59.9492 464.9272,59.7305 Q464.3179,59.5117 463.6929,59.5117 Q462.9272,59.5117 462.2866,59.8398 Q461.6616,60.168 461.1616,60.918 Q460.6772,61.668 460.6772,62.6992 L460.6772,63.793 Q460.6772,65.0273 461.5679,65.8555 Q462.4585,66.668 464.0522,66.668 Q464.9897,66.668 465.646,66.418 Q466.0366,66.2617 466.4585,65.8242 Q466.7241,65.5586 466.8647,65.4805 Q467.021,65.4023 467.2241,65.4023 Q467.5522,65.4023 467.8022,65.668 Q468.0679,65.918 468.0679,66.2617 Q468.0679,66.6055 467.7241,67.0117 Q467.2241,67.5898 466.4272,67.918 Q465.3491,68.3711 464.0522,68.3711 Q462.5366,68.3711 461.3335,67.7461 Q460.3491,67.2461 459.6616,66.1836 Q458.9741,65.1055 458.9741,63.8242 L458.9741,62.668 Q458.9741,61.3398 459.5835,60.1992 Q460.2085,59.043 461.3022,58.4336 Q462.396,57.8086 463.6304,57.8086 Q464.3647,57.8086 465.0054,57.9805 Q465.6616,58.1367 466.2085,58.4961 Z " fill="#000000"/><text fill="#000000" font-family="sans-serif" font-size="14" lengthAdjust="spacing" textLength="154.0889" x="483.9429" y="68.418">CheapestAdviceStrategy</text><line style="stroke:#181818;stroke-width:0.5;" x1="388" x2="701.4746" y1="78.6211" y2="78.6211"/><line style="stroke:#181818;stroke-width:0.5;" x1="388" x2="701.4746" y1="86.6211" y2="86.6211"/><rect fill="#F24D5C" height="6" style="stroke:#C82930;stroke-width:1.0;" width="6" x="395" y="98.4316"/><text fill="#000000" font-family="sans-serif" font-size="14" lengthAdjust="spacing" textLength="289.4746" x="407" y="105.7285">getHttpURLConnection() : HttpURLConnection</text></g><!--class PriciestAdviceStrategy--><g id="elem_PriciestAdviceStrategy"><rect codeLine="15" fill="#F1F1F1" height="66.6211" id="PriciestAdviceStrategy" rx="2.5" ry="2.5" style="stroke:#181818;stroke-width:0.5;" width="315.4746" x="737" y="46.6211"/><ellipse cx="820.46" cy="62.6211" fill="#ADD1B2" rx="11" ry="11" style="stroke:#181818;stroke-width:1.0;"/><path d="M823.2256,58.4961 Q823.3818,58.2773 823.5693,58.168 Q823.7568,58.0586 823.9756,58.0586 Q824.3506,58.0586 824.585,58.3242 Q824.8193,58.5742 824.8193,59.1836 L824.8193,60.6367 Q824.8193,61.2461 824.585,61.5117 Q824.3506,61.7773 823.9756,61.7773 Q823.6318,61.7773 823.4287,61.5742 Q823.2256,61.3867 823.1162,60.8711 Q823.0693,60.5117 822.8818,60.3242 Q822.5537,59.9492 821.9443,59.7305 Q821.335,59.5117 820.71,59.5117 Q819.9443,59.5117 819.3037,59.8398 Q818.6787,60.168 818.1787,60.918 Q817.6943,61.668 817.6943,62.6992 L817.6943,63.793 Q817.6943,65.0273 818.585,65.8555 Q819.4756,66.668 821.0693,66.668 Q822.0068,66.668 822.6631,66.418 Q823.0537,66.2617 823.4756,65.8242 Q823.7412,65.5586 823.8818,65.4805 Q824.0381,65.4023 824.2412,65.4023 Q824.5693,65.4023 824.8193,65.668 Q825.085,65.918 825.085,66.2617 Q825.085,66.6055 824.7412,67.0117 Q824.2412,67.5898 823.4443,67.918 Q822.3662,68.3711 821.0693,68.3711 Q819.5537,68.3711 818.3506,67.7461 Q817.3662,67.2461 816.6787,66.1836 Q815.9912,65.1055 815.9912,63.8242 L815.9912,62.668 Q815.9912,61.3398 816.6006,60.1992 Q817.2256,59.043 818.3193,58.4336 Q819.4131,57.8086 820.6475,57.8086 Q821.3818,57.8086 822.0225,57.9805 Q822.6787,58.1367 823.2256,58.4961 Z " fill="#000000"/><text fill="#000000" font-family="sans-serif" font-size="14" lengthAdjust="spacing" textLength="140.0547" x="840.96" y="68.418">PriciestAdviceStrategy</text><line style="stroke:#181818;stroke-width:0.5;" x1="738" x2="1051.4746" y1="78.6211" y2="78.6211"/><line style="stroke:#181818;stroke-width:0.5;" x1="738" x2="1051.4746" y1="86.6211" y2="86.6211"/><rect fill="#F24D5C" height="6" style="stroke:#C82930;stroke-width:1.0;" width="6" x="745" y="98.4316"/><text fill="#000000" font-family="sans-serif" font-size="14" lengthAdjust="spacing" textLength="289.4746" x="757" y="105.7285">getHttpURLConnection() : HttpURLConnection</text></g><!--link AccommodationService to AdviceStrategy--><g id="link_AccommodationService_AdviceStrategy"><path codeLine="19" d="M274.45,113.6411 C328.31,132.0811 389.8338,153.1467 443.7238,171.6067 " fill="none" id="AccommodationService-to-AdviceStrategy" style="stroke:#181818;stroke-width:1.0;"/><polygon fill="#181818" points="449.4,173.5511,442.1819,166.8504,444.6698,171.9308,439.5894,174.4187,449.4,173.5511" style="stroke:#181818;stroke-width:1.0;"/></g><!--link CheapestAdviceStrategy to AdviceStrategy--><g id="link_CheapestAdviceStrategy_AdviceStrategy"><path codeLine="20" d="M544.5,113.6411 C544.5,132.0111 544.5,136.9111 544.5,155.3311 " fill="none" id="CheapestAdviceStrategy-to-AdviceStrategy" style="stroke:#181818;stroke-width:1.0;stroke-dasharray:7.0,7.0;"/><polygon fill="none" points="544.5,173.3311,550.5,155.3311,538.5,155.3311,544.5,173.3311" style="stroke:#181818;stroke-width:1.0;"/></g><!--link PriciestAdviceStrategy to AdviceStrategy--><g id="link_PriciestAdviceStrategy_AdviceStrategy"><path codeLine="21" d="M803.46,113.6411 C751.81,132.0811 704.3207,149.0352 652.6507,167.4952 " fill="none" id="PriciestAdviceStrategy-to-AdviceStrategy" style="stroke:#181818;stroke-width:1.0;stroke-dasharray:7.0,7.0;"/><polygon fill="none" points="635.7,173.5511,654.6693,173.1454,650.632,161.8449,635.7,173.5511" style="stroke:#181818;stroke-width:1.0;"/></g><!--SRC=[hT0z2y8m40RWFR_YHaNg3t0eb2uE3c9n4eVZSjP0cvJa44Jzx_OBfHyuUMDutuUxY962WPncq0PpZoLSd0VKDqCCGJmAvtUbgC0G825oPUaqYd4sOz-67WhgMK7EbfjuqdON7P7rmX8sm_Rfh5uVTX3jmH7t4qYlZ1K76KAT4zMIR4Mgus6NEckPcdRhJLw_ujuRCdyIPtyjYkBHtMh-YlNw6O-2yyjDWsy0]--></g></svg>