<svg xmlns="http://www.w3.org/2000/svg" xmlns:xlink="http://www.w3.org/1999/xlink" contentStyleType="text/css" height="248px" preserveAspectRatio="none" style="width:909px;height:248px;background:#FFFFFF;" version="1.1" viewBox="0 0 909 248" width="909px" zoomAndPan="magnify"><title>Code Diagram Backend Adapter voor triptop</title><defs/><g><text fill="#000000" font-family="sans-serif" font-size="14" font-weight="bold" lengthAdjust="spacing" textLength="296.3789" x="299.4482" y="25.1074">Code Diagram Backend Adapter voor triptop</text><!--entity DeutscheBahnAPI--><g id="elem_DeutscheBahnAPI"><polygon fill="#F1F1F1" points="17.5,192.6211,27.5,182.6211,169.5752,182.6211,169.5752,221.2422,159.5752,231.2422,17.5,231.2422,17.5,192.6211" style="stroke:#181818;stroke-width:0.5;"/><line style="stroke:#181818;stroke-width:0.5;" x1="159.5752" x2="169.5752" y1="192.6211" y2="182.6211"/><line style="stroke:#181818;stroke-width:0.5;" x1="17.5" x2="159.5752" y1="192.6211" y2="192.6211"/><line style="stroke:#181818;stroke-width:0.5;" x1="159.5752" x2="159.5752" y1="192.6211" y2="231.2422"/><text fill="#000000" font-family="sans-serif" font-size="14" lengthAdjust="spacing" textLength="112.0752" x="32.5" y="217.7285">DeutscheBahnApi</text></g><!--entity DirectionsApi--><g id="elem_DirectionsApi"><polygon fill="#F1F1F1" points="769.5,192.6211,779.5,182.6211,891.9756,182.6211,891.9756,221.2422,881.9756,231.2422,769.5,231.2422,769.5,192.6211" style="stroke:#181818;stroke-width:0.5;"/><line style="stroke:#181818;stroke-width:0.5;" x1="881.9756" x2="891.9756" y1="192.6211" y2="182.6211"/><line style="stroke:#181818;stroke-width:0.5;" x1="769.5" x2="881.9756" y1="192.6211" y2="192.6211"/><line style="stroke:#181818;stroke-width:0.5;" x1="881.9756" x2="881.9756" y1="192.6211" y2="231.2422"/><text fill="#000000" font-family="sans-serif" font-size="14" lengthAdjust="spacing" textLength="82.4756" x="784.5" y="217.7285">DirectionsApi</text></g><!--class TravelService--><g id="elem_TravelService"><rect codeLine="5" fill="#F1F1F1" height="66.6211" id="TravelService" rx="2.5" ry="2.5" style="stroke:#181818;stroke-width:0.5;" width="507.6738" x="215.5" y="46.6211"/><ellipse cx="422.2974" cy="62.6211" fill="#ADD1B2" rx="11" ry="11" style="stroke:#181818;stroke-width:1.0;"/><path d="M425.063,58.4961 Q425.2192,58.2773 425.4067,58.168 Q425.5942,58.0586 425.813,58.0586 Q426.188,58.0586 426.4224,58.3242 Q426.6567,58.5742 426.6567,59.1836 L426.6567,60.6367 Q426.6567,61.2461 426.4224,61.5117 Q426.188,61.7773 425.813,61.7773 Q425.4692,61.7773 425.2661,61.5742 Q425.063,61.3867 424.9536,60.8711 Q424.9067,60.5117 424.7192,60.3242 Q424.3911,59.9492 423.7817,59.7305 Q423.1724,59.5117 422.5474,59.5117 Q421.7817,59.5117 421.1411,59.8398 Q420.5161,60.168 420.0161,60.918 Q419.5317,61.668 419.5317,62.6992 L419.5317,63.793 Q419.5317,65.0273 420.4224,65.8555 Q421.313,66.668 422.9067,66.668 Q423.8442,66.668 424.5005,66.418 Q424.8911,66.2617 425.313,65.8242 Q425.5786,65.5586 425.7192,65.4805 Q425.8755,65.4023 426.0786,65.4023 Q426.4067,65.4023 426.6567,65.668 Q426.9224,65.918 426.9224,66.2617 Q426.9224,66.6055 426.5786,67.0117 Q426.0786,67.5898 425.2817,67.918 Q424.2036,68.3711 422.9067,68.3711 Q421.3911,68.3711 420.188,67.7461 Q419.2036,67.2461 418.5161,66.1836 Q417.8286,65.1055 417.8286,63.8242 L417.8286,62.668 Q417.8286,61.3398 418.438,60.1992 Q419.063,59.043 420.1567,58.4336 Q421.2505,57.8086 422.4849,57.8086 Q423.2192,57.8086 423.8599,57.9805 Q424.5161,58.1367 425.063,58.4961 Z " fill="#000000"/><text fill="#000000" font-family="sans-serif" font-size="14" lengthAdjust="spacing" textLength="85.5791" x="442.7974" y="68.418">TravelService</text><line style="stroke:#181818;stroke-width:0.5;" x1="216.5" x2="722.1738" y1="78.6211" y2="78.6211"/><line style="stroke:#181818;stroke-width:0.5;" x1="216.5" x2="722.1738" y1="86.6211" y2="86.6211"/><text fill="#000000" font-family="sans-serif" font-size="14" lengthAdjust="spacing" textLength="495.6738" x="221.5" y="105.7285">getTravelData(locationStart: String, locationEnd: String, travelType: String): void</text></g><!--class TravelAdapter--><g id="elem_TravelAdapter"><rect codeLine="9" fill="#F1F1F1" height="66.6211" id="TravelAdapter" rx="2.5" ry="2.5" style="stroke:#181818;stroke-width:0.5;" width="119.9307" x="409.5" y="173.6211"/><ellipse cx="424.5" cy="189.6211" fill="#B4A7E5" rx="11" ry="11" style="stroke:#181818;stroke-width:1.0;"/><path d="M425.4531,186.2617 L425.4531,192.918 L427.1719,192.918 Q427.7813,192.918 428.0469,193.1523 Q428.3125,193.3867 428.3125,193.7773 Q428.3125,194.1523 428.0469,194.3867 Q427.7813,194.6211 427.1719,194.6211 L422.0313,194.6211 Q421.4219,194.6211 421.1563,194.3867 Q420.8906,194.1523 420.8906,193.7617 Q420.8906,193.3867 421.1563,193.1523 Q421.4219,192.918 422.0313,192.918 L423.75,192.918 L423.75,186.2617 L422.0313,186.2617 Q421.4219,186.2617 421.1563,186.0273 Q420.8906,185.793 420.8906,185.4023 Q420.8906,185.0273 421.1563,184.793 Q421.4219,184.5586 422.0313,184.5586 L427.1719,184.5586 Q427.7813,184.5586 428.0469,184.793 Q428.3125,185.0273 428.3125,185.4023 Q428.3125,185.793 428.0469,186.0273 Q427.7813,186.2617 427.1719,186.2617 L425.4531,186.2617 Z " fill="#000000"/><text fill="#000000" font-family="sans-serif" font-size="14" font-style="italic" lengthAdjust="spacing" textLength="87.9307" x="438.5" y="195.418">TravelAdapter</text><line style="stroke:#181818;stroke-width:0.5;" x1="410.5" x2="528.4307" y1="205.6211" y2="205.6211"/><line style="stroke:#181818;stroke-width:0.5;" x1="410.5" x2="528.4307" y1="213.6211" y2="213.6211"/><text fill="#000000" font-family="sans-serif" font-size="14" lengthAdjust="spacing" textLength="99.6064" x="415.5" y="232.7285">getRoute(): void</text></g><!--class DirectionsAdapter--><g id="elem_DirectionsAdapter"><rect codeLine="12" fill="#F1F1F1" height="66.6211" id="DirectionsAdapter" rx="2.5" ry="2.5" style="stroke:#181818;stroke-width:0.5;" width="143.2754" x="759" y="46.6211"/><ellipse cx="774" cy="62.6211" fill="#ADD1B2" rx="11" ry="11" style="stroke:#181818;stroke-width:1.0;"/><path d="M776.7656,58.4961 Q776.9219,58.2773 777.1094,58.168 Q777.2969,58.0586 777.5156,58.0586 Q777.8906,58.0586 778.125,58.3242 Q778.3594,58.5742 778.3594,59.1836 L778.3594,60.6367 Q778.3594,61.2461 778.125,61.5117 Q777.8906,61.7773 777.5156,61.7773 Q777.1719,61.7773 776.9688,61.5742 Q776.7656,61.3867 776.6563,60.8711 Q776.6094,60.5117 776.4219,60.3242 Q776.0938,59.9492 775.4844,59.7305 Q774.875,59.5117 774.25,59.5117 Q773.4844,59.5117 772.8438,59.8398 Q772.2188,60.168 771.7188,60.918 Q771.2344,61.668 771.2344,62.6992 L771.2344,63.793 Q771.2344,65.0273 772.125,65.8555 Q773.0156,66.668 774.6094,66.668 Q775.5469,66.668 776.2031,66.418 Q776.5938,66.2617 777.0156,65.8242 Q777.2813,65.5586 777.4219,65.4805 Q777.5781,65.4023 777.7813,65.4023 Q778.1094,65.4023 778.3594,65.668 Q778.625,65.918 778.625,66.2617 Q778.625,66.6055 778.2813,67.0117 Q777.7813,67.5898 776.9844,67.918 Q775.9063,68.3711 774.6094,68.3711 Q773.0938,68.3711 771.8906,67.7461 Q770.9063,67.2461 770.2188,66.1836 Q769.5313,65.1055 769.5313,63.8242 L769.5313,62.668 Q769.5313,61.3398 770.1406,60.1992 Q770.7656,59.043 771.8594,58.4336 Q772.9531,57.8086 774.1875,57.8086 Q774.9219,57.8086 775.5625,57.9805 Q776.2188,58.1367 776.7656,58.4961 Z " fill="#000000"/><text fill="#000000" font-family="sans-serif" font-size="14" lengthAdjust="spacing" textLength="111.2754" x="788" y="68.418">DirectionsAdapter</text><line style="stroke:#181818;stroke-width:0.5;" x1="760" x2="901.2754" y1="78.6211" y2="78.6211"/><line style="stroke:#181818;stroke-width:0.5;" x1="760" x2="901.2754" y1="86.6211" y2="86.6211"/><text fill="#000000" font-family="sans-serif" font-size="14" lengthAdjust="spacing" textLength="99.6064" x="765" y="105.7285">getRoute(): void</text></g><!--class DeutscheBahnAdapter--><g id="elem_DeutscheBahnAdapter"><rect codeLine="15" fill="#F1F1F1" height="66.6211" id="DeutscheBahnAdapter" rx="2.5" ry="2.5" style="stroke:#181818;stroke-width:0.5;" width="172.875" x="7" y="46.6211"/><ellipse cx="22" cy="62.6211" fill="#ADD1B2" rx="11" ry="11" style="stroke:#181818;stroke-width:1.0;"/><path d="M24.7656,58.4961 Q24.9219,58.2773 25.1094,58.168 Q25.2969,58.0586 25.5156,58.0586 Q25.8906,58.0586 26.125,58.3242 Q26.3594,58.5742 26.3594,59.1836 L26.3594,60.6367 Q26.3594,61.2461 26.125,61.5117 Q25.8906,61.7773 25.5156,61.7773 Q25.1719,61.7773 24.9688,61.5742 Q24.7656,61.3867 24.6563,60.8711 Q24.6094,60.5117 24.4219,60.3242 Q24.0938,59.9492 23.4844,59.7305 Q22.875,59.5117 22.25,59.5117 Q21.4844,59.5117 20.8438,59.8398 Q20.2188,60.168 19.7188,60.918 Q19.2344,61.668 19.2344,62.6992 L19.2344,63.793 Q19.2344,65.0273 20.125,65.8555 Q21.0156,66.668 22.6094,66.668 Q23.5469,66.668 24.2031,66.418 Q24.5938,66.2617 25.0156,65.8242 Q25.2813,65.5586 25.4219,65.4805 Q25.5781,65.4023 25.7813,65.4023 Q26.1094,65.4023 26.3594,65.668 Q26.625,65.918 26.625,66.2617 Q26.625,66.6055 26.2813,67.0117 Q25.7813,67.5898 24.9844,67.918 Q23.9063,68.3711 22.6094,68.3711 Q21.0938,68.3711 19.8906,67.7461 Q18.9063,67.2461 18.2188,66.1836 Q17.5313,65.1055 17.5313,63.8242 L17.5313,62.668 Q17.5313,61.3398 18.1406,60.1992 Q18.7656,59.043 19.8594,58.4336 Q20.9531,57.8086 22.1875,57.8086 Q22.9219,57.8086 23.5625,57.9805 Q24.2188,58.1367 24.7656,58.4961 Z " fill="#000000"/><text fill="#000000" font-family="sans-serif" font-size="14" lengthAdjust="spacing" textLength="140.875" x="36" y="68.418">DeutscheBahnAdapter</text><line style="stroke:#181818;stroke-width:0.5;" x1="8" x2="178.875" y1="78.6211" y2="78.6211"/><line style="stroke:#181818;stroke-width:0.5;" x1="8" x2="178.875" y1="86.6211" y2="86.6211"/><text fill="#000000" font-family="sans-serif" font-size="14" lengthAdjust="spacing" textLength="99.6064" x="13" y="105.7285">getRoute(): void</text></g><!--link TravelService to TravelAdapter--><g id="link_TravelService_TravelAdapter"><path codeLine="22" d="M469.5,113.6411 C469.5,132.0111 469.5,148.9111 469.5,167.3311 " fill="none" id="TravelService-to-TravelAdapter" style="stroke:#181818;stroke-width:1.0;"/><polygon fill="#181818" points="469.5,173.3311,473.5,164.3311,469.5,168.3311,465.5,164.3311,469.5,173.3311" style="stroke:#181818;stroke-width:1.0;"/></g><!--link DirectionsAdapter to TravelAdapter--><g id="link_DirectionsAdapter_TravelAdapter"><path codeLine="24" d="M758.66,107.5111 C752.86,109.5911 747.08,111.6511 741.5,113.6211 C668.82,139.2411 601.8692,161.9177 546.6592,180.3977 " fill="none" id="DirectionsAdapter-to-TravelAdapter" style="stroke:#181818;stroke-width:1.0;stroke-dasharray:7.0,7.0;"/><polygon fill="none" points="529.59,186.1111,548.5637,186.0874,544.7547,174.7079,529.59,186.1111" style="stroke:#181818;stroke-width:1.0;"/></g><!--link DeutscheBahnAdapter to TravelAdapter--><g id="link_DeutscheBahnAdapter_TravelAdapter"><path codeLine="25" d="M180.23,109.9511 C250.39,133.2811 330.2893,159.8422 392.1893,180.4222 " fill="none" id="DeutscheBahnAdapter-to-TravelAdapter" style="stroke:#181818;stroke-width:1.0;stroke-dasharray:7.0,7.0;"/><polygon fill="none" points="409.27,186.1011,394.0822,174.7287,390.2963,186.1158,409.27,186.1011" style="stroke:#181818;stroke-width:1.0;"/></g><!--link DirectionsAdapter to DirectionsApi--><g id="link_DirectionsAdapter_DirectionsApi"><path codeLine="34" d="M830.5,113.6411 C830.5,135.1911 830.5,162.9911 830.5,182.4511 " fill="none" id="DirectionsAdapter-DirectionsApi" style="stroke:#181818;stroke-width:1.0;"/></g><!--link DeutscheBahnAdapter to DeutscheBahnAPI--><g id="link_DeutscheBahnAdapter_DeutscheBahnAPI"><path codeLine="35" d="M93.5,113.6411 C93.5,135.1911 93.5,162.9911 93.5,182.4511 " fill="none" id="DeutscheBahnAdapter-DeutscheBahnAPI" style="stroke:#181818;stroke-width:1.0;"/></g><!--SRC=[TP51JuGm48Nl_HMJlRWc0dSE9gximPkH_GEJChADfMtQWSJe_dSBB08kpl7bU_FUj7TdPXVoB7CQ3RUDJgLjCganXAHIM7ji12lM1C-s8YX62GueFyXKy5IXO_BGMUk1lN9idH1YyCF9OqUw9DyfILy2ujJ4ereWurvRYQoiAHazvr361QP-W4a-cceMUR2TFXrDsdqUOrKbBa8e4qkyewHhvhNMa1aZtspBj9_viLwXFCa-9ypu_p2r7EIP3dWsY-qRV3-hoo597jUzXBZ9JjFllz1696nWGfZXPvRqwmjWWDrASsetlCTbCimLd1hnfV8BtrIDzwpDcqrxQ5tf1m00]--></g></svg>