<svg xmlns="http://www.w3.org/2000/svg" xmlns:xlink="http://www.w3.org/1999/xlink" contentStyleType="text/css" height="483px" preserveAspectRatio="none" style="width:795px;height:483px;background:#FFFFFF;" version="1.1" viewBox="0 0 795 483" width="795px" zoomAndPan="magnify"><title>Code Diagram Backend Adapter voor triptop</title><defs/><g><text fill="#000000" font-family="sans-serif" font-size="14" font-weight="bold" lengthAdjust="spacing" textLength="296.3789" x="242.4482" y="25.1074">Code Diagram Backend Adapter voor triptop</text><!--entity DeutscheBahnAPI--><g id="elem_DeutscheBahnAPI"><polygon fill="#F1F1F1" points="27.5,427.6211,37.5,417.6211,159.3408,417.6211,159.3408,456.2422,149.3408,466.2422,27.5,466.2422,27.5,427.6211" style="stroke:#181818;stroke-width:0.5;"/><line style="stroke:#181818;stroke-width:0.5;" x1="149.3408" x2="159.3408" y1="427.6211" y2="417.6211"/><line style="stroke:#181818;stroke-width:0.5;" x1="27.5" x2="149.3408" y1="427.6211" y2="427.6211"/><line style="stroke:#181818;stroke-width:0.5;" x1="149.3408" x2="149.3408" y1="427.6211" y2="466.2422"/><text fill="#000000" font-family="sans-serif" font-size="14" lengthAdjust="spacing" textLength="91.8408" x="42.5" y="452.7285">DeutscheBahn</text></g><!--entity DirectionsApi--><g id="elem_DirectionsApi"><polygon fill="#F1F1F1" points="665.5,427.6211,675.5,417.6211,767.7412,417.6211,767.7412,456.2422,757.7412,466.2422,665.5,466.2422,665.5,427.6211" style="stroke:#181818;stroke-width:0.5;"/><line style="stroke:#181818;stroke-width:0.5;" x1="757.7412" x2="767.7412" y1="427.6211" y2="417.6211"/><line style="stroke:#181818;stroke-width:0.5;" x1="665.5" x2="757.7412" y1="427.6211" y2="427.6211"/><line style="stroke:#181818;stroke-width:0.5;" x1="757.7412" x2="757.7412" y1="427.6211" y2="466.2422"/><text fill="#000000" font-family="sans-serif" font-size="14" lengthAdjust="spacing" textLength="62.2412" x="680.5" y="452.7285">Directions</text></g><!--class TravelController--><g id="elem_TravelController"><rect codeLine="4" fill="#F1F1F1" height="48" id="TravelController" rx="2.5" ry="2.5" style="stroke:#181818;stroke-width:0.5;" width="131.5859" x="417.5" y="46.6211"/><ellipse cx="432.5" cy="62.6211" fill="#ADD1B2" rx="11" ry="11" style="stroke:#181818;stroke-width:1.0;"/><path d="M435.2656,58.4961 Q435.4219,58.2773 435.6094,58.168 Q435.7969,58.0586 436.0156,58.0586 Q436.3906,58.0586 436.625,58.3242 Q436.8594,58.5742 436.8594,59.1836 L436.8594,60.6367 Q436.8594,61.2461 436.625,61.5117 Q436.3906,61.7773 436.0156,61.7773 Q435.6719,61.7773 435.4688,61.5742 Q435.2656,61.3867 435.1563,60.8711 Q435.1094,60.5117 434.9219,60.3242 Q434.5938,59.9492 433.9844,59.7305 Q433.375,59.5117 432.75,59.5117 Q431.9844,59.5117 431.3438,59.8398 Q430.7188,60.168 430.2188,60.918 Q429.7344,61.668 429.7344,62.6992 L429.7344,63.793 Q429.7344,65.0273 430.625,65.8555 Q431.5156,66.668 433.1094,66.668 Q434.0469,66.668 434.7031,66.418 Q435.0938,66.2617 435.5156,65.8242 Q435.7813,65.5586 435.9219,65.4805 Q436.0781,65.4023 436.2813,65.4023 Q436.6094,65.4023 436.8594,65.668 Q437.125,65.918 437.125,66.2617 Q437.125,66.6055 436.7813,67.0117 Q436.2813,67.5898 435.4844,67.918 Q434.4063,68.3711 433.1094,68.3711 Q431.5938,68.3711 430.3906,67.7461 Q429.4063,67.2461 428.7188,66.1836 Q428.0313,65.1055 428.0313,63.8242 L428.0313,62.668 Q428.0313,61.3398 428.6406,60.1992 Q429.2656,59.043 430.3594,58.4336 Q431.4531,57.8086 432.6875,57.8086 Q433.4219,57.8086 434.0625,57.9805 Q434.7188,58.1367 435.2656,58.4961 Z " fill="#000000"/><text fill="#000000" font-family="sans-serif" font-size="14" lengthAdjust="spacing" textLength="99.5859" x="446.5" y="68.418">TravelController</text><line style="stroke:#181818;stroke-width:0.5;" x1="418.5" x2="548.0859" y1="78.6211" y2="78.6211"/><line style="stroke:#181818;stroke-width:0.5;" x1="418.5" x2="548.0859" y1="86.6211" y2="86.6211"/></g><!--class TravelService--><g id="elem_TravelService"><rect codeLine="7" fill="#F1F1F1" height="66.6211" id="TravelService" rx="2.5" ry="2.5" style="stroke:#181818;stroke-width:0.5;" width="220.5371" x="373" y="154.6211"/><ellipse cx="436.229" cy="170.6211" fill="#ADD1B2" rx="11" ry="11" style="stroke:#181818;stroke-width:1.0;"/><path d="M438.9946,166.4961 Q439.1509,166.2773 439.3384,166.168 Q439.5259,166.0586 439.7446,166.0586 Q440.1196,166.0586 440.354,166.3242 Q440.5884,166.5742 440.5884,167.1836 L440.5884,168.6367 Q440.5884,169.2461 440.354,169.5117 Q440.1196,169.7773 439.7446,169.7773 Q439.4009,169.7773 439.1978,169.5742 Q438.9946,169.3867 438.8853,168.8711 Q438.8384,168.5117 438.6509,168.3242 Q438.3228,167.9492 437.7134,167.7305 Q437.104,167.5117 436.479,167.5117 Q435.7134,167.5117 435.0728,167.8398 Q434.4478,168.168 433.9478,168.918 Q433.4634,169.668 433.4634,170.6992 L433.4634,171.793 Q433.4634,173.0273 434.354,173.8555 Q435.2446,174.668 436.8384,174.668 Q437.7759,174.668 438.4321,174.418 Q438.8228,174.2617 439.2446,173.8242 Q439.5103,173.5586 439.6509,173.4805 Q439.8071,173.4023 440.0103,173.4023 Q440.3384,173.4023 440.5884,173.668 Q440.854,173.918 440.854,174.2617 Q440.854,174.6055 440.5103,175.0117 Q440.0103,175.5898 439.2134,175.918 Q438.1353,176.3711 436.8384,176.3711 Q435.3228,176.3711 434.1196,175.7461 Q433.1353,175.2461 432.4478,174.1836 Q431.7603,173.1055 431.7603,171.8242 L431.7603,170.668 Q431.7603,169.3398 432.3696,168.1992 Q432.9946,167.043 434.0884,166.4336 Q435.1821,165.8086 436.4165,165.8086 Q437.1509,165.8086 437.7915,165.9805 Q438.4478,166.1367 438.9946,166.4961 Z " fill="#000000"/><text fill="#000000" font-family="sans-serif" font-size="14" lengthAdjust="spacing" textLength="85.5791" x="456.729" y="176.418">TravelService</text><line style="stroke:#181818;stroke-width:0.5;" x1="374" x2="592.5371" y1="186.6211" y2="186.6211"/><line style="stroke:#181818;stroke-width:0.5;" x1="374" x2="592.5371" y1="194.6211" y2="194.6211"/><text fill="#000000" font-family="sans-serif" font-size="14" lengthAdjust="spacing" textLength="208.5371" x="379" y="213.7285">getRoute(treinNaam: String): void</text></g><!--class TreinAdapterFactory--><g id="elem_TreinAdapterFactory"><rect codeLine="10" fill="#F1F1F1" height="66.6211" id="TreinAdapterFactory" rx="2.5" ry="2.5" style="stroke:#181818;stroke-width:0.5;" width="323.2471" x="215" y="281.6211"/><ellipse cx="308.5703" cy="297.6211" fill="#ADD1B2" rx="11" ry="11" style="stroke:#181818;stroke-width:1.0;"/><path d="M311.3359,293.4961 Q311.4922,293.2773 311.6797,293.168 Q311.8672,293.0586 312.0859,293.0586 Q312.4609,293.0586 312.6953,293.3242 Q312.9297,293.5742 312.9297,294.1836 L312.9297,295.6367 Q312.9297,296.2461 312.6953,296.5117 Q312.4609,296.7773 312.0859,296.7773 Q311.7422,296.7773 311.5391,296.5742 Q311.3359,296.3867 311.2266,295.8711 Q311.1797,295.5117 310.9922,295.3242 Q310.6641,294.9492 310.0547,294.7305 Q309.4453,294.5117 308.8203,294.5117 Q308.0547,294.5117 307.4141,294.8398 Q306.7891,295.168 306.2891,295.918 Q305.8047,296.668 305.8047,297.6992 L305.8047,298.793 Q305.8047,300.0273 306.6953,300.8555 Q307.5859,301.668 309.1797,301.668 Q310.1172,301.668 310.7734,301.418 Q311.1641,301.2617 311.5859,300.8242 Q311.8516,300.5586 311.9922,300.4805 Q312.1484,300.4023 312.3516,300.4023 Q312.6797,300.4023 312.9297,300.668 Q313.1953,300.918 313.1953,301.2617 Q313.1953,301.6055 312.8516,302.0117 Q312.3516,302.5898 311.5547,302.918 Q310.4766,303.3711 309.1797,303.3711 Q307.6641,303.3711 306.4609,302.7461 Q305.4766,302.2461 304.7891,301.1836 Q304.1016,300.1055 304.1016,298.8242 L304.1016,297.668 Q304.1016,296.3398 304.7109,295.1992 Q305.3359,294.043 306.4297,293.4336 Q307.5234,292.8086 308.7578,292.8086 Q309.4922,292.8086 310.1328,292.9805 Q310.7891,293.1367 311.3359,293.4961 Z " fill="#000000"/><text fill="#000000" font-family="sans-serif" font-size="14" lengthAdjust="spacing" textLength="127.6064" x="329.0703" y="303.418">TreinAdapterFactory</text><line style="stroke:#181818;stroke-width:0.5;" x1="216" x2="537.2471" y1="313.6211" y2="313.6211"/><line style="stroke:#181818;stroke-width:0.5;" x1="216" x2="537.2471" y1="321.6211" y2="321.6211"/><text fill="#000000" font-family="sans-serif" font-size="14" lengthAdjust="spacing" textLength="311.2471" x="221" y="340.7285">getTreinAdapter(treinNaam: String): ITreinAdapter</text></g><!--class ITreinAdapter--><g id="elem_ITreinAdapter"><rect codeLine="15" fill="#F1F1F1" height="66.6211" id="ITreinAdapter" rx="2.5" ry="2.5" style="stroke:#181818;stroke-width:0.5;" width="116.8203" x="415" y="408.6211"/><ellipse cx="430" cy="424.6211" fill="#B4A7E5" rx="11" ry="11" style="stroke:#181818;stroke-width:1.0;"/><path d="M430.9531,421.2617 L430.9531,427.918 L432.6719,427.918 Q433.2813,427.918 433.5469,428.1523 Q433.8125,428.3867 433.8125,428.7773 Q433.8125,429.1523 433.5469,429.3867 Q433.2813,429.6211 432.6719,429.6211 L427.5313,429.6211 Q426.9219,429.6211 426.6563,429.3867 Q426.3906,429.1523 426.3906,428.7617 Q426.3906,428.3867 426.6563,428.1523 Q426.9219,427.918 427.5313,427.918 L429.25,427.918 L429.25,421.2617 L427.5313,421.2617 Q426.9219,421.2617 426.6563,421.0273 Q426.3906,420.793 426.3906,420.4023 Q426.3906,420.0273 426.6563,419.793 Q426.9219,419.5586 427.5313,419.5586 L432.6719,419.5586 Q433.2813,419.5586 433.5469,419.793 Q433.8125,420.0273 433.8125,420.4023 Q433.8125,420.793 433.5469,421.0273 Q433.2813,421.2617 432.6719,421.2617 L430.9531,421.2617 Z " fill="#000000"/><text fill="#000000" font-family="sans-serif" font-size="14" font-style="italic" lengthAdjust="spacing" textLength="84.8203" x="444" y="430.418">ITreinAdapter</text><line style="stroke:#181818;stroke-width:0.5;" x1="416" x2="530.8203" y1="440.6211" y2="440.6211"/><line style="stroke:#181818;stroke-width:0.5;" x1="416" x2="530.8203" y1="448.6211" y2="448.6211"/><text fill="#000000" font-family="sans-serif" font-size="14" lengthAdjust="spacing" textLength="99.6064" x="421" y="467.7285">getRoute(): void</text></g><!--class DirectionsAdapter--><g id="elem_DirectionsAdapter"><rect codeLine="18" fill="#F1F1F1" height="66.6211" id="DirectionsAdapter" rx="2.5" ry="2.5" style="stroke:#181818;stroke-width:0.5;" width="143.2754" x="645" y="281.6211"/><ellipse cx="660" cy="297.6211" fill="#ADD1B2" rx="11" ry="11" style="stroke:#181818;stroke-width:1.0;"/><path d="M662.7656,293.4961 Q662.9219,293.2773 663.1094,293.168 Q663.2969,293.0586 663.5156,293.0586 Q663.8906,293.0586 664.125,293.3242 Q664.3594,293.5742 664.3594,294.1836 L664.3594,295.6367 Q664.3594,296.2461 664.125,296.5117 Q663.8906,296.7773 663.5156,296.7773 Q663.1719,296.7773 662.9688,296.5742 Q662.7656,296.3867 662.6563,295.8711 Q662.6094,295.5117 662.4219,295.3242 Q662.0938,294.9492 661.4844,294.7305 Q660.875,294.5117 660.25,294.5117 Q659.4844,294.5117 658.8438,294.8398 Q658.2188,295.168 657.7188,295.918 Q657.2344,296.668 657.2344,297.6992 L657.2344,298.793 Q657.2344,300.0273 658.125,300.8555 Q659.0156,301.668 660.6094,301.668 Q661.5469,301.668 662.2031,301.418 Q662.5938,301.2617 663.0156,300.8242 Q663.2813,300.5586 663.4219,300.4805 Q663.5781,300.4023 663.7813,300.4023 Q664.1094,300.4023 664.3594,300.668 Q664.625,300.918 664.625,301.2617 Q664.625,301.6055 664.2813,302.0117 Q663.7813,302.5898 662.9844,302.918 Q661.9063,303.3711 660.6094,303.3711 Q659.0938,303.3711 657.8906,302.7461 Q656.9063,302.2461 656.2188,301.1836 Q655.5313,300.1055 655.5313,298.8242 L655.5313,297.668 Q655.5313,296.3398 656.1406,295.1992 Q656.7656,294.043 657.8594,293.4336 Q658.9531,292.8086 660.1875,292.8086 Q660.9219,292.8086 661.5625,292.9805 Q662.2188,293.1367 662.7656,293.4961 Z " fill="#000000"/><text fill="#000000" font-family="sans-serif" font-size="14" lengthAdjust="spacing" textLength="111.2754" x="674" y="303.418">DirectionsAdapter</text><line style="stroke:#181818;stroke-width:0.5;" x1="646" x2="787.2754" y1="313.6211" y2="313.6211"/><line style="stroke:#181818;stroke-width:0.5;" x1="646" x2="787.2754" y1="321.6211" y2="321.6211"/><text fill="#000000" font-family="sans-serif" font-size="14" lengthAdjust="spacing" textLength="99.6064" x="651" y="340.7285">getRoute(): void</text></g><!--class DeutscheBahnAdapter--><g id="elem_DeutscheBahnAdapter"><rect codeLine="21" fill="#F1F1F1" height="66.6211" id="DeutscheBahnAdapter" rx="2.5" ry="2.5" style="stroke:#181818;stroke-width:0.5;" width="172.875" x="7" y="281.6211"/><ellipse cx="22" cy="297.6211" fill="#ADD1B2" rx="11" ry="11" style="stroke:#181818;stroke-width:1.0;"/><path d="M24.7656,293.4961 Q24.9219,293.2773 25.1094,293.168 Q25.2969,293.0586 25.5156,293.0586 Q25.8906,293.0586 26.125,293.3242 Q26.3594,293.5742 26.3594,294.1836 L26.3594,295.6367 Q26.3594,296.2461 26.125,296.5117 Q25.8906,296.7773 25.5156,296.7773 Q25.1719,296.7773 24.9688,296.5742 Q24.7656,296.3867 24.6563,295.8711 Q24.6094,295.5117 24.4219,295.3242 Q24.0938,294.9492 23.4844,294.7305 Q22.875,294.5117 22.25,294.5117 Q21.4844,294.5117 20.8438,294.8398 Q20.2188,295.168 19.7188,295.918 Q19.2344,296.668 19.2344,297.6992 L19.2344,298.793 Q19.2344,300.0273 20.125,300.8555 Q21.0156,301.668 22.6094,301.668 Q23.5469,301.668 24.2031,301.418 Q24.5938,301.2617 25.0156,300.8242 Q25.2813,300.5586 25.4219,300.4805 Q25.5781,300.4023 25.7813,300.4023 Q26.1094,300.4023 26.3594,300.668 Q26.625,300.918 26.625,301.2617 Q26.625,301.6055 26.2813,302.0117 Q25.7813,302.5898 24.9844,302.918 Q23.9063,303.3711 22.6094,303.3711 Q21.0938,303.3711 19.8906,302.7461 Q18.9063,302.2461 18.2188,301.1836 Q17.5313,300.1055 17.5313,298.8242 L17.5313,297.668 Q17.5313,296.3398 18.1406,295.1992 Q18.7656,294.043 19.8594,293.4336 Q20.9531,292.8086 22.1875,292.8086 Q22.9219,292.8086 23.5625,292.9805 Q24.2188,293.1367 24.7656,293.4961 Z " fill="#000000"/><text fill="#000000" font-family="sans-serif" font-size="14" lengthAdjust="spacing" textLength="140.875" x="36" y="303.418">DeutscheBahnAdapter</text><line style="stroke:#181818;stroke-width:0.5;" x1="8" x2="178.875" y1="313.6211" y2="313.6211"/><line style="stroke:#181818;stroke-width:0.5;" x1="8" x2="178.875" y1="321.6211" y2="321.6211"/><text fill="#000000" font-family="sans-serif" font-size="14" lengthAdjust="spacing" textLength="99.6064" x="13" y="340.7285">getRoute(): void</text></g><!--link TravelController to TravelService--><g id="link_TravelController_TravelService"><path codeLine="27" d="M483.5,94.7211 C483.5,111.8311 483.5,129.3911 483.5,148.4411 " fill="none" id="TravelController-to-TravelService" style="stroke:#181818;stroke-width:1.0;"/><polygon fill="#181818" points="483.5,154.4411,487.5,145.4411,483.5,149.4411,479.5,145.4411,483.5,154.4411" style="stroke:#181818;stroke-width:1.0;"/></g><!--link TravelService to ITreinAdapter--><g id="link_TravelService_ITreinAdapter"><path codeLine="28" d="M517.67,221.8211 C532.33,238.2111 547.83,259.2911 555.5,281.6211 C565.17,309.7811 566.06,320.7811 555.5,348.6211 C546.82,371.4911 533.8955,388.1417 517.4755,404.2317 " fill="none" id="TravelService-to-ITreinAdapter" style="stroke:#181818;stroke-width:1.0;"/><polygon fill="#181818" points="513.19,408.4311,522.4178,404.989,516.7612,404.9316,516.8187,399.2751,513.19,408.4311" style="stroke:#181818;stroke-width:1.0;"/></g><!--link TravelService to TreinAdapterFactory--><g id="link_TravelService_TreinAdapterFactory"><path codeLine="29" d="M455.67,221.6411 C439.94,240.0111 424.2307,258.3521 408.4707,276.7721 " fill="none" id="TravelService-to-TreinAdapterFactory" style="stroke:#181818;stroke-width:1.0;stroke-dasharray:7.0,7.0;"/><polygon fill="#181818" points="404.57,281.3311,413.4604,277.093,407.8206,277.5319,407.3817,271.8921,404.57,281.3311" style="stroke:#181818;stroke-width:1.0;"/></g><!--link DirectionsAdapter to ITreinAdapter--><g id="link_DirectionsAdapter_ITreinAdapter"><path codeLine="30" d="M653.29,348.6411 C615.88,367.8811 584.8277,383.8598 548.2277,402.6798 " fill="none" id="DirectionsAdapter-to-ITreinAdapter" style="stroke:#181818;stroke-width:1.0;stroke-dasharray:7.0,7.0;"/><polygon fill="none" points="532.22,410.9111,550.9714,408.0157,545.4839,397.3439,532.22,410.9111" style="stroke:#181818;stroke-width:1.0;"/></g><!--link DeutscheBahnAdapter to ITreinAdapter--><g id="link_DeutscheBahnAdapter_ITreinAdapter"><path codeLine="31" d="M180.2,344.6411 C252.05,368.2811 335.1112,395.5969 397.8312,416.2269 " fill="none" id="DeutscheBahnAdapter-to-ITreinAdapter" style="stroke:#181818;stroke-width:1.0;stroke-dasharray:7.0,7.0;"/><polygon fill="none" points="414.93,421.8511,399.7059,410.5273,395.9565,421.9265,414.93,421.8511" style="stroke:#181818;stroke-width:1.0;"/></g><!--link TreinAdapterFactory to ITreinAdapter--><g id="link_TreinAdapterFactory_ITreinAdapter"><path codeLine="32" d="M401.73,348.6411 C415.99,367.0111 430.0806,385.1717 444.3806,403.5917 " fill="none" id="TreinAdapterFactory-to-ITreinAdapter" style="stroke:#181818;stroke-width:1.0;stroke-dasharray:7.0,7.0;"/><polygon fill="#181818" points="448.06,408.3311,445.7006,398.769,444.9939,404.3816,439.3813,403.6749,448.06,408.3311" style="stroke:#181818;stroke-width:1.0;"/></g><!--link DirectionsAdapter to DirectionsApi--><g id="link_DirectionsAdapter_DirectionsApi"><path codeLine="40" d="M716.5,348.6411 C716.5,370.1911 716.5,397.9911 716.5,417.4511 " fill="none" id="DirectionsAdapter-DirectionsApi" style="stroke:#181818;stroke-width:1.0;"/></g><!--link DeutscheBahnAdapter to DeutscheBahnAPI--><g id="link_DeutscheBahnAdapter_DeutscheBahnAPI"><path codeLine="41" d="M93.5,348.6411 C93.5,370.1911 93.5,397.9911 93.5,417.4511 " fill="none" id="DeutscheBahnAdapter-DeutscheBahnAPI" style="stroke:#181818;stroke-width:1.0;"/></g><!--SRC=[TPB1JiCm38RlUGfh5-3Gzjx39BO9QHU462zWfQQDI9CgTIkXiNSdPD0bMyWfzV_vps-hTntpCDPLDMWqFFMwbBQlfCPnB1g5hSDUi69DiBKDmUvSWWtA3p8DF3OuC3cOhNN0JWri1o52Exmvd4blhM5djIPt5EAKI0Toiv9q5E1FI_ng9wPxTgJCCs9Vmy4xclQXzlQgYPezyFlm4qgsxbCi7h6OjTh7XFSKolZBEqfAfU2uXBhEi5EE92jhnWl-FqmJZxAZ3NQnUuRtvtfhK1JhT5yY-GfwEbIgb-KwkxAR4ShowzefanmoMCO-F9jImeG_ABPysGEEi8fhgx3uqnzz2JceCxjK5l9c4h-Jj3Cxo0-KXla6]--></g></svg>