<svg xmlns="http://www.w3.org/2000/svg" xmlns:xlink="http://www.w3.org/1999/xlink" contentStyleType="text/css" height="502px" preserveAspectRatio="none" style="width:795px;height:502px;background:#FFFFFF;" version="1.1" viewBox="0 0 795 502" width="795px" zoomAndPan="magnify"><title>Code Diagram Backend Adapter voor triptop</title><defs/><g><text fill="#000000" font-family="sans-serif" font-size="14" font-weight="bold" lengthAdjust="spacing" textLength="296.3789" x="242.4482" y="25.1074">Code Diagram Backend Adapter voor triptop</text><!--entity DeutscheBahnAPI--><g id="elem_DeutscheBahnAPI"><polygon fill="#F1F1F1" points="16.5,446.6211,26.5,436.6211,170.9063,436.6211,170.9063,475.2422,160.9063,485.2422,16.5,485.2422,16.5,446.6211" style="stroke:#181818;stroke-width:0.5;"/><line style="stroke:#181818;stroke-width:0.5;" x1="160.9063" x2="170.9063" y1="446.6211" y2="436.6211"/><line style="stroke:#181818;stroke-width:0.5;" x1="16.5" x2="160.9063" y1="446.6211" y2="446.6211"/><line style="stroke:#181818;stroke-width:0.5;" x1="160.9063" x2="160.9063" y1="446.6211" y2="485.2422"/><text fill="#000000" font-family="sans-serif" font-size="14" lengthAdjust="spacing" textLength="114.4063" x="31.5" y="471.7285">DeutscheBahnAPI</text></g><!--entity DirectionsApi--><g id="elem_DirectionsApi"><polygon fill="#F1F1F1" points="655.5,446.6211,665.5,436.6211,777.9756,436.6211,777.9756,475.2422,767.9756,485.2422,655.5,485.2422,655.5,446.6211" style="stroke:#181818;stroke-width:0.5;"/><line style="stroke:#181818;stroke-width:0.5;" x1="767.9756" x2="777.9756" y1="446.6211" y2="436.6211"/><line style="stroke:#181818;stroke-width:0.5;" x1="655.5" x2="767.9756" y1="446.6211" y2="446.6211"/><line style="stroke:#181818;stroke-width:0.5;" x1="767.9756" x2="767.9756" y1="446.6211" y2="485.2422"/><text fill="#000000" font-family="sans-serif" font-size="14" lengthAdjust="spacing" textLength="82.4756" x="670.5" y="471.7285">DirectionsApi</text></g><!--class TravelController--><g id="elem_TravelController"><rect codeLine="4" fill="#F1F1F1" height="66.6211" id="TravelController" rx="2.5" ry="2.5" style="stroke:#181818;stroke-width:0.5;" width="507.6738" x="229.5" y="46.6211"/><ellipse cx="429.2939" cy="62.6211" fill="#ADD1B2" rx="11" ry="11" style="stroke:#181818;stroke-width:1.0;"/><path d="M432.0596,58.4961 Q432.2158,58.2773 432.4033,58.168 Q432.5908,58.0586 432.8096,58.0586 Q433.1846,58.0586 433.4189,58.3242 Q433.6533,58.5742 433.6533,59.1836 L433.6533,60.6367 Q433.6533,61.2461 433.4189,61.5117 Q433.1846,61.7773 432.8096,61.7773 Q432.4658,61.7773 432.2627,61.5742 Q432.0596,61.3867 431.9502,60.8711 Q431.9033,60.5117 431.7158,60.3242 Q431.3877,59.9492 430.7783,59.7305 Q430.1689,59.5117 429.5439,59.5117 Q428.7783,59.5117 428.1377,59.8398 Q427.5127,60.168 427.0127,60.918 Q426.5283,61.668 426.5283,62.6992 L426.5283,63.793 Q426.5283,65.0273 427.4189,65.8555 Q428.3096,66.668 429.9033,66.668 Q430.8408,66.668 431.4971,66.418 Q431.8877,66.2617 432.3096,65.8242 Q432.5752,65.5586 432.7158,65.4805 Q432.8721,65.4023 433.0752,65.4023 Q433.4033,65.4023 433.6533,65.668 Q433.9189,65.918 433.9189,66.2617 Q433.9189,66.6055 433.5752,67.0117 Q433.0752,67.5898 432.2783,67.918 Q431.2002,68.3711 429.9033,68.3711 Q428.3877,68.3711 427.1846,67.7461 Q426.2002,67.2461 425.5127,66.1836 Q424.8252,65.1055 424.8252,63.8242 L424.8252,62.668 Q424.8252,61.3398 425.4346,60.1992 Q426.0596,59.043 427.1533,58.4336 Q428.2471,57.8086 429.4814,57.8086 Q430.2158,57.8086 430.8564,57.9805 Q431.5127,58.1367 432.0596,58.4961 Z " fill="#000000"/><text fill="#000000" font-family="sans-serif" font-size="14" lengthAdjust="spacing" textLength="99.5859" x="449.7939" y="68.418">TravelController</text><line style="stroke:#181818;stroke-width:0.5;" x1="230.5" x2="736.1738" y1="78.6211" y2="78.6211"/><line style="stroke:#181818;stroke-width:0.5;" x1="230.5" x2="736.1738" y1="86.6211" y2="86.6211"/><text fill="#000000" font-family="sans-serif" font-size="14" lengthAdjust="spacing" textLength="495.6738" x="235.5" y="105.7285">getTravelData(locationStart: String, locationEnd: String, travelType: String): void</text></g><!--class TravelService--><g id="elem_TravelService"><rect codeLine="7" fill="#F1F1F1" height="66.6211" id="TravelService" rx="2.5" ry="2.5" style="stroke:#181818;stroke-width:0.5;" width="507.6738" x="229.5" y="173.6211"/><ellipse cx="436.2974" cy="189.6211" fill="#ADD1B2" rx="11" ry="11" style="stroke:#181818;stroke-width:1.0;"/><path d="M439.063,185.4961 Q439.2192,185.2773 439.4067,185.168 Q439.5942,185.0586 439.813,185.0586 Q440.188,185.0586 440.4224,185.3242 Q440.6567,185.5742 440.6567,186.1836 L440.6567,187.6367 Q440.6567,188.2461 440.4224,188.5117 Q440.188,188.7773 439.813,188.7773 Q439.4692,188.7773 439.2661,188.5742 Q439.063,188.3867 438.9536,187.8711 Q438.9067,187.5117 438.7192,187.3242 Q438.3911,186.9492 437.7817,186.7305 Q437.1724,186.5117 436.5474,186.5117 Q435.7817,186.5117 435.1411,186.8398 Q434.5161,187.168 434.0161,187.918 Q433.5317,188.668 433.5317,189.6992 L433.5317,190.793 Q433.5317,192.0273 434.4224,192.8555 Q435.313,193.668 436.9067,193.668 Q437.8442,193.668 438.5005,193.418 Q438.8911,193.2617 439.313,192.8242 Q439.5786,192.5586 439.7192,192.4805 Q439.8755,192.4023 440.0786,192.4023 Q440.4067,192.4023 440.6567,192.668 Q440.9224,192.918 440.9224,193.2617 Q440.9224,193.6055 440.5786,194.0117 Q440.0786,194.5898 439.2817,194.918 Q438.2036,195.3711 436.9067,195.3711 Q435.3911,195.3711 434.188,194.7461 Q433.2036,194.2461 432.5161,193.1836 Q431.8286,192.1055 431.8286,190.8242 L431.8286,189.668 Q431.8286,188.3398 432.438,187.1992 Q433.063,186.043 434.1567,185.4336 Q435.2505,184.8086 436.4849,184.8086 Q437.2192,184.8086 437.8599,184.9805 Q438.5161,185.1367 439.063,185.4961 Z " fill="#000000"/><text fill="#000000" font-family="sans-serif" font-size="14" lengthAdjust="spacing" textLength="85.5791" x="456.7974" y="195.418">TravelService</text><line style="stroke:#181818;stroke-width:0.5;" x1="230.5" x2="736.1738" y1="205.6211" y2="205.6211"/><line style="stroke:#181818;stroke-width:0.5;" x1="230.5" x2="736.1738" y1="213.6211" y2="213.6211"/><text fill="#000000" font-family="sans-serif" font-size="14" lengthAdjust="spacing" textLength="495.6738" x="235.5" y="232.7285">getTravelData(locationStart: String, locationEnd: String, travelType: String): void</text></g><!--class TreinAdapterFactory--><g id="elem_TreinAdapterFactory"><rect codeLine="10" fill="#F1F1F1" height="66.6211" id="TreinAdapterFactory" rx="2.5" ry="2.5" style="stroke:#181818;stroke-width:0.5;" width="323.2471" x="215" y="300.6211"/><ellipse cx="308.5703" cy="316.6211" fill="#ADD1B2" rx="11" ry="11" style="stroke:#181818;stroke-width:1.0;"/><path d="M311.3359,312.4961 Q311.4922,312.2773 311.6797,312.168 Q311.8672,312.0586 312.0859,312.0586 Q312.4609,312.0586 312.6953,312.3242 Q312.9297,312.5742 312.9297,313.1836 L312.9297,314.6367 Q312.9297,315.2461 312.6953,315.5117 Q312.4609,315.7773 312.0859,315.7773 Q311.7422,315.7773 311.5391,315.5742 Q311.3359,315.3867 311.2266,314.8711 Q311.1797,314.5117 310.9922,314.3242 Q310.6641,313.9492 310.0547,313.7305 Q309.4453,313.5117 308.8203,313.5117 Q308.0547,313.5117 307.4141,313.8398 Q306.7891,314.168 306.2891,314.918 Q305.8047,315.668 305.8047,316.6992 L305.8047,317.793 Q305.8047,319.0273 306.6953,319.8555 Q307.5859,320.668 309.1797,320.668 Q310.1172,320.668 310.7734,320.418 Q311.1641,320.2617 311.5859,319.8242 Q311.8516,319.5586 311.9922,319.4805 Q312.1484,319.4023 312.3516,319.4023 Q312.6797,319.4023 312.9297,319.668 Q313.1953,319.918 313.1953,320.2617 Q313.1953,320.6055 312.8516,321.0117 Q312.3516,321.5898 311.5547,321.918 Q310.4766,322.3711 309.1797,322.3711 Q307.6641,322.3711 306.4609,321.7461 Q305.4766,321.2461 304.7891,320.1836 Q304.1016,319.1055 304.1016,317.8242 L304.1016,316.668 Q304.1016,315.3398 304.7109,314.1992 Q305.3359,313.043 306.4297,312.4336 Q307.5234,311.8086 308.7578,311.8086 Q309.4922,311.8086 310.1328,311.9805 Q310.7891,312.1367 311.3359,312.4961 Z " fill="#000000"/><text fill="#000000" font-family="sans-serif" font-size="14" lengthAdjust="spacing" textLength="127.6064" x="329.0703" y="322.418">TreinAdapterFactory</text><line style="stroke:#181818;stroke-width:0.5;" x1="216" x2="537.2471" y1="332.6211" y2="332.6211"/><line style="stroke:#181818;stroke-width:0.5;" x1="216" x2="537.2471" y1="340.6211" y2="340.6211"/><text fill="#000000" font-family="sans-serif" font-size="14" lengthAdjust="spacing" textLength="311.2471" x="221" y="359.7285">getTreinAdapter(treinNaam: String): ITreinAdapter</text></g><!--class ITreinAdapter--><g id="elem_ITreinAdapter"><rect codeLine="15" fill="#F1F1F1" height="66.6211" id="ITreinAdapter" rx="2.5" ry="2.5" style="stroke:#181818;stroke-width:0.5;" width="116.8203" x="410" y="427.6211"/><ellipse cx="425" cy="443.6211" fill="#B4A7E5" rx="11" ry="11" style="stroke:#181818;stroke-width:1.0;"/><path d="M425.9531,440.2617 L425.9531,446.918 L427.6719,446.918 Q428.2813,446.918 428.5469,447.1523 Q428.8125,447.3867 428.8125,447.7773 Q428.8125,448.1523 428.5469,448.3867 Q428.2813,448.6211 427.6719,448.6211 L422.5313,448.6211 Q421.9219,448.6211 421.6563,448.3867 Q421.3906,448.1523 421.3906,447.7617 Q421.3906,447.3867 421.6563,447.1523 Q421.9219,446.918 422.5313,446.918 L424.25,446.918 L424.25,440.2617 L422.5313,440.2617 Q421.9219,440.2617 421.6563,440.0273 Q421.3906,439.793 421.3906,439.4023 Q421.3906,439.0273 421.6563,438.793 Q421.9219,438.5586 422.5313,438.5586 L427.6719,438.5586 Q428.2813,438.5586 428.5469,438.793 Q428.8125,439.0273 428.8125,439.4023 Q428.8125,439.793 428.5469,440.0273 Q428.2813,440.2617 427.6719,440.2617 L425.9531,440.2617 Z " fill="#000000"/><text fill="#000000" font-family="sans-serif" font-size="14" font-style="italic" lengthAdjust="spacing" textLength="84.8203" x="439" y="449.418">ITreinAdapter</text><line style="stroke:#181818;stroke-width:0.5;" x1="411" x2="525.8203" y1="459.6211" y2="459.6211"/><line style="stroke:#181818;stroke-width:0.5;" x1="411" x2="525.8203" y1="467.6211" y2="467.6211"/><text fill="#000000" font-family="sans-serif" font-size="14" lengthAdjust="spacing" textLength="99.6064" x="416" y="486.7285">getRoute(): void</text></g><!--class DirectionsAdapter--><g id="elem_DirectionsAdapter"><rect codeLine="18" fill="#F1F1F1" height="66.6211" id="DirectionsAdapter" rx="2.5" ry="2.5" style="stroke:#181818;stroke-width:0.5;" width="143.2754" x="645" y="300.6211"/><ellipse cx="660" cy="316.6211" fill="#ADD1B2" rx="11" ry="11" style="stroke:#181818;stroke-width:1.0;"/><path d="M662.7656,312.4961 Q662.9219,312.2773 663.1094,312.168 Q663.2969,312.0586 663.5156,312.0586 Q663.8906,312.0586 664.125,312.3242 Q664.3594,312.5742 664.3594,313.1836 L664.3594,314.6367 Q664.3594,315.2461 664.125,315.5117 Q663.8906,315.7773 663.5156,315.7773 Q663.1719,315.7773 662.9688,315.5742 Q662.7656,315.3867 662.6563,314.8711 Q662.6094,314.5117 662.4219,314.3242 Q662.0938,313.9492 661.4844,313.7305 Q660.875,313.5117 660.25,313.5117 Q659.4844,313.5117 658.8438,313.8398 Q658.2188,314.168 657.7188,314.918 Q657.2344,315.668 657.2344,316.6992 L657.2344,317.793 Q657.2344,319.0273 658.125,319.8555 Q659.0156,320.668 660.6094,320.668 Q661.5469,320.668 662.2031,320.418 Q662.5938,320.2617 663.0156,319.8242 Q663.2813,319.5586 663.4219,319.4805 Q663.5781,319.4023 663.7813,319.4023 Q664.1094,319.4023 664.3594,319.668 Q664.625,319.918 664.625,320.2617 Q664.625,320.6055 664.2813,321.0117 Q663.7813,321.5898 662.9844,321.918 Q661.9063,322.3711 660.6094,322.3711 Q659.0938,322.3711 657.8906,321.7461 Q656.9063,321.2461 656.2188,320.1836 Q655.5313,319.1055 655.5313,317.8242 L655.5313,316.668 Q655.5313,315.3398 656.1406,314.1992 Q656.7656,313.043 657.8594,312.4336 Q658.9531,311.8086 660.1875,311.8086 Q660.9219,311.8086 661.5625,311.9805 Q662.2188,312.1367 662.7656,312.4961 Z " fill="#000000"/><text fill="#000000" font-family="sans-serif" font-size="14" lengthAdjust="spacing" textLength="111.2754" x="674" y="322.418">DirectionsAdapter</text><line style="stroke:#181818;stroke-width:0.5;" x1="646" x2="787.2754" y1="332.6211" y2="332.6211"/><line style="stroke:#181818;stroke-width:0.5;" x1="646" x2="787.2754" y1="340.6211" y2="340.6211"/><text fill="#000000" font-family="sans-serif" font-size="14" lengthAdjust="spacing" textLength="99.6064" x="651" y="359.7285">getRoute(): void</text></g><!--class DeutscheBahnAdapter--><g id="elem_DeutscheBahnAdapter"><rect codeLine="21" fill="#F1F1F1" height="66.6211" id="DeutscheBahnAdapter" rx="2.5" ry="2.5" style="stroke:#181818;stroke-width:0.5;" width="172.875" x="7" y="300.6211"/><ellipse cx="22" cy="316.6211" fill="#ADD1B2" rx="11" ry="11" style="stroke:#181818;stroke-width:1.0;"/><path d="M24.7656,312.4961 Q24.9219,312.2773 25.1094,312.168 Q25.2969,312.0586 25.5156,312.0586 Q25.8906,312.0586 26.125,312.3242 Q26.3594,312.5742 26.3594,313.1836 L26.3594,314.6367 Q26.3594,315.2461 26.125,315.5117 Q25.8906,315.7773 25.5156,315.7773 Q25.1719,315.7773 24.9688,315.5742 Q24.7656,315.3867 24.6563,314.8711 Q24.6094,314.5117 24.4219,314.3242 Q24.0938,313.9492 23.4844,313.7305 Q22.875,313.5117 22.25,313.5117 Q21.4844,313.5117 20.8438,313.8398 Q20.2188,314.168 19.7188,314.918 Q19.2344,315.668 19.2344,316.6992 L19.2344,317.793 Q19.2344,319.0273 20.125,319.8555 Q21.0156,320.668 22.6094,320.668 Q23.5469,320.668 24.2031,320.418 Q24.5938,320.2617 25.0156,319.8242 Q25.2813,319.5586 25.4219,319.4805 Q25.5781,319.4023 25.7813,319.4023 Q26.1094,319.4023 26.3594,319.668 Q26.625,319.918 26.625,320.2617 Q26.625,320.6055 26.2813,321.0117 Q25.7813,321.5898 24.9844,321.918 Q23.9063,322.3711 22.6094,322.3711 Q21.0938,322.3711 19.8906,321.7461 Q18.9063,321.2461 18.2188,320.1836 Q17.5313,319.1055 17.5313,317.8242 L17.5313,316.668 Q17.5313,315.3398 18.1406,314.1992 Q18.7656,313.043 19.8594,312.4336 Q20.9531,311.8086 22.1875,311.8086 Q22.9219,311.8086 23.5625,311.9805 Q24.2188,312.1367 24.7656,312.4961 Z " fill="#000000"/><text fill="#000000" font-family="sans-serif" font-size="14" lengthAdjust="spacing" textLength="140.875" x="36" y="322.418">DeutscheBahnAdapter</text><line style="stroke:#181818;stroke-width:0.5;" x1="8" x2="178.875" y1="332.6211" y2="332.6211"/><line style="stroke:#181818;stroke-width:0.5;" x1="8" x2="178.875" y1="340.6211" y2="340.6211"/><text fill="#000000" font-family="sans-serif" font-size="14" lengthAdjust="spacing" textLength="99.6064" x="13" y="359.7285">getRoute(): void</text></g><!--link TravelController to TravelService--><g id="link_TravelController_TravelService"><path codeLine="27" d="M483.5,113.6411 C483.5,132.0111 483.5,148.9111 483.5,167.3311 " fill="none" id="TravelController-to-TravelService" style="stroke:#181818;stroke-width:1.0;"/><polygon fill="#181818" points="483.5,173.3311,487.5,164.3311,483.5,168.3311,479.5,164.3311,483.5,173.3311" style="stroke:#181818;stroke-width:1.0;"/></g><!--link TravelService to ITreinAdapter--><g id="link_TravelService_ITreinAdapter"><path codeLine="28" d="M517.67,240.8211 C532.33,257.2111 547.83,278.2911 555.5,300.6211 C565.17,328.7811 566.47,339.9411 555.5,367.6211 C546.32,390.7811 532.699,407.4516 515.429,423.3916 " fill="none" id="TravelService-to-ITreinAdapter" style="stroke:#181818;stroke-width:1.0;"/><polygon fill="#181818" points="511.02,427.4611,520.3465,424.2962,514.6942,424.0699,514.9205,418.4175,511.02,427.4611" style="stroke:#181818;stroke-width:1.0;"/></g><!--link TravelService to TreinAdapterFactory--><g id="link_TravelService_TreinAdapterFactory"><path codeLine="29" d="M455.67,240.6411 C439.94,259.0111 424.2307,277.3521 408.4707,295.7721 " fill="none" id="TravelService-to-TreinAdapterFactory" style="stroke:#181818;stroke-width:1.0;stroke-dasharray:7.0,7.0;"/><polygon fill="#181818" points="404.57,300.3311,413.4604,296.093,407.8206,296.5319,407.3817,290.8921,404.57,300.3311" style="stroke:#181818;stroke-width:1.0;"/></g><!--link DirectionsAdapter to ITreinAdapter--><g id="link_DirectionsAdapter_ITreinAdapter"><path codeLine="30" d="M651.99,367.6411 C613.38,387.0911 580.7639,403.5399 543.2439,422.4499 " fill="none" id="DirectionsAdapter-to-ITreinAdapter" style="stroke:#181818;stroke-width:1.0;stroke-dasharray:7.0,7.0;"/><polygon fill="none" points="527.17,430.5511,545.9443,427.8078,540.5435,417.0919,527.17,430.5511" style="stroke:#181818;stroke-width:1.0;"/></g><!--link DeutscheBahnAdapter to ITreinAdapter--><g id="link_DeutscheBahnAdapter_ITreinAdapter"><path codeLine="31" d="M180,363.9511 C250.52,387.4611 331.1234,414.3298 392.7834,434.8798 " fill="none" id="DeutscheBahnAdapter-to-ITreinAdapter" style="stroke:#181818;stroke-width:1.0;stroke-dasharray:7.0,7.0;"/><polygon fill="none" points="409.86,440.5711,394.6805,429.1876,390.8863,440.572,409.86,440.5711" style="stroke:#181818;stroke-width:1.0;"/></g><!--link TreinAdapterFactory to ITreinAdapter--><g id="link_TreinAdapterFactory_ITreinAdapter"><path codeLine="32" d="M400.43,367.6411 C413.95,386.0111 427.253,404.0792 440.813,422.4992 " fill="none" id="TreinAdapterFactory-to-ITreinAdapter" style="stroke:#181818;stroke-width:1.0;stroke-dasharray:7.0,7.0;"/><polygon fill="#181818" points="444.37,427.3311,442.2557,417.7119,441.4058,423.3045,435.8132,422.4546,444.37,427.3311" style="stroke:#181818;stroke-width:1.0;"/></g><!--link DirectionsAdapter to DirectionsApi--><g id="link_DirectionsAdapter_DirectionsApi"><path codeLine="40" d="M716.5,367.6411 C716.5,389.1911 716.5,416.9911 716.5,436.4511 " fill="none" id="DirectionsAdapter-DirectionsApi" style="stroke:#181818;stroke-width:1.0;"/></g><!--link DeutscheBahnAdapter to DeutscheBahnAPI--><g id="link_DeutscheBahnAdapter_DeutscheBahnAPI"><path codeLine="41" d="M93.5,367.6411 C93.5,389.1911 93.5,416.9911 93.5,436.4511 " fill="none" id="DeutscheBahnAdapter-DeutscheBahnAPI" style="stroke:#181818;stroke-width:1.0;"/></g><!--SRC=[lL91JiCm4Bpx5QjU219DxZrKeWr8lI14-e6LixGMZcqvsqWLzE-uBYLn6gxuPC_EpknEShTdTksYA9n6muT6vz8sXTJOjlDQuSvZ8rYn9bZRcg2yGB12-K6cXiSQ7PE7pbeFx9LZwuI8xR3rs95UMyFUQat-Kq0uE-9BeKJ6J5k9hAof63qle0eIPlS0L_Z9r3t8iMrxT7J5xXV1MDNYb3XMv3ibwJ_iI9cV19vHilL7CN3jYncV7o-8pK1gCsG4JQ5CkBoZfBGK5OFWcpqmPUCPIkL9dcTlU_hVP3fmA_UqmlrGVO8VplZpmNo-J1CMoIlMqwNIUful9oExMI7FlyPA4vF316r2FjgcB67YhpoKVDq0jZ0ROREO_UdQqC_fr8K-H7x9D_k4PDBcoNNEfDJ-6m00]--></g></svg>