<svg xmlns="http://www.w3.org/2000/svg" xmlns:xlink="http://www.w3.org/1999/xlink" contentStyleType="text/css" height="374px" preserveAspectRatio="none" style="width:1069px;height:374px;background:#FFFFFF;" version="1.1" viewBox="0 0 1069 374" width="1069px" zoomAndPan="magnify"><defs/><g><line style="stroke:#181818;stroke-width:0.5;stroke-dasharray:5.0,5.0;" x1="30" x2="30" y1="83.6211" y2="291.3672"/><line style="stroke:#181818;stroke-width:0.5;stroke-dasharray:5.0,5.0;" x1="359.8047" x2="359.8047" y1="83.6211" y2="291.3672"/><line style="stroke:#181818;stroke-width:0.5;stroke-dasharray:5.0,5.0;" x1="689.4541" x2="689.4541" y1="83.6211" y2="291.3672"/><line style="stroke:#181818;stroke-width:0.5;stroke-dasharray:5.0,5.0;" x1="1011.7007" x2="1011.7007" y1="83.6211" y2="291.3672"/><text fill="#000000" font-family="sans-serif" font-size="14" lengthAdjust="spacing" textLength="45.9033" x="5" y="80.1074">reiziger</text><ellipse cx="30.9517" cy="13.5" fill="#E2E2F0" rx="8" ry="8" style="stroke:#181818;stroke-width:0.5;"/><path d="M30.9517,21.5 L30.9517,48.5 M17.9517,29.5 L43.9517,29.5 M30.9517,48.5 L17.9517,63.5 M30.9517,48.5 L43.9517,63.5 " fill="none" style="stroke:#181818;stroke-width:0.5;"/><text fill="#000000" font-family="sans-serif" font-size="14" lengthAdjust="spacing" textLength="45.9033" x="5" y="305.4746">reiziger</text><ellipse cx="30.9517" cy="317.4883" fill="#E2E2F0" rx="8" ry="8" style="stroke:#181818;stroke-width:0.5;"/><path d="M30.9517,325.4883 L30.9517,352.4883 M17.9517,333.4883 L43.9517,333.4883 M30.9517,352.4883 L17.9517,367.4883 M30.9517,352.4883 L43.9517,367.4883 " fill="none" style="stroke:#181818;stroke-width:0.5;"/><rect fill="#E2E2F0" height="32.6211" rx="2.5" ry="2.5" style="stroke:#181818;stroke-width:0.5;" width="113.5859" x="303.8047" y="50"/><text fill="#000000" font-family="sans-serif" font-size="14" lengthAdjust="spacing" textLength="99.5859" x="310.8047" y="72.1074">TravelController</text><rect fill="#E2E2F0" height="32.6211" rx="2.5" ry="2.5" style="stroke:#181818;stroke-width:0.5;" width="113.5859" x="303.8047" y="290.3672"/><text fill="#000000" font-family="sans-serif" font-size="14" lengthAdjust="spacing" textLength="99.5859" x="310.8047" y="312.4746">TravelController</text><rect fill="#E2E2F0" height="32.6211" rx="2.5" ry="2.5" style="stroke:#181818;stroke-width:0.5;" width="99.5791" x="640.4541" y="50"/><text fill="#000000" font-family="sans-serif" font-size="14" lengthAdjust="spacing" textLength="85.5791" x="647.4541" y="72.1074">TravelService</text><rect fill="#E2E2F0" height="32.6211" rx="2.5" ry="2.5" style="stroke:#181818;stroke-width:0.5;" width="99.5791" x="640.4541" y="290.3672"/><text fill="#000000" font-family="sans-serif" font-size="14" lengthAdjust="spacing" textLength="85.5791" x="647.4541" y="312.4746">TravelService</text><rect fill="#E2E2F0" height="32.6211" rx="2.5" ry="2.5" style="stroke:#181818;stroke-width:0.5;" width="101.9307" x="961.7007" y="50"/><text fill="#000000" font-family="sans-serif" font-size="14" lengthAdjust="spacing" textLength="87.9307" x="968.7007" y="72.1074">TravelAdapter</text><rect fill="#E2E2F0" height="32.6211" rx="2.5" ry="2.5" style="stroke:#181818;stroke-width:0.5;" width="101.9307" x="961.7007" y="290.3672"/><text fill="#000000" font-family="sans-serif" font-size="14" lengthAdjust="spacing" textLength="87.9307" x="968.7007" y="312.4746">TravelAdapter</text><polygon fill="#181818" points="348.5977,112.9121,358.5977,116.9121,348.5977,120.9121,352.5977,116.9121" style="stroke:#181818;stroke-width:1.0;"/><line style="stroke:#181818;stroke-width:1.0;" x1="30.9517" x2="354.5977" y1="116.9121" y2="116.9121"/><text fill="#000000" font-family="sans-serif" font-size="13" lengthAdjust="spacing" textLength="305.646" x="37.9517" y="111.6494">getTravelData(locationStart, locationEnd, travelType)</text><polygon fill="#181818" points="678.2437,144.2031,688.2437,148.2031,678.2437,152.2031,682.2437,148.2031" style="stroke:#181818;stroke-width:1.0;"/><line style="stroke:#181818;stroke-width:1.0;" x1="360.5977" x2="684.2437" y1="148.2031" y2="148.2031"/><text fill="#000000" font-family="sans-serif" font-size="13" lengthAdjust="spacing" textLength="305.646" x="367.5977" y="142.9404">getTravelData(locationStart, locationEnd, travelType)</text><polygon fill="#181818" points="1000.666,175.4941,1010.666,179.4941,1000.666,183.4941,1004.666,179.4941" style="stroke:#181818;stroke-width:1.0;"/><line style="stroke:#181818;stroke-width:1.0;" x1="690.2437" x2="1006.666" y1="179.4941" y2="179.4941"/><text fill="#000000" font-family="sans-serif" font-size="13" lengthAdjust="spacing" textLength="298.4224" x="697.2437" y="174.2314">getTravelData(locationStart,locationEnd,travelType)</text><polygon fill="#181818" points="701.2437,206.7852,691.2437,210.7852,701.2437,214.7852,697.2437,210.7852" style="stroke:#181818;stroke-width:1.0;"/><line style="stroke:#181818;stroke-width:1.0;stroke-dasharray:2.0,2.0;" x1="695.2437" x2="1011.666" y1="210.7852" y2="210.7852"/><text fill="#000000" font-family="sans-serif" font-size="13" lengthAdjust="spacing" textLength="29.6309" x="707.2437" y="205.5225">route</text><polygon fill="#181818" points="371.5977,238.0762,361.5977,242.0762,371.5977,246.0762,367.5977,242.0762" style="stroke:#181818;stroke-width:1.0;"/><line style="stroke:#181818;stroke-width:1.0;stroke-dasharray:2.0,2.0;" x1="365.5977" x2="689.2437" y1="242.0762" y2="242.0762"/><text fill="#000000" font-family="sans-serif" font-size="13" lengthAdjust="spacing" textLength="29.6309" x="377.5977" y="236.8135">route</text><polygon fill="#181818" points="41.9517,269.3672,31.9517,273.3672,41.9517,277.3672,37.9517,273.3672" style="stroke:#181818;stroke-width:1.0;"/><line style="stroke:#181818;stroke-width:1.0;stroke-dasharray:2.0,2.0;" x1="35.9517" x2="359.5977" y1="273.3672" y2="273.3672"/><text fill="#000000" font-family="sans-serif" font-size="13" lengthAdjust="spacing" textLength="29.6309" x="47.9517" y="268.1045">route</text><!--SRC=[dP1D2i9038NtSuhGbK9x0HU2g2TeBn2ceGI6cI76WfxU_ipGGOeBTmbvxyjBq6eG4E8t3oGceYXRZkWLgavm97SDNYKuHr81Fc1hzyGjoSYM5cMgzsIN7gCcOAgDCJa5DETYpGa6qjLsGyM32nQLWszrujQGsxllQz15rhqY7Sr6c7afpB-mP9z9EV1lL4agGSaCJPb9mbDfs_5r_Zejpva4-LTvR3u0]--></g></svg>