<svg xmlns="http://www.w3.org/2000/svg" xmlns:xlink="http://www.w3.org/1999/xlink" contentStyleType="text/css" height="414px" preserveAspectRatio="none" style="width:733px;height:414px;background:#FFFFFF;" version="1.1" viewBox="0 0 733 414" width="733px" zoomAndPan="magnify"><title>Sequence Diagram - backend externe service Triptop</title><defs/><g><text fill="#000000" font-family="sans-serif" font-size="14" font-weight="bold" lengthAdjust="spacing" textLength="353.2402" x="189.3469" y="30.1074">Sequence Diagram - backend externe service Triptop</text><line style="stroke:#181818;stroke-width:0.5;stroke-dasharray:5.0,5.0;" x1="33" x2="33" y1="123.2422" y2="330.9883"/><line style="stroke:#181818;stroke-width:0.5;stroke-dasharray:5.0,5.0;" x1="168.9878" x2="168.9878" y1="123.2422" y2="330.9883"/><line style="stroke:#181818;stroke-width:0.5;stroke-dasharray:5.0,5.0;" x1="378.9844" x2="378.9844" y1="123.2422" y2="330.9883"/><line style="stroke:#181818;stroke-width:0.5;stroke-dasharray:5.0,5.0;" x1="485.2188" x2="485.2188" y1="123.2422" y2="330.9883"/><line style="stroke:#181818;stroke-width:0.5;stroke-dasharray:5.0,5.0;" x1="680.0171" x2="680.0171" y1="123.2422" y2="330.9883"/><text fill="#000000" font-family="sans-serif" font-size="14" lengthAdjust="spacing" textLength="51.3516" x="5" y="119.7285">Reiziger</text><ellipse cx="33.6758" cy="53.1211" fill="#E2E2F0" rx="8" ry="8" style="stroke:#181818;stroke-width:0.5;"/><path d="M33.6758,61.1211 L33.6758,88.1211 M20.6758,69.1211 L46.6758,69.1211 M33.6758,88.1211 L20.6758,103.1211 M33.6758,88.1211 L46.6758,103.1211 " fill="none" style="stroke:#181818;stroke-width:0.5;"/><text fill="#000000" font-family="sans-serif" font-size="14" lengthAdjust="spacing" textLength="51.3516" x="5" y="345.0957">Reiziger</text><ellipse cx="33.6758" cy="357.1094" fill="#E2E2F0" rx="8" ry="8" style="stroke:#181818;stroke-width:0.5;"/><path d="M33.6758,365.1094 L33.6758,392.1094 M20.6758,373.1094 L46.6758,373.1094 M33.6758,392.1094 L20.6758,407.1094 M33.6758,392.1094 L46.6758,407.1094 " fill="none" style="stroke:#181818;stroke-width:0.5;"/><rect fill="#E2E2F0" height="32.6211" rx="2.5" ry="2.5" style="stroke:#181818;stroke-width:0.5;" width="158.7373" x="89.9878" y="89.6211"/><text fill="#000000" font-family="sans-serif" font-size="14" lengthAdjust="spacing" textLength="144.7373" x="96.9878" y="111.7285">BuildingBlockController</text><rect fill="#E2E2F0" height="32.6211" rx="2.5" ry="2.5" style="stroke:#181818;stroke-width:0.5;" width="158.7373" x="89.9878" y="329.9883"/><text fill="#000000" font-family="sans-serif" font-size="14" lengthAdjust="spacing" textLength="144.7373" x="96.9878" y="352.0957">BuildingBlockController</text><rect fill="#E2E2F0" height="32.6211" rx="2.5" ry="2.5" style="stroke:#181818;stroke-width:0.5;" width="48.2344" x="354.9844" y="89.6211"/><text fill="#000000" font-family="sans-serif" font-size="14" lengthAdjust="spacing" textLength="34.2344" x="361.9844" y="111.7285">Flight</text><rect fill="#E2E2F0" height="32.6211" rx="2.5" ry="2.5" style="stroke:#181818;stroke-width:0.5;" width="48.2344" x="354.9844" y="329.9883"/><text fill="#000000" font-family="sans-serif" font-size="14" lengthAdjust="spacing" textLength="34.2344" x="361.9844" y="352.0957">Flight</text><rect fill="#E2E2F0" height="32.6211" rx="2.5" ry="2.5" style="stroke:#181818;stroke-width:0.5;" width="144.7305" x="413.2188" y="89.6211"/><text fill="#000000" font-family="sans-serif" font-size="14" lengthAdjust="spacing" textLength="130.7305" x="420.2188" y="111.7285">BuildingBlockService</text><rect fill="#E2E2F0" height="32.6211" rx="2.5" ry="2.5" style="stroke:#181818;stroke-width:0.5;" width="144.7305" x="413.2188" y="329.9883"/><text fill="#000000" font-family="sans-serif" font-size="14" lengthAdjust="spacing" textLength="130.7305" x="420.2188" y="352.0957">BuildingBlockService</text><rect fill="#E2E2F0" height="32.6211" rx="2.5" ry="2.5" style="stroke:#181818;stroke-width:0.5;" width="94.917" x="633.0171" y="89.6211"/><text fill="#000000" font-family="sans-serif" font-size="14" lengthAdjust="spacing" textLength="80.917" x="640.0171" y="111.7285">FlightService</text><rect fill="#E2E2F0" height="32.6211" rx="2.5" ry="2.5" style="stroke:#181818;stroke-width:0.5;" width="94.917" x="633.0171" y="329.9883"/><text fill="#000000" font-family="sans-serif" font-size="14" lengthAdjust="spacing" textLength="80.917" x="640.0171" y="352.0957">FlightService</text><polygon fill="#181818" points="157.3564,152.5332,167.3564,156.5332,157.3564,160.5332,161.3564,156.5332" style="stroke:#181818;stroke-width:1.0;"/><line style="stroke:#181818;stroke-width:1.0;" x1="33.6758" x2="163.3564" y1="156.5332" y2="156.5332"/><text fill="#000000" font-family="sans-serif" font-size="13" lengthAdjust="spacing" textLength="111.6807" x="40.6758" y="151.2705">book("flight", "539")</text><polygon fill="#181818" points="367.1016,183.8242,377.1016,187.8242,367.1016,191.8242,371.1016,187.8242" style="stroke:#181818;stroke-width:1.0;"/><line style="stroke:#181818;stroke-width:1.0;" x1="169.3564" x2="373.1016" y1="187.8242" y2="187.8242"/><text fill="#000000" font-family="sans-serif" font-size="13" lengthAdjust="spacing" textLength="185.7451" x="176.3564" y="182.5615">vlucht539 = Flight("flight", "539")</text><polygon fill="#181818" points="473.584,215.1152,483.584,219.1152,473.584,223.1152,477.584,219.1152" style="stroke:#181818;stroke-width:1.0;"/><line style="stroke:#181818;stroke-width:1.0;" x1="169.3564" x2="479.584" y1="219.1152" y2="219.1152"/><text fill="#000000" font-family="sans-serif" font-size="13" lengthAdjust="spacing" textLength="92.498" x="176.3564" y="213.8525">book(vlucht539)</text><polygon fill="#181818" points="668.4756,246.4063,678.4756,250.4063,668.4756,254.4063,672.4756,250.4063" style="stroke:#181818;stroke-width:1.0;"/><line style="stroke:#181818;stroke-width:1.0;" x1="485.584" x2="674.4756" y1="250.4063" y2="250.4063"/><text fill="#000000" font-family="sans-serif" font-size="13" lengthAdjust="spacing" textLength="170.8916" x="492.584" y="245.1436">confirmatie = book(vlucht539)</text><polygon fill="#181818" points="180.3564,277.6973,170.3564,281.6973,180.3564,285.6973,176.3564,281.6973" style="stroke:#181818;stroke-width:1.0;"/><line style="stroke:#181818;stroke-width:1.0;stroke-dasharray:2.0,2.0;" x1="174.3564" x2="484.584" y1="281.6973" y2="281.6973"/><text fill="#000000" font-family="sans-serif" font-size="13" lengthAdjust="spacing" textLength="63.5781" x="186.3564" y="276.4346">confirmatie</text><polygon fill="#181818" points="44.6758,308.9883,34.6758,312.9883,44.6758,316.9883,40.6758,312.9883" style="stroke:#181818;stroke-width:1.0;"/><line style="stroke:#181818;stroke-width:1.0;stroke-dasharray:2.0,2.0;" x1="38.6758" x2="168.3564" y1="312.9883" y2="312.9883"/><text fill="#000000" font-family="sans-serif" font-size="13" lengthAdjust="spacing" textLength="63.5781" x="50.6758" y="307.7256">confirmatie</text><!--SRC=[ZP1D3e9038NtSug6bIQwCYuaqOKQ3o1UO1WgDWmpM0indbvKn5-Cs_QzxxrMI2n2XFiIdK5OaavPvp24M9iCNG9u56I7S42kg5Pic0hnXLBQY6TO8vqeHLQ5PY53XNO2yv9iGYwTMs-oXNV2tjetpSfIkfDkMtJB- -AvRzGz6uQphiWGOk-pNh2zEeC11EFH9EYh3lc5T0i9eRAbsKajXsap-yJyudoxfgdJej-ADAf7YzPclDiIvre8wph_GNvzvOdNVKCDQ5_yQZa3]--></g></svg>