<svg xmlns="http://www.w3.org/2000/svg" xmlns:xlink="http://www.w3.org/1999/xlink" contentStyleType="text/css" height="414px" preserveAspectRatio="none" style="width:1069px;height:414px;background:#FFFFFF;" version="1.1" viewBox="0 0 1069 414" width="1069px" zoomAndPan="magnify"><title>Sequence Diagram Backend triptop</title><defs/><g><text fill="#000000" font-family="sans-serif" font-size="14" font-weight="bold" lengthAdjust="spacing" textLength="236.5029" x="415.5642" y="30.1074">Sequence Diagram Backend triptop</text><line style="stroke:#181818;stroke-width:0.5;stroke-dasharray:5.0,5.0;" x1="30" x2="30" y1="123.2422" y2="330.9883"/><line style="stroke:#181818;stroke-width:0.5;stroke-dasharray:5.0,5.0;" x1="359.8047" x2="359.8047" y1="123.2422" y2="330.9883"/><line style="stroke:#181818;stroke-width:0.5;stroke-dasharray:5.0,5.0;" x1="689.4541" x2="689.4541" y1="123.2422" y2="330.9883"/><line style="stroke:#181818;stroke-width:0.5;stroke-dasharray:5.0,5.0;" x1="1011.7007" x2="1011.7007" y1="123.2422" y2="330.9883"/><text fill="#000000" font-family="sans-serif" font-size="14" lengthAdjust="spacing" textLength="45.9033" x="5" y="119.7285">reiziger</text><ellipse cx="30.9517" cy="53.1211" fill="#E2E2F0" rx="8" ry="8" style="stroke:#181818;stroke-width:0.5;"/><path d="M30.9517,61.1211 L30.9517,88.1211 M17.9517,69.1211 L43.9517,69.1211 M30.9517,88.1211 L17.9517,103.1211 M30.9517,88.1211 L43.9517,103.1211 " fill="none" style="stroke:#181818;stroke-width:0.5;"/><text fill="#000000" font-family="sans-serif" font-size="14" lengthAdjust="spacing" textLength="45.9033" x="5" y="345.0957">reiziger</text><ellipse cx="30.9517" cy="357.1094" fill="#E2E2F0" rx="8" ry="8" style="stroke:#181818;stroke-width:0.5;"/><path d="M30.9517,365.1094 L30.9517,392.1094 M17.9517,373.1094 L43.9517,373.1094 M30.9517,392.1094 L17.9517,407.1094 M30.9517,392.1094 L43.9517,407.1094 " fill="none" style="stroke:#181818;stroke-width:0.5;"/><rect fill="#E2E2F0" height="32.6211" rx="2.5" ry="2.5" style="stroke:#181818;stroke-width:0.5;" width="113.5859" x="303.8047" y="89.6211"/><text fill="#000000" font-family="sans-serif" font-size="14" lengthAdjust="spacing" textLength="99.5859" x="310.8047" y="111.7285">TravelController</text><rect fill="#E2E2F0" height="32.6211" rx="2.5" ry="2.5" style="stroke:#181818;stroke-width:0.5;" width="113.5859" x="303.8047" y="329.9883"/><text fill="#000000" font-family="sans-serif" font-size="14" lengthAdjust="spacing" textLength="99.5859" x="310.8047" y="352.0957">TravelController</text><rect fill="#E2E2F0" height="32.6211" rx="2.5" ry="2.5" style="stroke:#181818;stroke-width:0.5;" width="99.5791" x="640.4541" y="89.6211"/><text fill="#000000" font-family="sans-serif" font-size="14" lengthAdjust="spacing" textLength="85.5791" x="647.4541" y="111.7285">TravelService</text><rect fill="#E2E2F0" height="32.6211" rx="2.5" ry="2.5" style="stroke:#181818;stroke-width:0.5;" width="99.5791" x="640.4541" y="329.9883"/><text fill="#000000" font-family="sans-serif" font-size="14" lengthAdjust="spacing" textLength="85.5791" x="647.4541" y="352.0957">TravelService</text><rect fill="#E2E2F0" height="32.6211" rx="2.5" ry="2.5" style="stroke:#181818;stroke-width:0.5;" width="101.9307" x="961.7007" y="89.6211"/><text fill="#000000" font-family="sans-serif" font-size="14" lengthAdjust="spacing" textLength="87.9307" x="968.7007" y="111.7285">TravelAdapter</text><rect fill="#E2E2F0" height="32.6211" rx="2.5" ry="2.5" style="stroke:#181818;stroke-width:0.5;" width="101.9307" x="961.7007" y="329.9883"/><text fill="#000000" font-family="sans-serif" font-size="14" lengthAdjust="spacing" textLength="87.9307" x="968.7007" y="352.0957">TravelAdapter</text><polygon fill="#181818" points="348.5977,152.5332,358.5977,156.5332,348.5977,160.5332,352.5977,156.5332" style="stroke:#181818;stroke-width:1.0;"/><line style="stroke:#181818;stroke-width:1.0;" x1="30.9517" x2="354.5977" y1="156.5332" y2="156.5332"/><text fill="#000000" font-family="sans-serif" font-size="13" lengthAdjust="spacing" textLength="305.646" x="37.9517" y="151.2705">getTravelData(locationStart, locationEnd, travelType)</text><polygon fill="#181818" points="678.2437,183.8242,688.2437,187.8242,678.2437,191.8242,682.2437,187.8242" style="stroke:#181818;stroke-width:1.0;"/><line style="stroke:#181818;stroke-width:1.0;" x1="360.5977" x2="684.2437" y1="187.8242" y2="187.8242"/><text fill="#000000" font-family="sans-serif" font-size="13" lengthAdjust="spacing" textLength="305.646" x="367.5977" y="182.5615">getTravelData(locationStart, locationEnd, travelType)</text><polygon fill="#181818" points="1000.666,215.1152,1010.666,219.1152,1000.666,223.1152,1004.666,219.1152" style="stroke:#181818;stroke-width:1.0;"/><line style="stroke:#181818;stroke-width:1.0;" x1="690.2437" x2="1006.666" y1="219.1152" y2="219.1152"/><text fill="#000000" font-family="sans-serif" font-size="13" lengthAdjust="spacing" textLength="298.4224" x="697.2437" y="213.8525">getTravelData(locationStart,locationEnd,travelType)</text><polygon fill="#181818" points="701.2437,246.4063,691.2437,250.4063,701.2437,254.4063,697.2437,250.4063" style="stroke:#181818;stroke-width:1.0;"/><line style="stroke:#181818;stroke-width:1.0;stroke-dasharray:2.0,2.0;" x1="695.2437" x2="1011.666" y1="250.4063" y2="250.4063"/><text fill="#000000" font-family="sans-serif" font-size="13" lengthAdjust="spacing" textLength="29.6309" x="707.2437" y="245.1436">route</text><polygon fill="#181818" points="371.5977,277.6973,361.5977,281.6973,371.5977,285.6973,367.5977,281.6973" style="stroke:#181818;stroke-width:1.0;"/><line style="stroke:#181818;stroke-width:1.0;stroke-dasharray:2.0,2.0;" x1="365.5977" x2="689.2437" y1="281.6973" y2="281.6973"/><text fill="#000000" font-family="sans-serif" font-size="13" lengthAdjust="spacing" textLength="29.6309" x="377.5977" y="276.4346">route</text><polygon fill="#181818" points="41.9517,308.9883,31.9517,312.9883,41.9517,316.9883,37.9517,312.9883" style="stroke:#181818;stroke-width:1.0;"/><line style="stroke:#181818;stroke-width:1.0;stroke-dasharray:2.0,2.0;" x1="35.9517" x2="359.5977" y1="312.9883" y2="312.9883"/><text fill="#000000" font-family="sans-serif" font-size="13" lengthAdjust="spacing" textLength="29.6309" x="47.9517" y="307.7256">route</text><!--SRC=[dP1D2i9038NtSuhGbO9Um8NWtmdQ2uHfAC5nPeofeAUtrHawI77XBY4lNzwBiZg2cguzUKjmPEm4Bx17UoRVWWf73T6WrI0Wn4_kI4n4KROSqIjKZU2Tt25ubU0SIGLuWwcT4zSaTxRqLgPwJhPhCMe2fjeOart0UbkSsK17-baxekB21OlAmTSwS5UGsvDlLqEgKTOy8YtDH1XvoSo_iBG-ahBXtwYIL8BICgnBJn9wfUd6L_pFj8mp2FAlyjYy0000]--></g></svg>