<svg xmlns="http://www.w3.org/2000/svg" xmlns:xlink="http://www.w3.org/1999/xlink" contentStyleType="text/css" height="437px" preserveAspectRatio="none" style="width:1087px;height:437px;background:#FFFFFF;" version="1.1" viewBox="0 0 1087 437" width="1087px" zoomAndPan="magnify"><defs/><g><line style="stroke:#181818;stroke-width:0.5;stroke-dasharray:5.0,5.0;" x1="30" x2="30" y1="83.6211" y2="353.9492"/><line style="stroke:#181818;stroke-width:0.5;stroke-dasharray:5.0,5.0;" x1="144.4668" x2="144.4668" y1="83.6211" y2="353.9492"/><line style="stroke:#181818;stroke-width:0.5;stroke-dasharray:5.0,5.0;" x1="474.1162" x2="474.1162" y1="83.6211" y2="353.9492"/><line style="stroke:#181818;stroke-width:0.5;stroke-dasharray:5.0,5.0;" x1="796.3628" x2="796.3628" y1="83.6211" y2="353.9492"/><line style="stroke:#181818;stroke-width:0.5;stroke-dasharray:5.0,5.0;" x1="1033.0317" x2="1033.0317" y1="83.6211" y2="353.9492"/><text fill="#000000" font-family="sans-serif" font-size="14" lengthAdjust="spacing" textLength="45.9033" x="5" y="80.1074">reiziger</text><ellipse cx="30.9517" cy="13.5" fill="#E2E2F0" rx="8" ry="8" style="stroke:#181818;stroke-width:0.5;"/><path d="M30.9517,21.5 L30.9517,48.5 M17.9517,29.5 L43.9517,29.5 M30.9517,48.5 L17.9517,63.5 M30.9517,48.5 L43.9517,63.5 " fill="none" style="stroke:#181818;stroke-width:0.5;"/><text fill="#000000" font-family="sans-serif" font-size="14" lengthAdjust="spacing" textLength="45.9033" x="5" y="368.0566">reiziger</text><ellipse cx="30.9517" cy="380.0703" fill="#E2E2F0" rx="8" ry="8" style="stroke:#181818;stroke-width:0.5;"/><path d="M30.9517,388.0703 L30.9517,415.0703 M17.9517,396.0703 L43.9517,396.0703 M30.9517,415.0703 L17.9517,430.0703 M30.9517,415.0703 L43.9517,430.0703 " fill="none" style="stroke:#181818;stroke-width:0.5;"/><rect fill="#E2E2F0" height="32.6211" rx="2.5" ry="2.5" style="stroke:#181818;stroke-width:0.5;" width="113.5859" x="88.4668" y="50"/><text fill="#000000" font-family="sans-serif" font-size="14" lengthAdjust="spacing" textLength="99.5859" x="95.4668" y="72.1074">TravelController</text><rect fill="#E2E2F0" height="32.6211" rx="2.5" ry="2.5" style="stroke:#181818;stroke-width:0.5;" width="113.5859" x="88.4668" y="352.9492"/><text fill="#000000" font-family="sans-serif" font-size="14" lengthAdjust="spacing" textLength="99.5859" x="95.4668" y="375.0566">TravelController</text><rect fill="#E2E2F0" height="32.6211" rx="2.5" ry="2.5" style="stroke:#181818;stroke-width:0.5;" width="99.5791" x="425.1162" y="50"/><text fill="#000000" font-family="sans-serif" font-size="14" lengthAdjust="spacing" textLength="85.5791" x="432.1162" y="72.1074">TravelService</text><rect fill="#E2E2F0" height="32.6211" rx="2.5" ry="2.5" style="stroke:#181818;stroke-width:0.5;" width="99.5791" x="425.1162" y="352.9492"/><text fill="#000000" font-family="sans-serif" font-size="14" lengthAdjust="spacing" textLength="85.5791" x="432.1162" y="375.0566">TravelService</text><rect fill="#E2E2F0" height="32.6211" rx="2.5" ry="2.5" style="stroke:#181818;stroke-width:0.5;" width="101.9307" x="746.3628" y="50"/><text fill="#000000" font-family="sans-serif" font-size="14" lengthAdjust="spacing" textLength="87.9307" x="753.3628" y="72.1074">TravelAdapter</text><rect fill="#E2E2F0" height="32.6211" rx="2.5" ry="2.5" style="stroke:#181818;stroke-width:0.5;" width="101.9307" x="746.3628" y="352.9492"/><text fill="#000000" font-family="sans-serif" font-size="14" lengthAdjust="spacing" textLength="87.9307" x="753.3628" y="375.0566">TravelAdapter</text><rect fill="#E2E2F0" height="32.6211" rx="2.5" ry="2.5" style="stroke:#181818;stroke-width:0.5;" width="96.0449" x="985.0317" y="50"/><text fill="#000000" font-family="sans-serif" font-size="14" lengthAdjust="spacing" textLength="82.0449" x="992.0317" y="72.1074">Externe Api's</text><rect fill="#E2E2F0" height="32.6211" rx="2.5" ry="2.5" style="stroke:#181818;stroke-width:0.5;" width="96.0449" x="985.0317" y="352.9492"/><text fill="#000000" font-family="sans-serif" font-size="14" lengthAdjust="spacing" textLength="82.0449" x="992.0317" y="375.0566">Externe Api's</text><polygon fill="#181818" points="133.2598,112.9121,143.2598,116.9121,133.2598,120.9121,137.2598,116.9121" style="stroke:#181818;stroke-width:1.0;"/><line style="stroke:#181818;stroke-width:1.0;" x1="30.9517" x2="139.2598" y1="116.9121" y2="116.9121"/><text fill="#000000" font-family="sans-serif" font-size="13" lengthAdjust="spacing" textLength="90.3081" x="37.9517" y="111.6494">getTravelData()</text><polygon fill="#181818" points="462.9058,144.2031,472.9058,148.2031,462.9058,152.2031,466.9058,148.2031" style="stroke:#181818;stroke-width:1.0;"/><line style="stroke:#181818;stroke-width:1.0;" x1="145.2598" x2="468.9058" y1="148.2031" y2="148.2031"/><text fill="#000000" font-family="sans-serif" font-size="13" lengthAdjust="spacing" textLength="305.646" x="152.2598" y="142.9404">getTravelData(locationStart, locationEnd, travelType)</text><polygon fill="#181818" points="785.3281,175.4941,795.3281,179.4941,785.3281,183.4941,789.3281,179.4941" style="stroke:#181818;stroke-width:1.0;"/><line style="stroke:#181818;stroke-width:1.0;" x1="474.9058" x2="791.3281" y1="179.4941" y2="179.4941"/><text fill="#000000" font-family="sans-serif" font-size="13" lengthAdjust="spacing" textLength="298.4224" x="481.9058" y="174.2314">getTravelData(locationStart,locationEnd,travelType)</text><polygon fill="#181818" points="1021.0542,206.7852,1031.0542,210.7852,1021.0542,214.7852,1025.0542,210.7852" style="stroke:#181818;stroke-width:1.0;"/><line style="stroke:#181818;stroke-width:1.0;" x1="797.3281" x2="1027.0542" y1="210.7852" y2="210.7852"/><text fill="#000000" font-family="sans-serif" font-size="13" lengthAdjust="spacing" textLength="211.7261" x="804.3281" y="205.5225">GetRoute(locationStart, locationEnd)</text><polygon fill="#181818" points="808.3281,238.0762,798.3281,242.0762,808.3281,246.0762,804.3281,242.0762" style="stroke:#181818;stroke-width:1.0;"/><line style="stroke:#181818;stroke-width:1.0;stroke-dasharray:2.0,2.0;" x1="802.3281" x2="1032.0542" y1="242.0762" y2="242.0762"/><text fill="#000000" font-family="sans-serif" font-size="13" lengthAdjust="spacing" textLength="29.6309" x="814.3281" y="236.8135">route</text><polygon fill="#181818" points="485.9058,269.3672,475.9058,273.3672,485.9058,277.3672,481.9058,273.3672" style="stroke:#181818;stroke-width:1.0;"/><line style="stroke:#181818;stroke-width:1.0;stroke-dasharray:2.0,2.0;" x1="479.9058" x2="796.3281" y1="273.3672" y2="273.3672"/><text fill="#000000" font-family="sans-serif" font-size="13" lengthAdjust="spacing" textLength="29.6309" x="491.9058" y="268.1045">route</text><polygon fill="#181818" points="156.2598,300.6582,146.2598,304.6582,156.2598,308.6582,152.2598,304.6582" style="stroke:#181818;stroke-width:1.0;"/><line style="stroke:#181818;stroke-width:1.0;stroke-dasharray:2.0,2.0;" x1="150.2598" x2="473.9058" y1="304.6582" y2="304.6582"/><text fill="#000000" font-family="sans-serif" font-size="13" lengthAdjust="spacing" textLength="29.6309" x="162.2598" y="299.3955">route</text><polygon fill="#181818" points="41.9517,331.9492,31.9517,335.9492,41.9517,339.9492,37.9517,335.9492" style="stroke:#181818;stroke-width:1.0;"/><line style="stroke:#181818;stroke-width:1.0;stroke-dasharray:2.0,2.0;" x1="35.9517" x2="144.2598" y1="335.9492" y2="335.9492"/><text fill="#000000" font-family="sans-serif" font-size="13" lengthAdjust="spacing" textLength="29.6309" x="47.9517" y="330.6865">route</text><!--SRC=[VP312i8m38RlVOhWHGNt0Zi8GqMyYVC5mXQaCDgInQ4-lQrhNHNnrZJV_-TFi17BmAGV-aAi7BBeHZiq0hCpuq3TnXfXstN4Cy0Ufl8NN1CFkg4N6T-_iAf59z4mlZ-ntSr_6OBAwNa_OiU3KYad5EiiI0aNaj5uYuABfPfwWOn1lh7EDYZQcbhyv1MaScVQ5SWBEzyTBLMK1wSKzhzLxfGRHN4myjj02NkIaxqA_OdYLHujWYIDvY2PpF85nzOxyDULncv-6m-aawQsUW80]--></g></svg>