<svg xmlns="http://www.w3.org/2000/svg" xmlns:xlink="http://www.w3.org/1999/xlink" contentStyleType="text/css" height="552px" preserveAspectRatio="none" style="width:1393px;height:552px;background:#FFFFFF;" version="1.1" viewBox="0 0 1393 552" width="1393px" zoomAndPan="magnify"><title>sequence diagram - backend externe service Triptop</title><defs/><g><text fill="#000000" font-family="sans-serif" font-size="14" font-weight="bold" lengthAdjust="spacing" textLength="350.1299" x="520.7097" y="30.1074">sequence diagram - backend externe service Triptop</text><line style="stroke:#181818;stroke-width:0.5;stroke-dasharray:5.0,5.0;" x1="33" x2="33" y1="123.2422" y2="469.1523"/><line style="stroke:#181818;stroke-width:0.5;stroke-dasharray:5.0,5.0;" x1="245.3516" x2="245.3516" y1="123.2422" y2="469.1523"/><line style="stroke:#181818;stroke-width:0.5;stroke-dasharray:5.0,5.0;" x1="587.6055" x2="587.6055" y1="123.2422" y2="469.1523"/><line style="stroke:#181818;stroke-width:0.5;stroke-dasharray:5.0,5.0;" x1="919.8457" x2="919.8457" y1="123.2422" y2="469.1523"/><line style="stroke:#181818;stroke-width:0.5;stroke-dasharray:5.0,5.0;" x1="1310.8188" x2="1310.8188" y1="123.2422" y2="469.1523"/><text fill="#000000" font-family="sans-serif" font-size="14" lengthAdjust="spacing" textLength="51.3516" x="5" y="119.7285">Reiziger</text><ellipse cx="33.6758" cy="53.1211" fill="#E2E2F0" rx="8" ry="8" style="stroke:#181818;stroke-width:0.5;"/><path d="M33.6758,61.1211 L33.6758,88.1211 M20.6758,69.1211 L46.6758,69.1211 M33.6758,88.1211 L20.6758,103.1211 M33.6758,88.1211 L46.6758,103.1211 " fill="none" style="stroke:#181818;stroke-width:0.5;"/><text fill="#000000" font-family="sans-serif" font-size="14" lengthAdjust="spacing" textLength="51.3516" x="5" y="483.2598">Reiziger</text><ellipse cx="33.6758" cy="495.2734" fill="#E2E2F0" rx="8" ry="8" style="stroke:#181818;stroke-width:0.5;"/><path d="M33.6758,503.2734 L33.6758,530.2734 M20.6758,511.2734 L46.6758,511.2734 M33.6758,530.2734 L20.6758,545.2734 M33.6758,530.2734 L46.6758,545.2734 " fill="none" style="stroke:#181818;stroke-width:0.5;"/><rect fill="#E2E2F0" height="32.6211" rx="2.5" ry="2.5" style="stroke:#181818;stroke-width:0.5;" width="346.2539" x="72.3516" y="89.6211"/><text fill="#000000" font-family="sans-serif" font-size="14" lengthAdjust="spacing" textLength="332.2539" x="79.3516" y="111.7285">accommodationController : AccommodationController</text><rect fill="#E2E2F0" height="32.6211" rx="2.5" ry="2.5" style="stroke:#181818;stroke-width:0.5;" width="346.2539" x="72.3516" y="468.1523"/><text fill="#000000" font-family="sans-serif" font-size="14" lengthAdjust="spacing" textLength="332.2539" x="79.3516" y="490.2598">accommodationController : AccommodationController</text><rect fill="#E2E2F0" height="32.6211" rx="2.5" ry="2.5" style="stroke:#181818;stroke-width:0.5;" width="318.2402" x="428.6055" y="89.6211"/><text fill="#000000" font-family="sans-serif" font-size="14" lengthAdjust="spacing" textLength="304.2402" x="435.6055" y="111.7285">accommodationService : AccommodationService</text><rect fill="#E2E2F0" height="32.6211" rx="2.5" ry="2.5" style="stroke:#181818;stroke-width:0.5;" width="318.2402" x="428.6055" y="468.1523"/><text fill="#000000" font-family="sans-serif" font-size="14" lengthAdjust="spacing" textLength="304.2402" x="435.6055" y="490.2598">accommodationService : AccommodationService</text><rect fill="#E2E2F0" height="32.6211" rx="2.5" ry="2.5" style="stroke:#181818;stroke-width:0.5;" width="326.8467" x="756.8457" y="89.6211"/><text fill="#000000" font-family="sans-serif" font-size="14" lengthAdjust="spacing" textLength="312.8467" x="763.8457" y="111.7285">cheapestAdviceStrategy: CheapestAdviceStrategy</text><rect fill="#E2E2F0" height="32.6211" rx="2.5" ry="2.5" style="stroke:#181818;stroke-width:0.5;" width="326.8467" x="756.8457" y="468.1523"/><text fill="#000000" font-family="sans-serif" font-size="14" lengthAdjust="spacing" textLength="312.8467" x="763.8457" y="490.2598">cheapestAdviceStrategy: CheapestAdviceStrategy</text><rect fill="#E2E2F0" height="32.6211" rx="2.5" ry="2.5" style="stroke:#181818;stroke-width:0.5;" width="151.7305" x="1235.8188" y="89.6211"/><text fill="#000000" font-family="sans-serif" font-size="14" lengthAdjust="spacing" textLength="137.7305" x="1242.8188" y="111.7285">acco: Accommodation</text><rect fill="#E2E2F0" height="32.6211" rx="2.5" ry="2.5" style="stroke:#181818;stroke-width:0.5;" width="151.7305" x="1235.8188" y="468.1523"/><text fill="#000000" font-family="sans-serif" font-size="14" lengthAdjust="spacing" textLength="137.7305" x="1242.8188" y="490.2598">acco: Accommodation</text><polygon fill="#181818" points="233.4785,152.5332,243.4785,156.5332,233.4785,160.5332,237.4785,156.5332" style="stroke:#181818;stroke-width:1.0;"/><line style="stroke:#181818;stroke-width:1.0;" x1="33.6758" x2="239.4785" y1="156.5332" y2="156.5332"/><text fill="#000000" font-family="sans-serif" font-size="13" lengthAdjust="spacing" textLength="126.458" x="40.6758" y="151.2705">getCheapestListings()</text><polygon fill="#181818" points="575.7256,183.8242,585.7256,187.8242,575.7256,191.8242,579.7256,187.8242" style="stroke:#181818;stroke-width:1.0;"/><line style="stroke:#181818;stroke-width:1.0;" x1="245.4785" x2="581.7256" y1="187.8242" y2="187.8242"/><text fill="#000000" font-family="sans-serif" font-size="13" lengthAdjust="spacing" textLength="184.9897" x="252.4785" y="182.5615">generateAdvice(adviceStrategy)</text><polygon fill="#181818" points="908.269,215.1152,918.269,219.1152,908.269,223.1152,912.269,219.1152" style="stroke:#181818;stroke-width:1.0;"/><line style="stroke:#181818;stroke-width:1.0;" x1="587.7256" x2="914.269" y1="219.1152" y2="219.1152"/><text fill="#000000" font-family="sans-serif" font-size="13" lengthAdjust="spacing" textLength="98.998" x="594.7256" y="213.8525">generateAdvice()</text><line style="stroke:#181818;stroke-width:1.0;" x1="920.269" x2="962.269" y1="250.4063" y2="250.4063"/><line style="stroke:#181818;stroke-width:1.0;" x1="962.269" x2="962.269" y1="250.4063" y2="263.4063"/><line style="stroke:#181818;stroke-width:1.0;" x1="921.269" x2="962.269" y1="263.4063" y2="263.4063"/><polygon fill="#181818" points="931.269,259.4063,921.269,263.4063,931.269,267.4063,927.269,263.4063" style="stroke:#181818;stroke-width:1.0;"/><text fill="#000000" font-family="sans-serif" font-size="13" lengthAdjust="spacing" textLength="270.6196" x="927.269" y="245.1436">httpURLConnection = getHttpURLConnection()</text><polygon fill="#181818" points="1299.6841,290.6973,1309.6841,294.6973,1299.6841,298.6973,1303.6841,294.6973" style="stroke:#181818;stroke-width:1.0;"/><line style="stroke:#181818;stroke-width:1.0;" x1="920.269" x2="1305.6841" y1="294.6973" y2="294.6973"/><text fill="#000000" font-family="sans-serif" font-size="13" lengthAdjust="spacing" textLength="367.415" x="927.269" y="289.4346">accommodation = new Accommodation(hotelId, price, currency)</text><polygon fill="#181818" points="1299.6841,321.9883,1309.6841,325.9883,1299.6841,329.9883,1303.6841,325.9883" style="stroke:#181818;stroke-width:1.0;"/><line style="stroke:#181818;stroke-width:1.0;" x1="920.269" x2="1305.6841" y1="325.9883" y2="325.9883"/><text fill="#000000" font-family="sans-serif" font-size="13" lengthAdjust="spacing" textLength="367.415" x="927.269" y="320.7256">accommodation = new Accommodation(hotelId, price, currency)</text><polygon fill="#181818" points="1299.6841,353.2793,1309.6841,357.2793,1299.6841,361.2793,1303.6841,357.2793" style="stroke:#181818;stroke-width:1.0;"/><line style="stroke:#181818;stroke-width:1.0;" x1="920.269" x2="1305.6841" y1="357.2793" y2="357.2793"/><text fill="#000000" font-family="sans-serif" font-size="13" lengthAdjust="spacing" textLength="367.415" x="927.269" y="352.0166">accommodation = new Accommodation(hotelId, price, currency)</text><polygon fill="#181818" points="598.7256,384.5703,588.7256,388.5703,598.7256,392.5703,594.7256,388.5703" style="stroke:#181818;stroke-width:1.0;"/><line style="stroke:#181818;stroke-width:1.0;stroke-dasharray:2.0,2.0;" x1="592.7256" x2="919.269" y1="388.5703" y2="388.5703"/><text fill="#000000" font-family="sans-serif" font-size="13" lengthAdjust="spacing" textLength="98.2681" x="604.7256" y="383.3076">accommodations</text><polygon fill="#181818" points="256.4785,415.8613,246.4785,419.8613,256.4785,423.8613,252.4785,419.8613" style="stroke:#181818;stroke-width:1.0;"/><line style="stroke:#181818;stroke-width:1.0;stroke-dasharray:2.0,2.0;" x1="250.4785" x2="586.7256" y1="419.8613" y2="419.8613"/><text fill="#000000" font-family="sans-serif" font-size="13" lengthAdjust="spacing" textLength="98.2681" x="262.4785" y="414.5986">accommodations</text><polygon fill="#181818" points="44.6758,447.1523,34.6758,451.1523,44.6758,455.1523,40.6758,451.1523" style="stroke:#181818;stroke-width:1.0;"/><line style="stroke:#181818;stroke-width:1.0;stroke-dasharray:2.0,2.0;" x1="38.6758" x2="244.4785" y1="451.1523" y2="451.1523"/><text fill="#000000" font-family="sans-serif" font-size="13" lengthAdjust="spacing" textLength="98.2681" x="50.6758" y="445.8896">accommodations</text><!--SRC=[rPB1ReCm38RlUGgh9v3Q5q3Q9CHbategsmDamO9eaAJ6tTOz_H86XK2r-uwnV__-R8SrjmWzdYze54AbPKsoWmEyIVMEfWByOYGJ9FIXlUA5j6FhX92ABS49zRUkaOIJn5ff9mt3JYfbkyvMahKrXJLCjcsH88FyVcO7iWTrU_xXLeuSAwinFFYCgB69Qb0wx3clGgvaaeprDOFYRdpmAV9o2xBgEmWZG26cdS3XSJ5J1ZNorEseUzQcxfDKp8gW7zc3s61W-ULAP8INYkaSliHZRkIfyD5Ric5shwUZNxT15HZX8S0yhSDpMJHH5ZzziS7FU0r9OndRvseFZdp_FQWBaVzHrt_akDn-PDRFsrvTT2LRdj8hft-mqVq0]--></g></svg>